<?xml version="1.0" standalone="no"?><!DOCTYPE svg PUBLIC "-//W3C//DTD SVG 1.1//EN" "http://www.w3.org/Graphics/SVG/1.1/DTD/svg11.dtd"><svg t="1666981423334" class="icon" viewBox="0 0 1024 1024" version="1.1" xmlns="http://www.w3.org/2000/svg" p-id="1110" xmlns:xlink="http://www.w3.org/1999/xlink" width="200" height="200"><path d="M556.37 777.35l-32.17 18.26V584l271.33-154.01v66.15c0 21.41 17.35 38.76 38.76 38.76 21.41 0 38.76-17.35 38.76-38.76V361.02c0-3.67-0.46-7.26-1.32-10.71-0.23-0.93-0.72-1.74-1.01-2.64-0.81-2.52-1.63-5.02-2.87-7.32-0.66-1.23-1.59-2.24-2.37-3.39-1.19-1.78-2.31-3.6-3.77-5.16-1.02-1.1-2.27-1.92-3.41-2.9-1.34-1.15-2.54-2.47-4.03-3.44-0.22-0.14-0.47-0.19-0.7-0.33-0.22-0.14-0.38-0.35-0.61-0.48L509.97 122.78c-11.45-6.77-25.34-6.85-36.87-0.26L118.4 324.39c-0.28 0.16-0.48 0.42-0.76 0.59-0.33 0.2-0.71 0.27-1.04 0.49-1.45 0.94-2.61 2.22-3.92 3.34-1.11 0.94-2.3 1.75-3.3 2.81-1.46 1.55-2.61 3.34-3.82 5.1-0.79 1.16-1.72 2.19-2.39 3.42-1.15 2.11-1.92 4.42-2.71 6.72-0.38 1.1-0.95 2.1-1.23 3.24-0.9 3.52-1.4 7.18-1.4 10.92v305.53c0 15.36 7.93 29.46 20.61 36.65L467.3 901.24c1.65 0.94 3.41 1.44 5.14 2.11 1.09 0.42 2.11 1.01 3.22 1.32 3.22 0.9 6.5 1.41 9.79 1.41s6.57-0.51 9.79-1.41c1.11-0.31 2.14-0.9 3.22-1.32 1.73-0.66 3.49-1.17 5.14-2.11l93.11-52.85a40.852 40.852 0 0 0 20.68-35.52c-0.02-31.31-33.79-50.97-61.02-35.52z m-65.39-571.03l86.43 50.86-259.9 159.58-91.77-52.09-6.5-3.69 271.74-154.66z m-44.3 589.3L175.34 641.59v-211.6L446.68 584v211.62z m38.76-283.55l-86.94-49.34 258.49-158.71 95.73 56.33-267.28 151.72z" p-id="1111"></path><path d="M732.94 812.52c-9.95 0-19.51-3.96-26.55-11l-85.02-85.02c-14.67-14.66-14.67-38.43 0-53.09 14.65-14.67 38.44-14.67 53.09 0l58.47 58.46 130.79-130.79c14.65-14.67 38.42-14.67 53.09 0 14.67 14.66 14.67 38.43 0 53.09L759.48 801.52c-7.04 7.04-16.59 11-26.54 11z" p-id="1112"></path></svg>