<?xml version="1.0" standalone="no"?><!DOCTYPE svg PUBLIC "-//W3C//DTD SVG 1.1//EN" "http://www.w3.org/Graphics/SVG/1.1/DTD/svg11.dtd"><svg t="1668061626710" class="icon" viewBox="0 0 1024 1024" version="1.1" xmlns="http://www.w3.org/2000/svg" p-id="4144" xmlns:xlink="http://www.w3.org/1999/xlink" width="200" height="200"><path d="M512 950.848c-242.368 0-438.848-196.48-438.848-438.848C73.152 269.632 269.632 73.152 512 73.152c242.368 0 438.848 196.48 438.848 438.848 0 242.368-196.48 438.848-438.848 438.848z m-18.976-491.84v-129.856a36.576 36.576 0 0 0-73.152 0v209.248L262.624 315.296a43.872 43.872 0 0 0-79.776 25.28v299.008a36.576 36.576 0 1 0 73.152 0v-206.72l157.28 223.072a43.872 43.872 0 0 0 79.744-25.28v-32.384a146.272 146.272 0 1 0 0-139.264z m128.704 142.752a73.152 73.152 0 1 1 0-146.272 73.152 73.152 0 0 1 0 146.272z m182.848 56.512a36.576 36.576 0 1 0 0-73.12 36.576 36.576 0 0 0 0 73.12z" p-id="4145"></path></svg>