<?xml version="1.0" standalone="no"?><!DOCTYPE svg PUBLIC "-//W3C//DTD SVG 1.1//EN" "http://www.w3.org/Graphics/SVG/1.1/DTD/svg11.dtd"><svg t="1666981482404" class="icon" viewBox="0 0 1024 1024" version="1.1" xmlns="http://www.w3.org/2000/svg" p-id="1575" xmlns:xlink="http://www.w3.org/1999/xlink" width="200" height="200"><path d="M738.61 149.09h-31.27c-17.14-50.26-64.72-86.57-120.72-86.57H439.01c-56 0-103.57 36.3-120.72 86.57h-31.27c-90.54 0-164.21 73.67-164.21 164.21v483.68c0 90.54 73.67 164.21 164.21 164.21H738.6c90.54 0 164.21-73.67 164.21-164.21V313.3c0.01-90.54-73.66-164.21-164.2-164.21z m-299.6-4.46h147.61c25.1 0 45.51 20.42 45.51 45.51s-20.42 45.51-45.51 45.51H439.01c-25.1 0-45.51-20.42-45.51-45.51s20.42-45.51 45.51-45.51z m381.7 652.36c0 45.27-36.83 82.11-82.11 82.11H287.03c-45.27 0-82.11-36.83-82.11-82.11V313.3c0-45.27 36.83-82.11 82.11-82.11h31.27c17.14 50.26 64.72 86.57 120.72 86.57h147.61c56 0 103.57-36.3 120.72-86.57h31.27c45.27 0 82.11 36.83 82.11 82.11v483.69z" p-id="1576"></path><path d="M705.44 379.64c-17.59-14.34-43.45-11.72-57.75 5.89L442.25 637.67l-67.1-67.1c-16.02-16.04-42.03-16.04-58.05 0-16.04 16.03-16.04 42.02 0 58.05l99.24 99.24a41.04 41.04 0 0 0 29.03 12.03c0.69 0 1.39-0.02 2.08-0.05 11.6-0.59 22.4-6.06 29.74-15.07L711.34 437.4c14.32-17.58 11.68-43.43-5.9-57.76z" p-id="1577"></path></svg>