<?xml version="1.0" standalone="no"?><!DOCTYPE svg PUBLIC "-//W3C//DTD SVG 1.1//EN" "http://www.w3.org/Graphics/SVG/1.1/DTD/svg11.dtd"><svg t="1666981103216" class="icon" viewBox="0 0 1024 1024" version="1.1" xmlns="http://www.w3.org/2000/svg" p-id="1407" xmlns:xlink="http://www.w3.org/1999/xlink" width="200" height="200"><path d="M228.1 622.1c18.6 0 33.7-15.1 33.7-33.7V387.7c0-18.6-15.1-33.7-33.7-33.7s-33.7 15.1-33.7 33.7v200.8c0 18.5 15 33.6 33.7 33.6z" p-id="1408"></path><path d="M654.3 229.5c0-40.8-33.1-73.8-73.8-73.8H138.8c-40.8 0-73.8 33-73.8 73.8v441.7C65 712 98 745 138.8 745h7.1c-0.4 2.1-0.6 4.3-0.6 6.5 0 62.9 51 114 114 114s114-51 114-114c0-2.2-0.2-4.3-0.6-6.5h207.9c2.4 0 4.8-0.1 7.1-0.4-0.5 2.3-0.7 4.5-0.7 6.8 0 62.9 51 114 114 114s114-51 114-114c0-2.2-0.2-4.3-0.6-6.5h87.4c18.6 0 33.7-15.1 33.7-33.7V560c0-9.4-4-18.4-10.9-24.8L784 405.5c-6.2-5.7-14.3-8.9-22.8-8.9H654.3V229.5zM587 671.3c-0.1 3.5-2.9 6.4-6.5 6.4H138.8c-3.6 0-6.5-2.9-6.5-6.5V229.5c0-3.6 2.9-6.5 6.5-6.5h441.7c3.6 0 6.5 2.9 6.5 6.5v441.8z m67.3-207.4H748l120 110.8v102.9H654.3V463.9z m-0.6 281.1h94.5c-0.4 2.1-0.6 4.3-0.6 6.5 0 25.8-20.9 46.6-46.7 46.6-25.7 0-46.6-20.9-46.6-46.6 0-2.2-0.2-4.4-0.6-6.5z m-347.2 0c-0.4 2.1-0.6 4.3-0.6 6.5 0 25.8-20.9 46.6-46.7 46.6-25.7 0-46.6-20.9-46.6-46.6 0-2.2-0.2-4.3-0.6-6.5h94.5z" p-id="1409"></path></svg>