<?xml version="1.0" standalone="no"?><!DOCTYPE svg PUBLIC "-//W3C//DTD SVG 1.1//EN" "http://www.w3.org/Graphics/SVG/1.1/DTD/svg11.dtd"><svg t="1664822452326" class="icon" viewBox="0 0 1024 1024" version="1.1" xmlns="http://www.w3.org/2000/svg" p-id="7901" xmlns:xlink="http://www.w3.org/1999/xlink" width="200" height="200"><path d="M665.6 220.16v204.8h159.744l111.616 168.448V660.48h-67.584v51.2c0 46.592-37.888 84.48-84.992 84.48-46.592 0-84.992-37.888-84.992-84.48v-51.2H324.096v51.2c0 46.592-37.888 84.48-84.992 84.48s-84.992-37.888-84.992-84.48v-51.2H87.04V220.16h578.56m17.408-51.2H69.632C50.688 168.96 35.84 184.32 35.84 202.752v475.136c0 18.944 15.36 33.792 33.792 33.792h33.792c0 74.752 60.928 135.68 136.192 135.68 74.752 0 136.192-60.928 136.192-135.68h272.896c0 74.752 60.928 135.68 136.192 135.68 74.752 0 136.192-60.928 136.192-135.68h33.792c18.944 0 33.792-15.36 33.792-33.792v-93.696c1.024-3.072 0.512-6.144-1.536-8.704l-129.024-194.56c-4.096-5.12-8.704-7.168-14.336-7.168H716.8V202.752c0-18.944-14.848-33.792-33.792-33.792z" p-id="7902"></path><path d="M665.6 220.16v204.8h159.744l111.616 168.448V660.48h-67.584v51.2c0 46.592-37.888 84.48-84.992 84.48-46.592 0-84.992-37.888-84.992-84.48v-51.2H324.096v51.2c0 46.592-37.888 84.48-84.992 84.48s-84.992-37.888-84.992-84.48v-51.2H87.04V220.16h578.56m17.408-51.2H69.632C50.688 168.96 35.84 184.32 35.84 202.752v475.136c0 18.944 15.36 33.792 33.792 33.792h33.792c0 74.752 60.928 135.68 136.192 135.68 74.752 0 136.192-60.928 136.192-135.68h272.896c0 74.752 60.928 135.68 136.192 135.68 74.752 0 136.192-60.928 136.192-135.68h33.792c18.944 0 33.792-15.36 33.792-33.792v-93.696c1.024-3.072 0.512-6.144-1.536-8.704l-129.024-194.56c-4.096-5.12-8.704-7.168-14.336-7.168H716.8V202.752c0-18.944-14.848-33.792-33.792-33.792z" p-id="7903"></path><path d="M785.408 848.384c-75.776 0-137.216-61.44-137.216-137.216s61.44-137.216 137.216-137.216 137.216 61.44 137.216 137.216-61.44 137.216-137.216 137.216z m0-223.232c-47.616 0-86.016 38.4-86.016 86.016s38.4 86.016 86.016 86.016 86.016-38.4 86.016-86.016-38.4-86.016-86.016-86.016zM239.616 848.384c-75.776 0-137.216-61.44-137.216-137.216s61.44-137.216 137.216-137.216 137.216 61.44 137.216 137.216-61.44 137.216-137.216 137.216z m0-223.232c-47.616 0-86.016 38.4-86.016 86.016s38.4 86.016 86.016 86.016 86.016-38.4 86.016-86.016-38.4-86.016-86.016-86.016z" p-id="7904"></path><path d="M691.2 660.48c-14.336 0-25.6-11.264-25.6-25.6V348.16c0-14.336 11.264-25.6 25.6-25.6s25.6 11.264 25.6 25.6v286.72c0 14.336-11.264 25.6-25.6 25.6zM537.6 440.32H230.4c-14.336 0-25.6-11.264-25.6-25.6s11.264-25.6 25.6-25.6h307.2c14.336 0 25.6 11.264 25.6 25.6s-11.264 25.6-25.6 25.6z" p-id="7905"></path></svg>