<?xml version="1.0" standalone="no"?><!DOCTYPE svg PUBLIC "-//W3C//DTD SVG 1.1//EN" "http://www.w3.org/Graphics/SVG/1.1/DTD/svg11.dtd"><svg t="1666981433146" class="icon" viewBox="0 0 1024 1024" version="1.1" xmlns="http://www.w3.org/2000/svg" p-id="1265" xmlns:xlink="http://www.w3.org/1999/xlink" width="200" height="200"><path d="M569.9 777.65l-34.41 19.1V584.29l278.52-154.63v65.55c0 21.97 17.81 39.79 39.79 39.79 21.97 0 39.79-17.81 39.79-39.79v-134.8c0-3.68-0.47-7.29-1.36-10.76-0.24-0.93-0.74-1.75-1.03-2.65-0.83-2.53-1.68-5.04-2.94-7.35-0.68-1.23-1.64-2.25-2.43-3.4-1.23-1.78-2.38-3.61-3.86-5.18-1.05-1.1-2.33-1.93-3.5-2.91-1.38-1.16-2.61-2.48-4.14-3.45-0.23-0.14-0.49-0.19-0.72-0.33-0.23-0.14-0.39-0.35-0.62-0.48l-352.1-202.68c-11.75-6.79-26.01-6.88-37.85-0.26l-364.1 202.68c-0.29 0.16-0.5 0.42-0.78 0.59-0.34 0.2-0.73 0.27-1.06 0.49-1.49 0.94-2.68 2.23-4.03 3.35-1.14 0.95-2.37 1.76-3.39 2.82-1.5 1.56-2.68 3.35-3.92 5.13-0.81 1.16-1.76 2.2-2.46 3.44-1.18 2.12-1.97 4.44-2.78 6.75-0.39 1.11-0.97 2.11-1.27 3.25-0.92 3.53-1.44 7.2-1.44 10.96v306.76c0 15.42 8.14 29.58 21.16 36.8l358.1 198.83c1.69 0.94 3.5 1.45 5.27 2.12 1.12 0.42 2.17 1.01 3.31 1.33 3.3 0.9 6.67 1.42 10.05 1.42s6.75-0.52 10.05-1.42c1.14-0.31 2.19-0.91 3.31-1.33 1.77-0.67 3.59-1.17 5.27-2.12l95.59-53.07a41.23 41.23 0 0 0 21.21-36.04c0.01-31.44-33.75-51.3-61.23-36.05z m-68.5-572.56l88.72 51.07-266.79 160.22-94.2-52.3-6.68-3.71L501.4 205.09z m-45.48 591.67L177.4 642.11V429.66l278.52 154.63v212.47z m39.79-284.69l-89.24-49.54 265.34-159.35 98.26 56.56-274.36 152.33z" p-id="1266"></path><path d="M852.29 715.32l63.85-63.84c15.58-15.57 15.58-40.83 0-56.4-15.56-15.58-40.84-15.58-56.4 0l-63.85 63.84-63.85-63.84c-15.58-15.58-40.84-15.58-56.4 0-15.58 15.57-15.58 40.83 0 56.4l63.85 63.84-63.85 63.84c-15.58 15.57-15.58 40.83 0 56.4 7.78 7.79 18 11.69 28.2 11.69s20.42-3.9 28.2-11.69l63.85-63.84 63.85 63.84c7.79 7.79 18 11.69 28.2 11.69s20.42-3.9 28.2-11.69c15.58-15.57 15.58-40.83 0-56.4l-63.85-63.84z" p-id="1267"></path></svg>