<svg xmlns="http://www.w3.org/2000/svg" xmlns:xlink="http://www.w3.org/1999/xlink" width="48" height="48" viewBox="0 0 48 48" fill="none"><g opacity="1"  transform="translate(0 0)  rotate(0)"><path id="矩形 2" fill-rule="evenodd" style="fill:#F6E6F4" opacity="1" d="M9.6 48L38.4 48C43.7 48 48 43.7 48 38.4L48 9.6C48 4.3 43.7 0 38.4 0L9.6 0C4.3 0 0 4.3 0 9.6L0 38.4C0 43.7 4.3 48 9.6 48Z"></path><g opacity="1"  transform="translate(10 10)  rotate(0)"><mask id="bg-mask-0" fill="white"><use xlink:href="#path_0"></use></mask><g mask="url(#bg-mask-0)" ><path id="路径 1" fill-rule="evenodd" style="fill:#F294C9" opacity="1" d="M6.78984,1.78122h1.82v-1.17c0,-0.31 0.3,-0.61 0.61,-0.61h0.11c0.31,0 0.61,0.3 0.61,0.61v1.17h3.91996v-1.17c0,-0.31 0.31,-0.61 0.61,-0.61h0.12c0.3,0 0.61,0.3 0.61,0.61v1.17h3.92v-1.17c0,-0.31 0.3,-0.61 0.6,-0.61h0.12c0.3,0 0.61,0.3 0.61,0.61v1.17h1.82c2.4,0 4.36,1.96 4.36,4.36v17.49998c0,2.4 -1.96,4.36 -4.36,4.36h-15.47996c-2.4,0 -4.36,-1.96 -4.36,-4.36v-17.49998c0,-2.4 1.96,-4.36 4.36,-4.36zM7.84984,21.5412h13.35996c0.86,0 0.87,1.22 0,1.22h-13.35996c-0.87,0 -0.87,-1.22 0,-1.22zM7.84984,16.7012h13.35996c0.86,0 0.87,1.22 0,1.22h-13.35996c-0.87,0 -0.87,-1.22 0,-1.22zM7.84984,11.8612h13.35996c0.86,0 0.87,1.22 0,1.22h-13.35996c-0.87,0 -0.87,-1.22 0,-1.22zM7.84984,7.02122h13.35996c0.86,0 0.87,1.22 0,1.22h-13.35996c-0.87,0 -0.87,-1.22 0,-1.22zM3.64984,6.14122v17.49998c0,1.73 1.41,3.14 3.14,3.14h15.47996c1.73,0 3.14,-1.41 3.14,-3.14v-17.49998c0,-1.73 -1.41,-3.14 -3.14,-3.14h-15.47996v0c-1.73,0 -3.14,1.41 -3.14,3.14z"></path></g></g></g><defs><rect id="path_0" x="0" y="0" width="28" height="28" /></defs></svg>