<svg xmlns="http://www.w3.org/2000/svg" xmlns:xlink="http://www.w3.org/1999/xlink" width="48" height="48" viewBox="0 0 48 48" fill="none"><g opacity="1"  transform="translate(0 0)  rotate(0)"><path id="矩形 2" fill-rule="evenodd" style="fill:#EDEFFE" opacity="1" d="M9.6 48L38.4 48C43.7 48 48 43.7 48 38.4L48 9.6C48 4.3 43.7 0 38.4 0L9.6 0C4.3 0 0 4.3 0 9.6L0 38.4C0 43.7 4.3 48 9.6 48Z"></path><g opacity="1"  transform="translate(10 10)  rotate(0)"><mask id="bg-mask-0" fill="white"><use xlink:href="#path_0"></use></mask><g mask="url(#bg-mask-0)" ><path id="分组 1" fill-rule="evenodd" style="fill:#37339C" opacity="1" d="M10.512,0c5.79,0 10.49,2.33 10.49,5.2c0,2.87 -4.7,5.2 -10.49,5.2c-5.78996,0 -10.47996,-2.33 -10.47996,-5.2c0,-2.87 4.69,-5.2 10.47996,-5.2zM0.30204,7.95728c1.06,2.32002 5.22,4.05002 10.20996,4.05002c1.16,0 2.27,-0.1 3.31,-0.27c-0.99,0.68 -1.82,1.55 -2.47,2.55c-0.28,0.01 -0.55,0.03 -0.84,0.03c-5.78996,0 -10.47996,-2.33 -10.47996,-5.21002c0,-0.39 0.1,-0.78 0.27,-1.15zM20.7253,7.95813c0.17,0.37 0.27,0.76 0.27,1.15c0,0.41 -0.1,0.81 -0.28,1.18997c-0.57,-0.11 -1.15,-0.17 -1.75,-0.17c-0.15,0 -0.3,0.02 -0.45,0.03c1.06,-0.62997 1.84,-1.37997 2.21,-2.19997zM19.4271,10.6733c4.71,0 8.52,3.81 8.52,8.51c0,4.71 -3.81,8.52 -8.52,8.52c-4.7,0 -8.51,-3.81 -8.51,-8.52c0,-4.7 3.81,-8.51 8.51,-8.51zM0.0321,12.529c0,-0.39 0.1,-0.78 0.27,-1.15c1.06,2.32 5.22,4.05 10.21,4.05c0.08,0 0.15,-0.01 0.22,-0.01c-0.33,0.72 -0.57,1.49 -0.7,2.3c-5.57,-0.12 -10,-2.4 -10,-5.19zM23.4822,14.7046c0.13,-0.21 0.05,-0.45 -0.23,-0.74c-0.05,-0.05 -0.15,-0.13 -0.31,-0.23c-0.14,-0.1 -0.28,-0.18 -0.41,-0.23c-0.21,-0.08 -0.35,-0.09 -0.44,-0.04c-0.08,0.05 -0.19,0.17 -0.32,0.35c-0.05,0.07 -0.17,0.26 -0.38,0.56c-0.2,0.3 -0.42,0.61 -0.65,0.95c-0.22,0.34 -0.43,0.64 -0.62,0.9c-0.2,0.28 -0.3,0.44 -0.32,0.49c-0.05,0.1 -0.15,0.15 -0.29,0.12c-0.14,-0.03 -0.23,-0.09 -0.28,-0.19c-0.03,-0.06 -0.14,-0.21 -0.35,-0.46c-0.2,-0.23 -0.42,-0.51 -0.64,-0.82c-0.23,-0.32 -0.45,-0.6 -0.66,-0.87c-0.22,-0.28 -0.36,-0.46 -0.44,-0.57c-0.16553,-0.31673 -0.33627,-0.47803 -0.5122,-0.4839c-0.06847,-0.00227 -0.13773,0.01903 -0.2078,0.0639c-0.18,0.1 -0.34,0.21 -0.48,0.32c-0.14,0.12 -0.27,0.22 -0.4,0.3c-0.25,0.18 -0.29,0.41 -0.11,0.7c0.43,0.51 0.81,0.99 1.14,1.43c0.28,0.36 0.54,0.7 0.8,1.05c0.25,0.33 0.4,0.52 0.45,0.58c0.02,0.04 0.024,0.072 0.012,0.096c-0.018,0.036 -0.072,0.054 -0.162,0.054h-0.45c-0.13,0 -0.32,0.01 -0.55,0.02c-0.25,0.01 -0.47,0.01 -0.67,-0.02c-0.2,0 -0.37,0.05 -0.5,0.16c-0.12,0.09 -0.16,0.22 -0.11,0.38c0.03,0.11 0.04,0.26 0.04,0.46v0.47c0,0.13 0.03,0.2 0.11,0.22c0.08,0.01 0.17,0.01 0.27,0.01h2.2c0.3,0 0.45,0.06 0.45,0.19v0.74c0,0.13 -0.02,0.2 -0.07,0.2h-2.55c-0.14,-0.03 -0.24,0.01 -0.3,0.11c-0.05,0.11 -0.08,0.22 -0.11,0.35c-0.03,0.13 -0.03,0.25 0,0.36c0.03,0.13 0.03,0.22 0.03,0.3c0,0.34 0.17,0.5 0.5,0.5h2.28c0.13,0 0.2,0.02 0.22,0.06c0.03,0.04 0.04,0.12 0.04,0.25c0.03,0.13 0.04,0.36 0.02,0.69c-0.01,0.34 -0.02,0.56 -0.02,0.67c0,0.28 0.17,0.42 0.49,0.42h1.22c0.2,0 0.31,-0.06 0.31,-0.19v-1.55c0,-0.26 0.11,-0.39 0.34,-0.39h0.34c0.17,0 0.38,-0.01 0.59,-0.02c0.22,-0.01 0.42,-0.02 0.62,-0.02h0.5c0.35,0 0.53,-0.13 0.53,-0.38v-0.86c0,-0.23 -0.12,-0.35 -0.38,-0.35h-2.2c-0.25,0.06 -0.39,0 -0.39,-0.15c0,-0.08 0,-0.18 -0.01,-0.29c-0.02,-0.12 -0.02,-0.22 -0.02,-0.33c0,-0.1 0.04,-0.18 0.13,-0.23c0.09,-0.05 0.19,-0.08 0.29,-0.08h2.24c0.25,0 0.38,-0.09 0.38,-0.27v-0.93c0,-0.1 -0.05,-0.2 -0.14,-0.31c-0.09,-0.1 -0.19,-0.15 -0.32,-0.15h-1.29c-0.12,0 -0.26,-0.01 -0.4,-0.04c-0.14,-0.03 -0.16,-0.11 -0.1,-0.23c0.03,-0.05 0.15,-0.23 0.37,-0.54c0.22,-0.32 0.45,-0.64 0.72,-0.99c0.27,-0.35 0.51,-0.68 0.74,-0.99c0.23,-0.31 0.37,-0.5 0.42,-0.58zM0.0321,15.9508c0,-0.39 0.1,-0.78 0.27,-1.15c1.02,2.22 4.89999,3.9 9.62,4.03c-0.01,0.12 -0.02,0.24 -0.02,0.36c0,0.67 0.08,1.32 0.22,1.95c-5.61,-0.1 -10.09,-2.38 -10.09,-5.19zM10.512,24.5731c-5.78996,0 -10.47996,-2.32 -10.47996,-5.2c0,-0.39 0.1,-0.78 0.27,-1.15c1.05,2.31 5.19,4.03 10.15996,4.04c0.29,0.82 0.7,1.59 1.2,2.28c-0.37,0.02 -0.76,0.03 -1.15,0.03zM12.582,25.5845c0.76,0.77 1.67,1.4 2.67,1.85c-1.42,0.36 -3.03,0.57 -4.74,0.57c-5.78996,0 -10.47996,-2.33 -10.47996,-5.21c0,-0.39 0.1,-0.78 0.27,-1.15c1.06,2.32 5.22,4.05 10.20996,4.05c0.71,0 1.4,-0.04 2.07,-0.11z"></path></g></g></g><defs><rect id="path_0" x="0" y="0" width="28" height="28" /></defs></svg>