<svg xmlns="http://www.w3.org/2000/svg" xmlns:xlink="http://www.w3.org/1999/xlink" width="48" height="48" viewBox="0 0 48 48" fill="none"><defs><rect id="path_0" x="0" y="0" width="28" height="28" /></defs><g opacity="1" transform="translate(0 0)  rotate(0 24 24)"><path id="矩形 2" fill-rule="evenodd" style="fill:#F6E6F4" transform="translate(0 0)  rotate(0 24 24)" opacity="1" d="M5.878304635907297e-16,38.4C0,40.94607830245963 1.0114256675080107,43.38787586628973 2.8117749006091444,45.18822509939086C4.612124133710278,46.98857433249199 7.053921697540378,48.00000000000001 9.600000000000001,48.00000000000001L38.4,48C43.701933598375625,48.00000000000001 48.00000000000001,43.701933598375625 48.00000000000001,38.400000000000006L48,9.600000000000003C48,7.053921697540378 46.98857433249199,4.612124133710277 45.188225099390856,2.8117749006091435C43.38787586628972,1.0114256675080107 40.94607830245962,0 38.4,0L9.600000000000003,0C7.053921697540378,-1.7763568394002505e-15 4.612124133710276,1.0114256675080107 2.811774900609141,2.8117749006091435C1.011425667508007,4.612124133710277 -3.552713678800501e-15,7.05392169754038 -3.552713678800501e-15,9.600000000000005Z " /><g opacity="1" transform="translate(11 11)  rotate(0 14 14)"><mask id="bg-mask-0" fill="white"><use xlink:href="#path_0"></use></mask><g mask="url(#bg-mask-0)" ><path id="分组 1" fill-rule="evenodd" style="fill:#F294C9" transform="translate(1.75 2.625)  rotate(0 12.25 11.375)" opacity="1" d="M6.125 2.63C6.125 3.11 6.515 3.5 6.995 3.5L23.625 3.5C24.105 3.5 24.505 3.11 24.505 2.63C24.505 2.14 24.105 1.75 23.625 1.75L6.995 1.75C6.515 1.75 6.125 2.14 6.125 2.63Z M1.75 0C0.78 0 0 0.78 0 1.75L0 3.5C0 4.47 0.78 5.25 1.75 5.25L3.5 5.25C4.47 5.25 5.25 4.47 5.25 3.5L5.25 1.75C5.25 0.78 4.47 0 3.5 0L1.75 0Z M3.5 1.75L1.75 1.75L1.75 3.5L3.5 3.5L3.5 1.75Z M6.125 11.38C6.125 11.86 6.515 12.25 6.995 12.25L13.125 12.25C13.605 12.25 14.005 11.86 14.005 11.38C14.005 10.89 13.605 10.5 13.125 10.5L6.995 10.5C6.515 10.5 6.125 10.89 6.125 11.38Z M1.75 8.75C0.78 8.75 0 9.53 0 10.5L0 12.25C0 13.22 0.78 14 1.75 14L3.5 14C4.47 14 5.25 13.22 5.25 12.25L5.25 10.5C5.25 9.53 4.47 8.75 3.5 8.75L1.75 8.75Z M3.5 10.5L1.75 10.5L1.75 12.25L3.5 12.25L3.5 10.5Z M6.125 20.13C6.125 20.61 6.515 21 6.995 21L13.125 21C13.605 21 14.005 20.61 14.005 20.13C14.005 19.64 13.605 19.25 13.125 19.25L6.995 19.25C6.515 19.25 6.125 19.64 6.125 20.13Z M1.75 17.5C0.78 17.5 0 18.28 0 19.25L0 21C0 21.97 0.78 22.75 1.75 22.75L3.5 22.75C4.47 22.75 5.25 21.97 5.25 21L5.25 19.25C5.25 18.28 4.47 17.5 3.5 17.5L1.75 17.5Z M3.5 19.25L1.75 19.25L1.75 21L3.5 21L3.5 19.25Z M15.75 18.38C15.75 18.86 16.14 19.25 16.63 19.25L23.63 19.25C24.11 19.25 24.5 18.86 24.5 18.38C24.5 17.89 24.11 17.5 23.63 17.5L16.63 17.5C16.14 17.5 15.75 17.89 15.75 18.38Z M15.75 14.88C15.75 15.36 16.14 15.75 16.63 15.75L23.63 15.75C24.11 15.75 24.5 15.36 24.5 14.88C24.5 14.39 24.11 14 23.63 14L16.63 14C16.14 14 15.75 14.39 15.75 14.88Z " /><path id="路径 12" fill-rule="evenodd" style="fill:#F294C9" transform="translate(21 15.75)  rotate(0 0.875 4.8125)" opacity="1" d="M1.75,0.88C1.75,0.39 1.36,0 0.88,0C0.39,0 0,0.39 0,0.88L0,8.75C0,9.23 0.39,9.63 0.88,9.63C1.36,9.63 1.75,9.23 1.75,8.75L1.75,0.88Z " /><path id="路径 13" fill-rule="evenodd" style="fill:#F294C9" transform="translate(20.11063180992653 12.261908047061635)  rotate(0 3.049730071505916 3.049292537447653)" opacity="1" d="M5.86,1.54C6.19,1.17 6.18,0.62 5.83,0.27C5.48,-0.08 4.93,-0.09 4.56,0.24L0.27,4.54C0.04,4.77 -0.05,5.11 0.03,5.42C0.12,5.74 0.36,5.98 0.68,6.07C0.99,6.15 1.33,6.06 1.56,5.83L5.86,1.54Z " /><path id="路径 14" fill-rule="evenodd" style="fill:#F294C9" transform="translate(17.53990804706163 12.261908047061636)  rotate(0 3.036591952938373 3.036591952938375)" opacity="1" d="M5.81,5.81C6.15,5.46 6.16,4.9 5.83,4.54L1.54,0.24C1.17,-0.09 0.62,-0.08 0.27,0.27C-0.08,0.62 -0.09,1.17 0.24,1.54L4.54,5.83C4.9,6.16 5.46,6.15 5.81,5.81Z " /></g></g></g></svg>