<svg xmlns="http://www.w3.org/2000/svg" xmlns:xlink="http://www.w3.org/1999/xlink" width="47.850006103515625" height="48" viewBox="0 0 47.850006103515625 48" fill="none"><g opacity="1"  transform="translate(0 0)  rotate(0)"><path id="矩形 2" fill-rule="evenodd" style="fill:#FFF7E8" opacity="1" d="M9.6 48L38.25 48C43.55 48 47.85 43.7 47.85 38.4L47.85 9.6C47.85 4.3 43.55 0 38.25 0L9.6 0C4.3 0 0 4.3 0 9.6L0 38.4C0 43.7 4.3 48 9.6 48Z"></path><g opacity="1"  transform="translate(10 10)  rotate(0)"><mask id="bg-mask-0" fill="white"><use transform="translate(0 0)  rotate(0)" xlink:href="#path_0"></use></mask><g mask="url(#bg-mask-0)" ><path id="路径 1" fill-rule="evenodd" style="fill:#FAB124" opacity="1" d="M18.3642 8.51567L16.1009 14.0173L18.57 14.0173L18.57 16.6115L14.8663 16.6115L14.3936 17.5101L14.3936 18.3077L18.57 18.3077L18.57 20.8021L14.3936 20.8021L14.3936 24.2948L10.6902 24.2948L10.6902 20.8021L6.42038 20.8021L6.42038 18.3077L10.6902 18.3077L10.6902 17.5101L10.2175 16.6115L6.51575 16.6115L6.42035 14.0174L9.45731 14.0174L6.42035 6.63415L10.3126 6.63415L12.7784 14.3167L15.3425 6.63415L17.6687 6.63415C16.9069 4.30203 16.7506 2.6602 16.6434 0.491354C15.6758 0.264387 14.6692 0.140198 13.6319 0.140198C6.17552 0.140198 0.130524 6.37649 0.130524 14.0702C0.130524 21.763 6.17554 27.9999 13.6319 27.9999C19.7654 27.9999 24.9399 23.7813 26.5857 18.0041C23.0012 15.8198 20.3928 13.4665 18.3642 8.51567Z"></path><path id="路径 2" fill-rule="evenodd" style="fill:#FAB124" opacity="1" d="M19.4371 0.686903C19.1634 0.574706 18.9169 0.482019 18.7025 0.407166L17.9001 1.41728C17.9308 1.71991 17.9715 2.06849 18.0326 2.45791L19.4371 0.686903Z"></path><path id="路径 3" fill-rule="evenodd" style="fill:#FAB124" opacity="1" d="M27.9784 12.8143L25.5163 15.9168C25.7049 16.0749 25.9005 16.2322 26.0995 16.3878L27.98 14.019C27.9937 13.6058 27.9921 13.2038 27.9784 12.8143Z"></path><path id="路径 4" fill-rule="evenodd" style="fill:#FAB124" opacity="1" d="M23.8618 14.3881L27.5584 9.7306C27.4835 9.4246 27.3987 9.12868 27.3069 8.84125L23.3414 13.8364C23.5114 14.0217 23.6849 14.2044 23.8618 14.3881Z"></path><path id="路径 5" fill-rule="evenodd" style="fill:#FAB124" opacity="1" d="M21.8722 12.0763L26.2627 6.5423C26.1334 6.30346 25.9974 6.07218 25.8579 5.84851L21.4164 11.4438C21.5627 11.6547 21.7157 11.8656 21.8722 12.0763Z"></path><path id="路径 6" fill-rule="evenodd" style="fill:#FAB124" opacity="1" d="M20.2229 9.3361L24.4534 4.00607C24.275 3.82248 24.0964 3.64647 23.9144 3.47729L19.8522 8.59635C19.9695 8.84118 20.0935 9.08777 20.2229 9.3361Z"></path><path id="路径 7" fill-rule="evenodd" style="fill:#FAB124" opacity="1" d="M18.8811 6.20728L22.1527 2.08379C21.9385 1.94012 21.7259 1.80492 21.5185 1.67908L18.6074 5.34686C18.689 5.62743 18.7808 5.91397 18.8811 6.20728Z"></path></g></g></g><defs><rect id="path_0" x="0" y="0" width="28" height="28" rx="0" ry="0"/></defs></svg>