<svg xmlns="http://www.w3.org/2000/svg" xmlns:xlink="http://www.w3.org/1999/xlink" width="48" height="48" viewBox="0 0 48 48" fill="none"><g opacity="1"  transform="translate(0 0)  rotate(0)"><path id="矩形 2" fill-rule="evenodd" style="fill:#F6E6F4" opacity="1" d="M9.6 48L38.4 48C43.7 48 48 43.7 48 38.4L48 9.6C48 4.3 43.7 0 38.4 0L9.6 0C4.3 0 0 4.3 0 9.6L0 38.4C0 43.7 4.3 48 9.6 48Z"></path><g opacity="1"  transform="translate(10 10)  rotate(0)"><rect fill="#F6E6F4" opacity="1" transform="translate(0 0)  rotate(0)" x="0" y="0" width="28" height="27.99999999999999" /><mask id="bg-mask-0" fill="white"><use xlink:href="#path_0"></use></mask><g mask="url(#bg-mask-0)" ><path id="路径 1" fill-rule="evenodd" style="fill:#F294C9" opacity="1" d="M9.8904 11.47L12.5404 14.45L9.9304 14.45C9.5104 14.45 9.1704 14.8 9.1704 15.23C9.1704 15.65 9.5104 16 9.9304 16L13.6004 16L13.6004 17.7L9.9304 17.7C9.5104 17.7 9.1704 18.04 9.1704 18.47C9.1704 18.89 9.5104 19.24 9.9304 19.24L13.6004 19.24L13.6004 25.23L6.8504 25.23C6.1804 25.23 5.6404 24.62 5.6404 23.87L5.6404 11.91C5.6404 11.88 5.6204 11.85 5.6204 11.82C5.6204 11.81 5.6204 11.8 5.6204 11.79C5.6204 11.37 5.2804 11.02 4.8604 11.02L2.1604 11.02L12.7904 3.65998C12.8104 3.64998 12.8404 3.61998 12.8604 3.60998C12.9904 3.48998 14.1904 2.50998 15.4804 3.55998C15.5004 3.57998 15.5104 3.58998 15.5304 3.59998L25.6904 10.72C25.8604 10.84 26.0404 11.01 26.1904 11.16C26.0904 11.16 25.9804 11.17 25.8304 11.16L23.4204 11.17C23.4104 11.17 23.4104 11.18 23.4004 11.18C23.3904 11.18 23.3904 11.17 23.3804 11.17C22.9604 11.17 22.6204 11.52 22.6204 11.94L22.6204 23.87C22.6204 24.62 22.0804 25.23 21.4104 25.23L17.5504 25.23C17.1304 25.23 16.7904 25.58 16.7904 26C16.7904 26.43 17.1304 26.77 17.5504 26.77L21.4104 26.77C22.9204 26.77 24.1404 25.47 24.1404 23.87L24.1404 12.71L25.8204 12.7C26.3004 12.71 27.5704 12.74 27.8904 11.79C28.2104 10.85 27.2104 9.92998 26.5704 9.45998L16.4104 2.33998C14.5804 0.879978 12.6904 1.72998 11.9004 2.40998L1.0904 9.88998C0.620395 10.21 -0.139604 10.86 0.0603955 11.65C0.200396 12.19 0.700396 12.5 1.5504 12.56C1.5604 12.56 1.5804 12.56 1.6004 12.56L4.1204 12.56L4.1204 23.87C4.1204 25.47 5.3404 26.77 6.8504 26.77L14.3104 26.77C14.5304 26.77 14.7204 26.68 14.8604 26.53C15.0104 26.38 15.1104 26.19 15.1104 25.96L15.1104 19.24L18.7804 19.24C19.2004 19.24 19.5404 18.89 19.5404 18.47C19.5404 18.04 19.2004 17.7 18.7804 17.7L15.1104 17.7L15.1104 16L18.7804 16C19.2004 16 19.5404 15.65 19.5404 15.23C19.5404 14.8 19.2004 14.45 18.7804 14.45L16.1604 14.45L18.8804 11.52C19.1604 11.21 19.1504 10.72 18.8404 10.43C18.5404 10.14 18.0604 10.15 17.7704 10.46L14.3404 14.18L11.0204 10.44C10.7404 10.12 10.2604 10.1 9.9504 10.38C9.6404 10.67 9.6104 11.16 9.8904 11.47Z"></path></g></g></g><defs><rect id="path_0" x="0" y="0" width="28" height="27.99999999999999" /></defs></svg>