<svg xmlns="http://www.w3.org/2000/svg" xmlns:xlink="http://www.w3.org/1999/xlink" width="48" height="48" viewBox="0 0 48 48" fill="none"><defs><rect id="path_0" x="0" y="0" width="28" height="28" /></defs><g opacity="1" transform="translate(0 0)  rotate(0 23.925 24)"><path id="矩形 2" fill-rule="evenodd" style="fill:#FFF7E8" transform="translate(0 0)  rotate(0 23.925 24)" opacity="1" d="M9.6,48L38.25,48C43.55,48 47.85,43.7 47.85,38.4L47.85,9.6C47.85,4.3 43.55,0 38.25,0L9.6,0C4.3,0 0,4.3 0,9.6L0,38.4C0,43.7 4.3,48 9.6,48Z " /><g opacity="1" transform="translate(10 11)  rotate(0 14 14)"><mask id="bg-mask-0" fill="white"><use xlink:href="#path_0"></use></mask><g mask="url(#bg-mask-0)" ><path id="路径 1" fill-rule="evenodd" style="fill:#FAB124" transform="translate(10.139334999157118 12.511568317846955)  rotate(0 3.8590239253657286 5.037794742431789)" opacity="1" d="M6.28,2.38L6.94,1.71C7.13,1.52 7.24,1.27 7.24,1C7.24,0.74 7.13,0.48 6.94,0.29C6.76,0.11 6.5,0 6.24,0C5.97,0 5.71,0.11 5.53,0.29L3.86,1.96L2.19,0.29C1.8,-0.1 1.17,-0.1 0.77,0.29C0.38,0.68 0.38,1.32 0.77,1.71L1.44,2.38L1,2.38C0.45,2.38 0,2.82 0,3.38C0,3.64 0.11,3.9 0.29,4.09C0.48,4.27 0.74,4.38 1,4.38L2.86,4.38L2.86,5.66L1,5.66C0.74,5.66 0.48,5.77 0.29,5.96C0.11,6.14 0,6.4 0,6.66C0,6.93 0.11,7.19 0.29,7.38C0.48,7.56 0.74,7.67 1,7.67L2.86,7.67L2.86,9.09C2.87,9.64 3.31,10.08 3.86,10.08C4.41,10.08 4.85,9.64 4.86,9.09L4.86,7.67L6.72,7.67C6.98,7.67 7.24,7.56 7.42,7.37C7.61,7.19 7.72,6.93 7.72,6.67C7.72,6.4 7.61,6.15 7.42,5.96C7.24,5.77 6.98,5.66 6.72,5.66L4.86,5.66L4.86,4.38L6.72,4.38C6.98,4.38 7.24,4.27 7.42,4.09C7.61,3.9 7.72,3.64 7.72,3.38C7.72,2.82 7.27,2.38 6.72,2.38L6.28,2.38Z " /><path id="分组 1" fill-rule="evenodd" style="fill:#FAB124" transform="translate(2.777031249999972 1.7516299070940065)  rotate(0 11.222968750000001 12.249185046452936)" opacity="1" d="M11.22 0C9.28 0 7.52 1.17 6.78 2.97C2.79 4.69 0 8.66 0 13.28C0 19.47 5.02 24.5 11.22 24.5C17.42 24.5 22.45 19.47 22.45 13.28C22.45 8.66 19.65 4.69 15.67 2.97C14.92 1.17 13.17 0 11.22 0Z M13.1373 6.86348C13.8573 6.18348 14.1773 5.17348 13.9673 4.21348C13.8673 3.78348 13.6773 3.38348 13.4073 3.04348C13.3673 2.99348 13.3173 2.94348 13.2773 2.90348C13.0273 2.63348 12.7273 2.41348 12.3973 2.26348C12.3373 2.23348 12.2773 2.21348 12.2173 2.18348C12.1573 2.16348 12.0873 2.14348 12.0273 2.12348C11.9673 2.10348 11.8973 2.08348 11.8273 2.07348C11.4273 1.98348 11.0173 1.98348 10.6073 2.07348C10.5473 2.08348 10.4773 2.10348 10.4173 2.12348C10.3473 2.14348 10.2873 2.16348 10.2273 2.18348C10.1673 2.21348 10.0973 2.23348 10.0373 2.26348C9.70732 2.41348 9.41732 2.63348 9.16732 2.90348C9.12732 2.94348 9.07732 2.99348 9.03732 3.04348C8.76732 3.38348 8.57732 3.78348 8.47732 4.21348C8.26732 5.17348 8.58732 6.18348 9.30732 6.86348L13.1373 6.86348Z M16.0236 5.11138C15.9836 5.72138 15.8336 6.31138 15.5736 6.86138L16.5436 6.86138C16.8136 6.86138 17.0636 6.97138 17.2536 7.15138C17.4436 7.34138 17.5436 7.60138 17.5436 7.86138C17.5436 8.13138 17.4436 8.38138 17.2536 8.57138C17.0636 8.76138 16.8136 8.86138 16.5436 8.86138L5.90355 8.86138C5.63355 8.86138 5.38355 8.76138 5.19355 8.57138C5.00355 8.38138 4.90355 8.13138 4.90355 7.86138C4.90355 7.60138 5.00355 7.34138 5.19355 7.15138C5.38355 6.97138 5.63355 6.86138 5.90355 6.86138L6.87355 6.86138C6.61355 6.31138 6.46355 5.72138 6.42355 5.11138C3.63355 6.76138 1.75355 9.80138 1.75355 13.2714C1.75355 18.5114 5.99355 22.7414 11.2236 22.7414C16.4536 22.7414 20.6936 18.5014 20.6936 13.2714C20.6936 9.80138 18.8136 6.76138 16.0236 5.11138Z " /></g></g></g></svg>