<svg xmlns="http://www.w3.org/2000/svg" xmlns:xlink="http://www.w3.org/1999/xlink" width="47.850006103515625" height="48" viewBox="0 0 47.850006103515625 48" fill="none"><g opacity="1"  transform="translate(0 0)  rotate(0)"><path id="矩形 2" fill-rule="evenodd" style="fill:#CCFFE1" opacity="1" d="M9.6 48L38.25 48C43.55 48 47.85 43.7 47.85 38.4L47.85 9.6C47.85 4.3 43.55 0 38.25 0L9.6 0C4.3 0 0 4.3 0 9.6L0 38.4C0 43.7 4.3 48 9.6 48Z"></path><g opacity="1"  transform="translate(10 10)  rotate(0)"><mask id="bg-mask-0" fill="white"><use transform="translate(0 0)  rotate(0)" xlink:href="#path_0"></use></mask><g mask="url(#bg-mask-0)" ><path id="路径 1" fill-rule="evenodd" style="fill:#3EAD1C" opacity="1" d="M13.9891 26.25C12.3348 26.25 10.7297 25.9273 9.22032 25.2875C7.76017 24.6695 6.4504 23.7863 5.32657 22.6625C4.20275 21.5387 3.31954 20.2289 2.70157 18.7687C2.06173 17.2594 1.73907 15.6543 1.73907 14C1.73907 12.3457 2.06173 10.7406 2.70157 9.23125C3.31954 7.77109 4.20275 6.46133 5.32657 5.3375C6.4504 4.21367 7.76017 3.33047 9.22032 2.7125C10.7297 2.07266 12.3348 1.75 13.9891 1.75C15.6434 1.75 17.2484 2.07266 18.7578 2.7125C20.218 3.33047 21.5277 4.21367 22.6516 5.3375C23.7754 6.46133 24.6586 7.77109 25.2766 9.23125C25.9164 10.7434 26.2391 12.3457 26.2391 14C26.2391 15.6297 25.9246 17.2129 25.3012 18.7059C25.1617 19.0422 24.8363 19.2445 24.4918 19.2445C24.3797 19.2445 24.2649 19.2227 24.1555 19.1762C23.7098 18.9902 23.4992 18.4789 23.6852 18.0332C24.2184 16.7562 24.4863 15.4 24.4863 14C24.4863 8.21133 19.775 3.5 13.9863 3.5C8.19767 3.5 3.48634 8.21133 3.48634 14C3.48634 19.7887 8.19767 24.5 13.9863 24.5C15.3645 24.5 16.7043 24.2375 17.9676 23.7207C18.416 23.5375 18.9246 23.7508 19.1078 24.1992C19.291 24.6477 19.0777 25.1562 18.6293 25.3395C17.1582 25.9437 15.5942 26.25 13.9891 26.25ZM25.9984 24.7625L23.1082 21.8695L24.5055 21.8695C24.9895 21.8695 25.3805 21.4785 25.3805 20.9945C25.3805 20.5105 24.9895 20.1195 24.5055 20.1195L21.0027 20.1195C20.5188 20.1195 20.1277 20.5105 20.1277 20.9945L20.1277 24.4891C20.1277 24.973 20.5188 25.3641 21.0027 25.3641C21.4867 25.3641 21.8777 24.973 21.8777 24.4891L21.8777 23.1164L24.7625 26.0012C24.932 26.1707 25.1563 26.2582 25.3805 26.2582C25.6047 26.2582 25.8289 26.1734 25.9984 26.0012C26.3402 25.6566 26.3402 25.1043 25.9984 24.7625ZM16.6113 14.9023L14.8422 14.8969L14.8422 14.0465L16.6086 14.0465C17.0926 14.0465 17.4836 13.6555 17.4836 13.1715C17.4836 12.6875 17.0926 12.2965 16.6086 12.2965L14.8422 12.2965L14.8422 12.2035L16.6113 10.9047C17.0024 10.6176 17.0844 10.0707 16.8 9.68242C16.5129 9.29141 15.966 9.20937 15.5777 9.49375L13.9809 10.6641L12.3266 9.55117C11.9246 9.28047 11.3832 9.38711 11.1125 9.78906C10.8418 10.191 10.9484 10.7324 11.3504 11.0031L13.0949 12.1762L13.0949 12.2965L11.375 12.2965C10.891 12.2965 10.5 12.6875 10.5 13.1715C10.5 13.6555 10.891 14.0465 11.375 14.0465L13.0949 14.0465L13.0949 14.8914L11.3777 14.8859L11.375 14.8859C10.8938 14.8859 10.5027 15.277 10.5 15.7582C10.4973 16.2422 10.8883 16.6332 11.3723 16.6359L13.0977 16.6414L13.0977 18.3832C13.0977 18.8672 13.4887 19.2582 13.9727 19.2582C14.4567 19.2582 14.8477 18.8672 14.8477 18.3832L14.8477 16.6469L16.6086 16.6523L16.6113 16.6523C17.0926 16.6523 17.4836 16.2613 17.4863 15.7801C17.4863 15.2961 17.0953 14.9051 16.6113 14.9023Z"></path></g></g></g><defs><rect id="path_0" x="0" y="0" width="28" height="28" rx="0" ry="0"/></defs></svg>