<svg xmlns="http://www.w3.org/2000/svg" xmlns:xlink="http://www.w3.org/1999/xlink" width="16" height="16" viewBox="0 0 16 16" fill="none">
<path d="M8 12.6667C4.02667 12.6667 0.926667 8.57331 0.8 8.39998L0.5 7.99998L0.8 7.59998C0.926667 7.42666 4.02667 3.33331 8 3.33331C11.9733 3.33331 15.0733 7.42666 15.2 7.59998L15.5 7.99998L15.2 8.39998C15.0733 8.57331 11.9733 12.6667 8 12.6667ZM2.19333 7.99998C3.02667 8.95998 5.35333 11.3333 8 11.3333C10.6533 11.3333 12.9733 8.96666 13.8067 7.99998C12.9733 7.03998 10.6467 4.66666 8 4.66666C5.34667 4.66666 3.02667 7.03331 2.19333 7.99998ZM8 10.7C6.16 10.7 4.66667 9.20666 4.66667 7.36666C4.66667 5.52666 6.16 4.03331 8 4.03331C9.84 4.03331 11.3333 5.52666 11.3333 7.36666C11.3333 9.20666 9.84 10.7 8 10.7ZM8 5.36666C6.9 5.36666 6 6.26666 6 7.36666C6 8.46666 6.9 9.36666 8 9.36666C9.1 9.36666 10 8.46666 10 7.36666C10 6.26666 9.1 5.36666 8 5.36666Z"   fill="#C4C4C4" >
</path>
</svg>
