<svg xmlns="http://www.w3.org/2000/svg" xmlns:xlink="http://www.w3.org/1999/xlink" width="16" height="16" viewBox="0 0 16 16" fill="none">
<path d="M7.33333 10.6467C6.77 10.6087 6.21999 10.5133 5.69331 10.3667L4.60267 12.7053C4.59805 12.7152 4.59317 12.7249 4.5881 12.7345C4.583 12.7441 4.57767 12.7535 4.57209 12.7629C4.56655 12.7722 4.56075 12.7814 4.55475 12.7904C4.54872 12.7995 4.54249 12.8084 4.53605 12.8171C4.5296 12.8259 4.52292 12.8345 4.51606 12.8429C4.50919 12.8513 4.50211 12.8595 4.49483 12.8676C4.48755 12.8757 4.48006 12.8836 4.47239 12.8912C4.46472 12.8989 4.45686 12.9064 4.44884 12.9138C4.4408 12.9211 4.43258 12.9282 4.42419 12.9351C4.4158 12.942 4.40725 12.9487 4.39853 12.9552C4.38981 12.9617 4.38094 12.9679 4.37192 12.974C4.36289 12.98 4.35372 12.9859 4.34441 12.9914C4.3351 12.9971 4.32564 13.0024 4.31608 13.0075C4.30649 13.0127 4.2968 13.0176 4.28699 13.0222C4.27716 13.0269 4.26724 13.0313 4.2572 13.0354C4.24716 13.0396 4.23702 13.0435 4.2268 13.0472C4.21656 13.0509 4.20625 13.0543 4.19586 13.0574C4.18545 13.0606 4.17499 13.0635 4.16445 13.0661C4.15391 13.0688 4.14331 13.0712 4.13264 13.0733C4.122 13.0754 4.11128 13.0773 4.10055 13.0789C4.0898 13.0805 4.07902 13.0818 4.06819 13.0829C4.05739 13.0839 4.04655 13.0847 4.0357 13.0852C4.02485 13.0858 4.01399 13.086 4.00313 13.086C3.99225 13.086 3.98139 13.0858 3.97055 13.0852C3.95969 13.0847 3.94886 13.0839 3.93805 13.0828C3.92724 13.0817 3.91645 13.0804 3.90572 13.0788C3.89497 13.0772 3.88427 13.0753 3.87361 13.0732C3.86295 13.0711 3.85235 13.0687 3.84181 13.066C3.83128 13.0634 3.82081 13.0605 3.81042 13.0573C3.80002 13.0541 3.7897 13.0507 3.77949 13.047C3.76927 13.0434 3.75914 13.0394 3.74911 13.0352C3.73908 13.0311 3.72914 13.0267 3.71933 13.022C3.7095 13.0174 3.6998 13.0126 3.6902 13.0075C3.68061 13.0025 3.67114 12.9972 3.66181 12.9917C3.65247 12.9862 3.64328 12.9804 3.63424 12.9745C3.62517 12.9685 3.61627 12.9623 3.60752 12.9559C3.59877 12.9495 3.59017 12.9429 3.58174 12.9361C3.5733 12.9293 3.56505 12.9223 3.55695 12.915C3.54886 12.9078 3.54095 12.9004 3.53324 12.8928C3.52552 12.8852 3.51797 12.8774 3.51063 12.8694C3.50328 12.8614 3.49613 12.8533 3.48919 12.845C3.48224 12.8366 3.4755 12.8281 3.46897 12.8195C3.46242 12.8109 3.4561 12.8021 3.45 12.7931C3.44389 12.7841 3.43802 12.775 3.43236 12.7658C3.42669 12.7565 3.42125 12.7471 3.41606 12.7376C3.41085 12.7281 3.40588 12.7185 3.40116 12.7087C3.39642 12.699 3.39194 12.6891 3.38769 12.6791C3.38344 12.6692 3.37942 12.6591 3.37567 12.6489C3.37191 12.6387 3.36839 12.6285 3.36514 12.6181C3.36188 12.6078 3.35888 12.5974 3.35613 12.5869C3.35338 12.5764 3.35088 12.5659 3.34864 12.5553C3.34639 12.5446 3.34442 12.534 3.3427 12.5233C3.34099 12.5126 3.33953 12.5018 3.33835 12.4911C3.33716 12.4803 3.33622 12.4695 3.33556 12.4586C3.33489 12.4478 3.33449 12.437 3.33436 12.4261C3.33422 12.4153 3.33435 12.4045 3.33474 12.3936C3.33513 12.3828 3.33578 12.372 3.3367 12.3612C3.33761 12.3504 3.3388 12.3396 3.34025 12.3289C3.34169 12.3181 3.34341 12.3074 3.34538 12.2967C3.34735 12.2861 3.34956 12.2755 3.35205 12.2649C3.35453 12.2544 3.35728 12.2439 3.36028 12.2335C3.36328 12.223 3.36653 12.2127 3.37003 12.2024C3.37353 12.1922 3.37728 12.182 3.38128 12.1719C3.38527 12.1619 3.3895 12.1519 3.394 12.142L4.44067 9.89732C4.38525 9.87127 4.33019 9.84451 4.27549 9.81701C4.22077 9.78951 4.16642 9.7613 4.11245 9.7324C4.05845 9.70349 4.00486 9.6739 3.95166 9.64359C3.89844 9.6133 3.84564 9.58232 3.79325 9.55063C3.74085 9.51896 3.68886 9.4866 3.63731 9.45357C3.58575 9.42054 3.53463 9.38685 3.48394 9.35249C3.43325 9.31815 3.38303 9.28313 3.33325 9.24746C3.28347 9.2118 3.23417 9.17549 3.18536 9.13854C3.13653 9.1016 3.08819 9.06402 3.04035 9.0258C2.9925 8.9876 2.94516 8.94877 2.89831 8.90934C2.85147 8.8699 2.80516 8.82985 2.75936 8.78921C2.71356 8.74857 2.6683 8.70734 2.62358 8.66551C2.57886 8.6237 2.53469 8.58129 2.49106 8.53831C2.44744 8.49534 2.40439 8.45181 2.3619 8.40771C2.31941 8.36362 2.2775 8.31899 2.23618 8.2738C2.19486 8.22862 2.15413 8.18291 2.11399 8.13666C2.0546 8.06804 1.99677 7.9981 1.94052 7.92687C1.88426 7.85565 1.82963 7.7832 1.77662 7.70952C1.72361 7.63585 1.67228 7.56102 1.62263 7.48504C1.57298 7.40907 1.52505 7.33201 1.47885 7.25388C1.43265 7.17576 1.38822 7.09665 1.34557 7.01652C1.30292 6.93641 1.26209 6.85538 1.22307 6.77343C1.18405 6.69149 1.14688 6.6087 1.11158 6.52509C1.07627 6.44147 1.04285 6.35711 1.01133 6.272C1.00758 6.26175 1.00408 6.25141 1.00083 6.241C0.997582 6.23058 0.994594 6.22009 0.991864 6.20953C0.989133 6.19896 0.986663 6.18834 0.984453 6.17765C0.982244 6.16698 0.980298 6.15625 0.978616 6.14546C0.976933 6.13468 0.975516 6.12387 0.974364 6.11301C0.973213 6.10217 0.972329 6.0913 0.971711 6.0804C0.971093 6.06951 0.970743 6.0586 0.970661 6.0477C0.970579 6.03678 0.970764 6.02588 0.971217 6.01498C0.97167 6.00407 0.972391 5.99319 0.973378 5.98232C0.974366 5.97146 0.975619 5.96063 0.977138 5.94982C0.978657 5.93902 0.980441 5.92826 0.982489 5.91754C0.984536 5.90682 0.986845 5.89616 0.989417 5.88556C0.991988 5.87495 0.994818 5.86442 0.997906 5.85395C1.00099 5.84349 1.00434 5.83311 1.00794 5.82281C1.01153 5.81251 1.01538 5.8023 1.01948 5.7922C1.02358 5.78208 1.02793 5.77208 1.03252 5.76218C1.03711 5.75228 1.04194 5.7425 1.04701 5.73284C1.05208 5.72317 1.05738 5.71364 1.06292 5.70425C1.06846 5.69484 1.07422 5.68558 1.08022 5.67646C1.08621 5.66735 1.09242 5.65839 1.09886 5.64957C1.10529 5.64076 1.11194 5.63211 1.11879 5.62362C1.12565 5.61514 1.13271 5.60683 1.13998 5.59868C1.14725 5.59055 1.15471 5.5826 1.16236 5.57482C1.17002 5.56704 1.17786 5.55946 1.18589 5.55207C1.19392 5.54469 1.20212 5.5375 1.21051 5.53051C1.21889 5.52353 1.22744 5.51676 1.23615 5.51018C1.24487 5.50362 1.25373 5.49728 1.26276 5.49115C1.27179 5.48502 1.28096 5.47911 1.29027 5.47343C1.29959 5.46776 1.30904 5.46231 1.31862 5.45709C1.32821 5.45187 1.33791 5.44689 1.34774 5.44215C1.35757 5.43741 1.36751 5.43292 1.37755 5.42867C1.3876 5.42442 1.39775 5.42042 1.40799 5.41667C1.41824 5.41291 1.42857 5.40941 1.43899 5.40617C1.4494 5.40292 1.45989 5.39993 1.47046 5.3972C1.48102 5.39447 1.49165 5.392 1.50233 5.38979C1.51301 5.38758 1.52375 5.38564 1.53453 5.38395C1.54531 5.38226 1.55612 5.38084 1.56698 5.3797C1.57782 5.37854 1.58869 5.37766 1.59959 5.37704C1.61048 5.37643 1.62138 5.37608 1.63229 5.376C1.64321 5.37591 1.65411 5.3761 1.66501 5.37656C1.67592 5.37701 1.6868 5.37772 1.69767 5.37871C1.70853 5.3797 1.71936 5.38095 1.73017 5.38246C1.74097 5.38399 1.75173 5.38577 1.76245 5.38782C1.77317 5.38987 1.78383 5.39217 1.79443 5.39475C1.80504 5.39732 1.81557 5.40015 1.82604 5.40325C1.8365 5.40633 1.84688 5.40967 1.85718 5.41328C1.86748 5.41687 1.87769 5.42071 1.88781 5.42481C1.89791 5.42891 1.90791 5.43326 1.91781 5.43786C1.92771 5.44244 1.93749 5.44727 1.94715 5.45234C1.95682 5.45741 1.96635 5.46272 1.97574 5.46826C1.98515 5.47379 1.99441 5.47956 2.00352 5.48556C2.01264 5.49155 2.0216 5.49776 2.03042 5.50418C2.03923 5.51062 2.04788 5.51727 2.05637 5.52412C2.06485 5.53099 2.07316 5.53805 2.08131 5.54531C2.08944 5.55258 2.0974 5.56004 2.10517 5.5677C2.11295 5.57535 2.12053 5.5832 2.12792 5.59123C2.1353 5.59925 2.14249 5.60745 2.14948 5.61584C2.15646 5.62423 2.16323 5.63277 2.16981 5.64148C2.17637 5.6502 2.18271 5.65907 2.18884 5.66809C2.19497 5.67712 2.20088 5.68629 2.20656 5.6956C2.21223 5.70493 2.21768 5.71438 2.2229 5.72395C2.22812 5.73354 2.2331 5.74325 2.23784 5.75307C2.24258 5.7629 2.24707 5.77283 2.25132 5.78289C2.25557 5.79294 2.25957 5.80308 2.26332 5.81332C2.28802 5.87974 2.31419 5.94557 2.34184 6.01082C2.36948 6.07606 2.39858 6.14065 2.42912 6.20459C2.45966 6.26853 2.49162 6.33175 2.52499 6.39426C2.55838 6.45676 2.59313 6.51848 2.62928 6.57943C2.66542 6.64038 2.70291 6.70049 2.74175 6.75976C2.7806 6.81902 2.82074 6.87739 2.8622 6.93485C2.90364 6.99232 2.94636 7.04884 2.99036 7.10438C3.03435 7.15995 3.07956 7.21448 3.126 7.26799C4.22867 8.55332 5.98467 9.33332 7.902 9.33332C9.82 9.33332 11.576 8.55266 12.6787 7.26799C12.7251 7.21448 12.7703 7.15995 12.8143 7.10438C12.8583 7.04884 12.901 6.99232 12.9425 6.93485C12.9839 6.87739 13.0241 6.81902 13.0629 6.75976C13.1018 6.70049 13.1392 6.64038 13.1754 6.57943C13.2115 6.51848 13.2463 6.45676 13.2797 6.39426C13.313 6.33175 13.345 6.26853 13.3755 6.20459C13.4061 6.14065 13.4352 6.07606 13.4628 6.01082C13.4905 5.94557 13.5166 5.87974 13.5413 5.81332C13.5451 5.80308 13.5491 5.79294 13.5533 5.78289C13.5576 5.77285 13.5621 5.76291 13.5668 5.75307C13.5716 5.74325 13.5765 5.73355 13.5818 5.72396C13.587 5.71438 13.5924 5.70493 13.5981 5.6956C13.6038 5.68629 13.6097 5.67712 13.6158 5.66809C13.6219 5.65907 13.6283 5.6502 13.6349 5.64148C13.6414 5.63277 13.6482 5.62423 13.6552 5.61584C13.6622 5.60745 13.6694 5.59925 13.6768 5.59123C13.6841 5.5832 13.6917 5.57535 13.6995 5.5677C13.7073 5.56004 13.7152 5.55258 13.7234 5.54531C13.7315 5.53805 13.7398 5.53099 13.7483 5.52412C13.7568 5.51727 13.7654 5.51062 13.7743 5.50418C13.7831 5.49776 13.792 5.49155 13.8011 5.48556C13.8103 5.47956 13.8195 5.47379 13.8289 5.46826C13.8383 5.46272 13.8478 5.45741 13.8575 5.45234C13.8672 5.44727 13.8769 5.44244 13.8868 5.43786C13.8967 5.43326 13.9067 5.42892 13.9169 5.42482C13.927 5.42072 13.9372 5.41687 13.9475 5.41328C13.9578 5.40967 13.9682 5.40633 13.9786 5.40325C13.9891 5.40015 13.9996 5.39732 14.0102 5.39475C14.0208 5.39218 14.0315 5.38988 14.0422 5.38782C14.0529 5.38577 14.0637 5.38399 14.0745 5.38248C14.0853 5.38096 14.0961 5.3797 14.107 5.37871C14.1179 5.37772 14.1288 5.37701 14.1397 5.37656C14.1505 5.3761 14.1615 5.37591 14.1724 5.376C14.1833 5.37608 14.1942 5.37643 14.2051 5.37704C14.216 5.37766 14.2268 5.37854 14.2377 5.3797C14.2485 5.38086 14.2593 5.38227 14.2701 5.38395C14.2809 5.38564 14.2916 5.38758 14.3023 5.38979C14.313 5.392 14.3236 5.39447 14.3342 5.3972C14.3448 5.39993 14.3553 5.40292 14.3657 5.40617C14.3761 5.40941 14.3864 5.41291 14.3967 5.41667C14.4069 5.42042 14.417 5.42442 14.4271 5.42867C14.4371 5.43292 14.4471 5.43741 14.4569 5.44215C14.4667 5.44689 14.4764 5.45187 14.486 5.45709C14.4956 5.46231 14.5051 5.46776 14.5144 5.47343C14.5237 5.47911 14.5329 5.48502 14.5419 5.49115C14.5509 5.49728 14.5598 5.50362 14.5685 5.51018C14.5772 5.51676 14.5858 5.52353 14.5942 5.53051C14.6025 5.5375 14.6107 5.54469 14.6188 5.55207C14.6268 5.55946 14.6346 5.56704 14.6423 5.57482C14.65 5.5826 14.6574 5.59055 14.6647 5.59868C14.6719 5.60683 14.679 5.61514 14.6859 5.62362C14.6927 5.63211 14.6994 5.64076 14.7058 5.64957C14.7122 5.65839 14.7184 5.66735 14.7244 5.67646C14.7304 5.68558 14.7362 5.69484 14.7417 5.70425C14.7473 5.71364 14.7526 5.72317 14.7577 5.73284C14.7627 5.7425 14.7675 5.75228 14.7721 5.76218C14.7767 5.77208 14.7811 5.78208 14.7852 5.7922C14.7893 5.8023 14.7931 5.81251 14.7967 5.82281C14.8003 5.83311 14.8037 5.8435 14.8068 5.85396C14.8098 5.86442 14.8127 5.87495 14.8153 5.88556C14.8178 5.89616 14.8201 5.90682 14.8222 5.91754C14.8242 5.92826 14.826 5.93902 14.8275 5.94982C14.829 5.96063 14.8303 5.97146 14.8313 5.98232C14.8323 5.99319 14.833 6.00407 14.8334 6.01498C14.8339 6.02588 14.8341 6.03678 14.834 6.0477C14.8339 6.0586 14.8336 6.06951 14.833 6.0804C14.8323 6.0913 14.8315 6.10217 14.8303 6.11301C14.8291 6.12387 14.8277 6.13468 14.826 6.14546C14.8244 6.15625 14.8224 6.16698 14.8202 6.17765C14.818 6.18834 14.8155 6.19896 14.8128 6.20953C14.8101 6.22009 14.8071 6.23058 14.8038 6.241C14.8006 6.25141 14.7971 6.26175 14.7933 6.272C14.7618 6.35711 14.7284 6.44147 14.6931 6.52509C14.6578 6.6087 14.6206 6.69149 14.5816 6.77343C14.5426 6.85538 14.5017 6.93641 14.4591 7.01652C14.4164 7.09665 14.372 7.17576 14.3258 7.25388C14.2796 7.33201 14.2317 7.40907 14.182 7.48504C14.1324 7.56102 14.081 7.63585 14.028 7.70952C13.975 7.7832 13.9204 7.85565 13.8641 7.92687C13.8079 7.9981 13.75 8.06804 13.6907 8.13666C13.5964 8.24654 13.4986 8.35321 13.3973 8.45666L15.028 10.0873C15.0356 10.0951 15.043 10.103 15.0502 10.1111C15.0574 10.1192 15.0644 10.1275 15.0712 10.1359C15.078 10.1444 15.0846 10.153 15.0909 10.1617C15.0973 10.1705 15.1035 10.1794 15.1094 10.1885C15.1154 10.1975 15.1211 10.2067 15.1266 10.2161C15.1321 10.2254 15.1373 10.2349 15.1424 10.2445C15.1474 10.2541 15.1522 10.2638 15.1568 10.2737C15.1613 10.2835 15.1656 10.2934 15.1697 10.3035C15.1738 10.3135 15.1776 10.3237 15.1812 10.3339C15.1848 10.3441 15.1881 10.3544 15.1912 10.3648C15.1942 10.3752 15.197 10.3857 15.1996 10.3962C15.2022 10.4068 15.2045 10.4174 15.2065 10.428C15.2086 10.4386 15.2104 10.4493 15.2119 10.4601C15.2134 10.4708 15.2147 10.4816 15.2157 10.4924C15.2167 10.5031 15.2174 10.514 15.2179 10.5248C15.2184 10.5356 15.2186 10.5464 15.2185 10.5573C15.2185 10.5681 15.2182 10.579 15.2176 10.5898C15.217 10.6006 15.2162 10.6114 15.215 10.6222C15.2139 10.633 15.2126 10.6437 15.2109 10.6544C15.2093 10.6652 15.2074 10.6758 15.2053 10.6864C15.2031 10.6971 15.2007 10.7076 15.198 10.7181C15.1953 10.7286 15.1924 10.7391 15.1893 10.7494C15.1861 10.7598 15.1826 10.7701 15.179 10.7803C15.1753 10.7905 15.1713 10.8006 15.1672 10.8106C15.163 10.8206 15.1586 10.8305 15.1539 10.8403C15.1493 10.8501 15.1444 10.8597 15.1393 10.8693C15.1341 10.8789 15.1288 10.8883 15.1232 10.8976C15.1176 10.9069 15.1118 10.916 15.1058 10.925C15.0997 10.934 15.0935 10.9429 15.087 10.9516C15.0805 10.9603 15.0739 10.9688 15.067 10.9772C15.0601 10.9856 15.053 10.9938 15.0458 11.0018C15.0385 11.0098 15.031 11.0177 15.0233 11.0253C15.0157 11.0331 15.0079 11.0406 14.9999 11.0479C14.9919 11.0553 14.9837 11.0624 14.9754 11.0694C14.967 11.0763 14.9585 11.0831 14.9498 11.0896C14.9411 11.0961 14.9323 11.1024 14.9233 11.1085C14.9143 11.1146 14.9052 11.1205 14.8959 11.1261C14.8866 11.1318 14.8772 11.1372 14.8677 11.1424C14.8581 11.1475 14.8485 11.1525 14.8387 11.1572C14.8289 11.1619 14.819 11.1663 14.809 11.1706C14.799 11.1748 14.7888 11.1787 14.7787 11.1825C14.7684 11.1862 14.7582 11.1896 14.7478 11.1929C14.7374 11.1961 14.727 11.199 14.7164 11.2017C14.7059 11.2044 14.6953 11.2069 14.6847 11.209C14.674 11.2112 14.6634 11.2131 14.6526 11.2148C14.6419 11.2164 14.6311 11.2178 14.6203 11.2189C14.6095 11.2201 14.5987 11.2209 14.5879 11.2215C14.577 11.2221 14.5662 11.2224 14.5553 11.2225C14.5444 11.2225 14.5336 11.2223 14.5227 11.2218C14.5119 11.2214 14.5011 11.2206 14.4903 11.2196C14.4794 11.2186 14.4686 11.2173 14.4579 11.2157C14.4471 11.2142 14.4364 11.2124 14.4258 11.2103C14.4151 11.2083 14.4045 11.2059 14.394 11.2033C14.3834 11.2007 14.3729 11.1979 14.3625 11.1948C14.3521 11.1917 14.3418 11.1883 14.3316 11.1847C14.3213 11.1811 14.3112 11.1772 14.3011 11.1731C14.2911 11.169 14.2811 11.1646 14.2713 11.16C14.2615 11.1554 14.2518 11.1506 14.2422 11.1455C14.2325 11.1404 14.2231 11.1351 14.2138 11.1295C14.2044 11.124 14.1952 11.1182 14.1862 11.1122C14.1771 11.1062 14.1682 11.1 14.1595 11.0935C14.1507 11.0871 14.1421 11.0804 14.1337 11.0736C14.1253 11.0667 14.1171 11.0596 14.109 11.0524C14.1009 11.0451 14.093 11.0376 14.0853 11.03L12.372 9.31666C12.052 9.53666 11.712 9.73199 11.356 9.90132L12.4013 12.1413C12.4058 12.1512 12.4101 12.1612 12.4141 12.1713C12.4181 12.1814 12.4219 12.1915 12.4254 12.2018C12.4289 12.2121 12.4322 12.2224 12.4352 12.2328C12.4382 12.2433 12.4409 12.2538 12.4434 12.2643C12.4459 12.2749 12.4481 12.2855 12.4501 12.2962C12.4521 12.3068 12.4538 12.3176 12.4553 12.3283C12.4567 12.3391 12.4579 12.3498 12.4588 12.3606C12.4598 12.3715 12.4604 12.3823 12.4608 12.3931C12.4612 12.404 12.4614 12.4148 12.4612 12.4257C12.4611 12.4365 12.4607 12.4474 12.46 12.4582C12.4594 12.469 12.4585 12.4799 12.4573 12.4906C12.4561 12.5014 12.4546 12.5122 12.4529 12.5229C12.4512 12.5336 12.4492 12.5443 12.447 12.5549C12.4448 12.5655 12.4423 12.5761 12.4395 12.5866C12.4368 12.5971 12.4338 12.6075 12.4305 12.6178C12.4273 12.6282 12.4237 12.6385 12.42 12.6486C12.4162 12.6588 12.4122 12.6689 12.408 12.6789C12.4037 12.6889 12.3992 12.6987 12.3945 12.7085C12.3897 12.7183 12.3848 12.7279 12.3796 12.7374C12.3743 12.747 12.3689 12.7564 12.3633 12.7656C12.3576 12.7749 12.3517 12.784 12.3456 12.7929C12.3395 12.8019 12.3332 12.8107 12.3266 12.8194C12.3201 12.828 12.3133 12.8365 12.3064 12.8449C12.2994 12.8532 12.2923 12.8614 12.2849 12.8693C12.2776 12.8773 12.27 12.8851 12.2623 12.8927C12.2545 12.9004 12.2466 12.9078 12.2385 12.915C12.2305 12.9222 12.2222 12.9292 12.2137 12.9361C12.2053 12.9429 12.1967 12.9495 12.1879 12.9559C12.1792 12.9623 12.1703 12.9685 12.1612 12.9744C12.1521 12.9804 12.1429 12.9862 12.1336 12.9917C12.1242 12.9972 12.1148 13.0025 12.1052 13.0075C12.0956 13.0126 12.0858 13.0174 12.076 13.022C12.0662 13.0266 12.0563 13.0311 12.0462 13.0352C12.0362 13.0394 12.0261 13.0434 12.0158 13.047C12.0056 13.0507 11.9953 13.0541 11.9849 13.0573C11.9745 13.0605 11.964 13.0634 11.9535 13.066C11.943 13.0687 11.9324 13.0711 11.9217 13.0732C11.9111 13.0753 11.9004 13.0772 11.8896 13.0788C11.8789 13.0804 11.8681 13.0817 11.8573 13.0828C11.8465 13.0839 11.8356 13.0847 11.8248 13.0852C11.8139 13.0858 11.8031 13.086 11.7922 13.086C11.7813 13.086 11.7705 13.0858 11.7596 13.0852C11.7488 13.0847 11.7379 13.0839 11.7271 13.0829C11.7163 13.0818 11.7055 13.0805 11.6948 13.0789C11.684 13.0773 11.6733 13.0754 11.6627 13.0733C11.652 13.0712 11.6414 13.0688 11.6309 13.0661C11.6203 13.0635 11.6099 13.0606 11.5995 13.0574C11.5891 13.0543 11.5788 13.0509 11.5685 13.0472C11.5583 13.0435 11.5482 13.0396 11.5381 13.0355C11.5281 13.0313 11.5182 13.0269 11.5084 13.0222C11.4985 13.0176 11.4888 13.0127 11.4793 13.0075C11.4697 13.0024 11.4602 12.997 11.4509 12.9914C11.4416 12.9859 11.4324 12.98 11.4234 12.974C11.4144 12.9679 11.4055 12.9617 11.3968 12.9552C11.3881 12.9487 11.3795 12.942 11.3711 12.9351C11.3627 12.9282 11.3545 12.9211 11.3465 12.9138C11.3385 12.9064 11.3306 12.8989 11.3229 12.8912C11.3153 12.8836 11.3078 12.8757 11.3005 12.8676C11.2932 12.8595 11.2862 12.8513 11.2793 12.8429C11.2724 12.8345 11.2657 12.8259 11.2593 12.8171C11.2528 12.8084 11.2466 12.7995 11.2406 12.7904C11.2346 12.7814 11.2288 12.7722 11.2232 12.7629C11.2177 12.7535 11.2123 12.7441 11.2072 12.7345C11.2021 12.7249 11.1973 12.7152 11.1927 12.7053L10.1033 10.3687C9.98588 10.4013 9.86775 10.4312 9.74897 10.4585C9.63016 10.4858 9.51081 10.5104 9.39091 10.5323C9.271 10.5542 9.15066 10.5734 9.02991 10.59C8.90913 10.6065 8.78805 10.6203 8.66667 10.6313L8.66667 12.6727C8.66656 12.6835 8.6662 12.6944 8.66556 12.7052C8.66496 12.716 8.66406 12.7268 8.66291 12.7376C8.66174 12.7484 8.66033 12.7591 8.65866 12.7699C8.65697 12.7806 8.65503 12.7912 8.65283 12.8019C8.65064 12.8125 8.64819 12.8231 8.64547 12.8336C8.64274 12.8441 8.63977 12.8545 8.63655 12.8649C8.63333 12.8752 8.62984 12.8855 8.62613 12.8957C8.62239 12.9059 8.61841 12.9159 8.6142 12.9259C8.60999 12.9359 8.60552 12.9458 8.60083 12.9556C8.59613 12.9654 8.59119 12.975 8.58602 12.9846C8.58083 12.9941 8.57544 13.0035 8.56981 13.0128C8.56417 13.0221 8.55831 13.0312 8.55225 13.0402C8.54616 13.0491 8.53986 13.058 8.53336 13.0667C8.52684 13.0754 8.52013 13.0839 8.51322 13.0922C8.50628 13.1006 8.49916 13.1087 8.49185 13.1167C8.48452 13.1247 8.477 13.1326 8.46928 13.1402C8.46158 13.1478 8.45369 13.1553 8.44564 13.1625C8.43756 13.1698 8.42931 13.1768 8.42089 13.1837C8.4125 13.1905 8.40392 13.1972 8.39519 13.2036C8.38644 13.21 8.37755 13.2162 8.36852 13.2222C8.35949 13.2282 8.3503 13.234 8.34099 13.2395C8.33166 13.2451 8.3222 13.2504 8.31263 13.2555C8.30303 13.2606 8.29333 13.2654 8.28352 13.2701C8.2737 13.2747 8.26378 13.279 8.25374 13.2832C8.24372 13.2873 8.23358 13.2912 8.22334 13.2948C8.21314 13.2984 8.20283 13.3018 8.19246 13.305C8.18206 13.3081 8.17159 13.311 8.16108 13.3136C8.15055 13.3162 8.13997 13.3186 8.12931 13.3207C8.11867 13.3228 8.10799 13.3246 8.09725 13.3262C8.08653 13.3278 8.07577 13.3291 8.06497 13.3301C8.05417 13.3312 8.04336 13.332 8.03252 13.3325C8.02169 13.3331 8.01083 13.3333 8 13.3333C7.62933 13.3333 7.33333 13.0373 7.33333 12.6733L7.33333 10.6467Z"   fill="#3D3D3D" >
</path>
<path d="M2.752 8.19335C2.75968 8.18569 2.76758 8.17823 2.77564 8.17096C2.7837 8.16368 2.79193 8.15661 2.80036 8.14974C2.80876 8.14287 2.81734 8.13621 2.82609 8.12977C2.83483 8.12333 2.84372 8.1171 2.85278 8.11108C2.86181 8.10507 2.871 8.09929 2.88034 8.09374C2.88967 8.08818 2.89914 8.08286 2.90873 8.07777C2.91833 8.07268 2.92803 8.06783 2.93787 8.06321C2.9477 8.05861 2.95764 8.05424 2.96768 8.05012C2.97773 8.04599 2.98787 8.04212 2.99812 8.03849C3.00836 8.03487 3.01867 8.0315 3.02908 8.02838C3.03948 8.02527 3.04995 8.02241 3.06051 8.0198C3.07104 8.01721 3.08165 8.01487 3.09231 8.01279C3.10297 8.01072 3.11367 8.0089 3.12442 8.00735C3.13517 8.0058 3.14595 8.00451 3.15676 8.00349C3.16758 8.00247 3.1784 8.00172 3.18926 8.00123C3.20011 8.00074 3.21097 8.00051 3.22183 8.00055C3.23268 8.00061 3.24354 8.00092 3.25439 8.00151C3.26523 8.00208 3.27604 8.00292 3.28686 8.00404C3.29765 8.00515 3.30842 8.00653 3.31917 8.00818C3.3299 8.00982 3.34059 8.01173 3.35123 8.0139C3.36187 8.01606 3.37245 8.01849 3.38298 8.02118C3.3935 8.02388 3.40395 8.02682 3.41433 8.03002C3.4247 8.03323 3.43498 8.03669 3.4452 8.0404C3.4554 8.04411 3.46551 8.04806 3.47553 8.05227C3.48554 8.05648 3.49545 8.06093 3.50525 8.06563C3.51503 8.07033 3.5247 8.07526 3.53426 8.08043C3.54379 8.08561 3.55322 8.09101 3.56251 8.09665C3.57179 8.10228 3.58093 8.10814 3.58993 8.11423C3.59892 8.12031 3.60776 8.12661 3.61645 8.13313C3.62514 8.13965 3.63365 8.14639 3.64201 8.15334C3.65036 8.16027 3.65854 8.16741 3.66654 8.17476C3.67454 8.1821 3.68236 8.18963 3.69 8.19735C3.69767 8.20502 3.70515 8.21287 3.71245 8.22091C3.71973 8.22894 3.72683 8.23715 3.73373 8.24552C3.74062 8.2539 3.74731 8.26244 3.75378 8.27115C3.76025 8.27986 3.76651 8.28872 3.77256 8.29773C3.77859 8.30674 3.78442 8.31589 3.79001 8.32518C3.79561 8.33448 3.80098 8.34391 3.80612 8.35346C3.81125 8.36302 3.81615 8.3727 3.82081 8.38249C3.82547 8.39229 3.82989 8.4022 3.83408 8.41221C3.83826 8.42222 3.8422 8.43233 3.84589 8.44254C3.84958 8.45274 3.853 8.46302 3.85618 8.4734C3.85937 8.48377 3.86229 8.49422 3.86498 8.50473C3.86764 8.51524 3.87006 8.52581 3.87222 8.53644C3.87437 8.54708 3.87628 8.55776 3.87792 8.56849C3.87954 8.57921 3.88092 8.58997 3.88204 8.60076C3.88314 8.61156 3.88398 8.62238 3.88458 8.63321C3.88515 8.64404 3.88547 8.65488 3.88553 8.66573C3.88559 8.67658 3.88537 8.68742 3.8849 8.69826C3.88442 8.7091 3.88368 8.71992 3.88268 8.73073C3.88168 8.74153 3.88042 8.7523 3.87889 8.76304C3.87736 8.77379 3.87556 8.78449 3.87351 8.79513C3.87145 8.80579 3.86914 8.81639 3.86658 8.82693C3.864 8.83747 3.86117 8.84794 3.85811 8.85835C3.85501 8.86875 3.85168 8.87906 3.84811 8.8893C3.84451 8.89955 3.84068 8.90971 3.83661 8.91976C3.83251 8.92981 3.8282 8.93976 3.82364 8.9496C3.81908 8.95944 3.81426 8.96917 3.80923 8.97877C3.80418 8.98838 3.7989 8.99786 3.7934 9.00721C3.7879 9.01655 3.78217 9.02576 3.77623 9.03483C3.77026 9.04391 3.76409 9.05283 3.75772 9.0616C3.75131 9.07037 3.74472 9.07898 3.73792 9.08743C3.73111 9.09588 3.72409 9.10415 3.71689 9.11226C3.70967 9.12036 3.70226 9.12828 3.69467 9.13602L1.80066 11.03C1.79296 11.0377 1.78507 11.0452 1.77699 11.0524C1.76892 11.0597 1.76068 11.0668 1.75226 11.0737C1.74383 11.0805 1.73524 11.0872 1.72649 11.0937C1.71774 11.1001 1.70884 11.1063 1.69979 11.1123C1.69073 11.1184 1.68153 11.1242 1.6722 11.1297C1.66285 11.1353 1.65338 11.1406 1.64377 11.1457C1.63417 11.1508 1.62445 11.1556 1.6146 11.1603C1.60476 11.1649 1.59481 11.1692 1.58474 11.1733C1.57469 11.1775 1.56454 11.1813 1.55429 11.185C1.54404 11.1886 1.53371 11.192 1.52329 11.1951C1.51288 11.1982 1.50239 11.201 1.49184 11.2036C1.48128 11.2062 1.47067 11.2086 1.46 11.2107C1.44933 11.2127 1.43861 11.2145 1.42785 11.2161C1.41709 11.2176 1.4063 11.2189 1.39548 11.2199C1.38465 11.221 1.37381 11.2217 1.36295 11.2222C1.35209 11.2227 1.34123 11.2229 1.33036 11.2228C1.31949 11.2228 1.30862 11.2224 1.29777 11.2218C1.28691 11.2213 1.27608 11.2204 1.26527 11.2193C1.25446 11.2182 1.24368 11.2168 1.23293 11.2151C1.22219 11.2135 1.21149 11.2115 1.20084 11.2094C1.19019 11.2072 1.1796 11.2048 1.16907 11.202C1.15855 11.1993 1.14809 11.1964 1.13771 11.1932C1.12732 11.1899 1.11702 11.1865 1.10681 11.1828C1.0966 11.179 1.08648 11.175 1.07647 11.1708C1.06645 11.1666 1.05654 11.1621 1.04675 11.1574C1.03695 11.1527 1.02728 11.1478 1.01772 11.1426C1.00817 11.1374 0.998752 11.132 0.989465 11.1263C0.98018 11.1207 0.971038 11.1148 0.962041 11.1087C0.953046 11.1026 0.944205 11.0963 0.935519 11.0897C0.926835 11.0832 0.918316 11.0765 0.909963 11.0695C0.901611 11.0625 0.893435 11.0554 0.885435 11.048C0.877435 11.0407 0.869621 11.0331 0.861993 11.0253C0.854329 11.0177 0.846855 11.0098 0.839574 11.0018C0.832293 10.9938 0.825211 10.9856 0.818331 10.9772C0.811449 10.9688 0.804777 10.9603 0.798312 10.9516C0.791847 10.9429 0.785598 10.934 0.779565 10.925C0.773532 10.916 0.767722 10.9069 0.762135 10.8976C0.756549 10.8883 0.751192 10.8789 0.746065 10.8693C0.740938 10.8598 0.736047 10.8501 0.731392 10.8403C0.726735 10.8305 0.722321 10.8206 0.718149 10.8106C0.713977 10.8006 0.71005 10.7905 0.70637 10.7803C0.70269 10.7701 0.69926 10.7598 0.696082 10.7495C0.692904 10.7391 0.68998 10.7287 0.68731 10.7182C0.684641 10.7077 0.682229 10.6971 0.680074 10.6865C0.67792 10.6758 0.676026 10.6652 0.674393 10.6545C0.672759 10.6438 0.671387 10.633 0.670279 10.6222C0.66917 10.6114 0.668324 10.6006 0.667742 10.5898C0.667159 10.579 0.666841 10.5682 0.666787 10.5573C0.666733 10.5465 0.666943 10.5356 0.667418 10.5248C0.667892 10.514 0.66863 10.5032 0.669632 10.4924C0.670634 10.4816 0.671899 10.4708 0.673426 10.4601C0.674953 10.4494 0.676741 10.4387 0.678788 10.428C0.680837 10.4174 0.683144 10.4068 0.685709 10.3963C0.688273 10.3857 0.691093 10.3753 0.694168 10.3649C0.697244 10.3545 0.700571 10.3442 0.704149 10.3339C0.707727 10.3237 0.711553 10.3136 0.715626 10.3035C0.719699 10.2935 0.724014 10.2835 0.728571 10.2737C0.73313 10.2638 0.737925 10.2541 0.742957 10.2445C0.747988 10.2349 0.753251 10.2255 0.758745 10.2161C0.764239 10.2068 0.769958 10.1976 0.775901 10.1885C0.781844 10.1794 0.788004 10.1705 0.794382 10.1618C0.80076 10.153 0.807348 10.1444 0.814145 10.1359C0.820943 10.1275 0.827943 10.1192 0.835143 10.1111C0.842344 10.103 0.849738 10.0951 0.857325 10.0873L2.752 8.19269L2.752 8.19335Z"   fill="#3D3D3D" >
</path>
</svg>
