<svg xmlns="http://www.w3.org/2000/svg" xmlns:xlink="http://www.w3.org/1999/xlink" width="18" height="18" viewBox="0 0 18 18" fill="none"><defs><rect id="path_0" x="0" y="0" width="18" height="18" /></defs><g opacity="1" transform="translate(0 0)  rotate(0 9 9)"><mask id="bg-mask-0" fill="white"><use xlink:href="#path_0"></use></mask><g mask="url(#bg-mask-0)" ><path id="分组 1" fill-rule="evenodd" style="fill:#FF8D1A" transform="translate(2.4117187499999946 2.791406250000006)  rotate(0 6.578613281250004 6.230566406250001)" opacity="1" d="M3.46 8.31145C3.76 8.31145 3.81 8.10145 3.81 7.81145C3.81 7.51145 3.76 7.27145 3.46 7.27145L0.54 7.27145C0.24 7.27145 0 7.51145 0 7.81145L0 10.7314C0 11.0314 0.24 11.0814 0.54 11.0814C0.83 11.0814 1.04 11.0314 1.04 10.7314L1.04 9.08145C2.07 11.0914 4.16 12.4614 6.58 12.4614C10.02 12.4614 12.81 9.67145 12.81 6.23145L11.77 6.23145C11.77 9.09144 9.44 11.4214 6.58 11.4214C4.5 11.4214 2.63 10.1614 1.82 8.31145L3.46 8.31145Z M0.346289 6.23L1.38629 6.23C1.38629 3.37 3.71629 1.04 6.57629 1.04C8.65629 1.04 10.5163 2.3 11.3363 4.15L9.69629 4.15C9.39629 4.15 9.34629 4.36 9.34629 4.65C9.34629 4.95 9.39629 5.19 9.69629 5.19L12.6163 5.19C12.9163 5.19 13.1563 4.95 13.1563 4.65L13.1563 1.73C13.1563 1.43 12.9163 1.39 12.6163 1.39C12.3163 1.39 12.1163 1.43 12.1163 1.73L12.1163 3.38C11.0763 1.37 8.98629 0 6.57629 0C3.13629 0 0.346289 2.79 0.346289 6.23Z " /></g></g></svg>