<svg xmlns="http://www.w3.org/2000/svg" xmlns:xlink="http://www.w3.org/1999/xlink" width="18" height="18" viewBox="0 0 18 18" fill="none"><g opacity="1"  transform="translate(0 0)  rotate(0)"><mask id="bg-mask-0" fill="white"><use transform="translate(0 0)  rotate(0)" xlink:href="#path_0"></use></mask><g mask="url(#bg-mask-0)" ><path id="路径 1" fill-rule="evenodd" style="fill:#FF8D1A" opacity="1" d="M8.18375,3.56375l-0.36,0.08c-0.62,0.13 -1.22,0.38 -1.76,0.72l-0.32,0.21l-1.29,-0.97l-0.79,0.79l0.92,1.34l-0.21,0.31c-0.34,0.54 -0.59,1.13 -0.73,1.75l-0.08,0.38l-1.59,0.23v1.11l1.59,0.3l0.08,0.35995c0.13,0.6301 0.38,1.2201 0.72,1.7601l0.21,0.33l-0.97,1.29l0.79,0.7799l1.34,-0.91l0.31,0.2c0.54,0.34 1.13,0.59 1.75,0.7301l0.38,0.08l0.23,1.5999h1.11l0.3,-1.5999l0.35995,-0.08c0.6301,-0.13 1.2201,-0.38 1.7601,-0.7201l0.33,-0.21l1.29,0.9701l0.7799,-0.78l-0.91,-1.35l0.2,-0.3101c0.34,-0.54 0.59,-1.13 0.7301,-1.75l0.08,-0.37995l1.5999,-0.23v-1.11l-1.5999,-0.3l-0.08,-0.36c-0.13,-0.63 -0.38,-1.22 -0.7201,-1.76l-0.21,-0.33l0.9701,-1.28l-0.78,-0.79l-1.35,0.91l-0.3101,-0.2c-0.54,-0.34 -1.13,-0.59 -1.75,-0.73l-0.37995,-0.08l-0.23,-1.6h-1.11v0.01zM7.21375,2.63375l0.34,-1.79h3.01995l0.26,1.8c0.49,0.15 0.96,0.34 1.41,0.59l1.5,-1.02l2.14,2.13l-1.1,1.46c0.25,0.45 0.4401,0.92 0.5801,1.41l1.7899,0.34v3.01995l-1.7999,0.26c-0.1401,0.49 -0.34,0.96 -0.59,1.41l1.0199,1.5l-2.1299,2.14l-1.46,-1.1c-0.4401,0.25 -0.92,0.4401 -1.4101,0.5801l-0.3399,1.7899h-3.02005l-0.25,-1.7999c-0.49,-0.1401 -0.97,-0.34 -1.41,-0.59l-1.51,1.0199l-2.13,-2.1299l1.09,-1.46c-0.25,-0.4401 -0.44,-0.92 -0.58,-1.4101l-1.79,-0.3399v-3.02005l1.8,-0.25c0.15,-0.5 0.34,-0.97 0.59,-1.41l-1.02,-1.51l2.13,-2.13l1.46,1.09c0.45,-0.25 0.92,-0.44 1.41,-0.58z"></path><path id="路径 2" fill-rule="evenodd" style="fill:#FF8D1A" opacity="1" d="M9.005,12.375c-1.87,0 -3.38,-1.51 -3.38,-3.37c0,-1.87 1.51,-3.38 3.37,-3.38c1.87,0 3.38,1.51 3.38,3.38c0,1.86 -1.51,3.37 -3.37,3.37zM11.255,9.005c0,-1.25 -1.01,-2.25 -2.25,-2.25c-1.25,0 -2.25,1 -2.25,2.25c0,1.24 1,2.25 2.25,2.25c1.24,0 2.25,-1.01 2.25,-2.25z"></path></g></g><defs><rect id="path_0" x="0" y="0" width="18" height="18" /></defs></svg>