<svg xmlns="http://www.w3.org/2000/svg" xmlns:xlink="http://www.w3.org/1999/xlink" width="18"
    height="18" viewBox="0 0 18 18" fill="none">
    <defs>
        <rect id="path_0" x="0" y="0" width="18" height="18" />
    </defs>
    <g opacity="1" transform="translate(0 0)  rotate(0 9 9)">
        <mask id="bg-mask-0" fill="white">
            <use xlink:href="#path_0"></use>
        </mask>
        <g mask="url(#bg-mask-0)">
            <path id="分组 1" fill-rule="evenodd" style="fill:#F27D07"
                transform="translate(2.1796875 0.4921895449150142)  rotate(0 6.8203125 8.50781181780079)"
                opacity="1"
                d="M0 2.32L0 9.98C0 13.2 2.25 15.98 5.4 16.65C5.8 16.74 6.21 16.85 6.62 16.98C6.75 17.03 6.89 17.03 7.02 16.98C7.43 16.84 7.84 16.73 8.24 16.65C11.39 15.98 13.64 13.2 13.64 9.98L13.64 2.32C13.64 1.91 13.25 1.6 12.85 1.71C12.12 1.9 11.29 1.87 10.36 1.62C9.39 1.36 8.33 0.85 7.16 0.1C6.94 -0.04 6.67 -0.03 6.46 0.11C5.39 0.83 4.32 1.33 3.28 1.62C2.27 1.89 1.46 1.92 0.83 1.72C0.42 1.59 0 1.89 0 2.32Z M5.33367 12.2335C5.53367 12.4535 5.87367 12.4535 6.08367 12.2335L11.1037 6.73351C11.1537 6.67351 11.1537 6.59351 11.1037 6.53351L10.5937 6.00351C10.3837 5.78351 10.0837 5.81351 9.87367 6.03351L5.70367 10.6235L3.74367 8.47351C3.54367 8.25351 3.23367 8.29351 3.03367 8.51351L2.55367 9.02351C2.50367 9.07351 2.50367 9.16351 2.55367 9.21351L4.87367 11.7535L4.87367 11.7535L5.32367 12.2335L5.33367 12.2335Z " />
        </g>
    </g>
</svg>