<svg xmlns="http://www.w3.org/2000/svg" xmlns:xlink="http://www.w3.org/1999/xlink" width="18" height="18" viewBox="0 0 18 18" fill="none"><defs><rect id="path_0" x="0" y="0" width="18" height="18" /></defs><g opacity="1" transform="translate(0 0)  rotate(0 9 9)"><mask id="bg-mask-0" fill="white"><use xlink:href="#path_0"></use></mask><g mask="url(#bg-mask-0)" ><path id="分组 1" fill-rule="evenodd" style="fill:#F27D07" transform="translate(0.8999999999999924 0.8999999999999941)  rotate(0 8.100000000000001 8.1)" opacity="1" d="M0 8.1C0 12.57 3.63 16.2 8.1 16.2C12.57 16.2 16.2 12.57 16.2 8.1C16.2 3.63 12.57 0 8.1 0C3.63 0 0 3.63 0 8.1Z M14.4 8.1C14.4 4.62 11.58 1.8 8.1 1.8C4.62 1.8 1.8 4.62 1.8 8.1C1.8 11.58 4.62 14.4 8.1 14.4C11.58 14.4 14.4 11.58 14.4 8.1Z M10.7984 6.29868C10.8684 5.56868 10.6084 4.83868 10.0884 4.30868C9.56839 3.78868 8.83839 3.52868 8.09839 3.59868C7.37839 3.57868 6.67839 3.84868 6.15839 4.35868C5.64839 4.87868 5.37839 5.57868 5.39839 6.29868L7.19839 6.29868C7.19839 6.29868 7.27839 5.39868 8.09839 5.39868C8.59839 5.39868 8.99839 5.79868 8.99839 6.29868C8.99839 7.12868 7.19839 7.59868 7.19839 8.99868L7.19839 9.89868L8.99839 9.89868L8.99839 8.99868C8.99839 8.15868 10.7984 7.87868 10.7984 6.29868Z M7.2 11.2492L7.2 12.1492C7.2 12.3992 7.4 12.5992 7.65 12.5992L8.55 12.5992C8.8 12.5992 9 12.3992 9 12.1492L9 11.2492C9 11.1292 8.95 11.0092 8.86 10.9192C8.77 10.8392 8.65 10.7892 8.52 10.7992L8.55 10.7992L7.65 10.7992C7.4 10.7992 7.2 10.9992 7.2 11.2492Z " /></g></g></svg>