<svg xmlns="http://www.w3.org/2000/svg" xmlns:xlink="http://www.w3.org/1999/xlink" width="18" height="18" viewBox="0 0 18 18" fill="none"><defs><rect id="path_0" x="0" y="0" width="18" height="18" /></defs><g opacity="1" transform="translate(0 0)  rotate(0 9 9)"><mask id="bg-mask-0" fill="white"><use xlink:href="#path_0"></use></mask><g mask="url(#bg-mask-0)" ><path id="路径 1" fill-rule="evenodd" style="fill:#F27D07" transform="translate(0.33166952073006734 14.439374999999963)  rotate(0 4.837040239634967 1.6025625000000001)" opacity="1" d="M1.6,2.08C1.45,2.08 1.3,2.02 1.2,1.91C1.14,1.84 1.12,1.78 1.13,1.69L1.13,0.56C1.13,0.25 0.88,0 0.56,0C0.25,0 0,0.25 0,0.56L0.01,1.62C-0.03,2 0.1,2.38 0.36,2.65C0.67,3 1.12,3.21 1.6,3.21L9.11,3.21C9.42,3.21 9.67,2.95 9.67,2.64C9.67,2.33 9.42,2.08 9.11,2.08L1.6,2.08Z " /><path id="路径 2" fill-rule="evenodd" style="fill:#F27D07" transform="translate(0.3296232501260395 7.3555522914154965)  rotate(0 2.8351396381578478 4.53247385429284)" opacity="1" d="M1.13,8.5L1.13,7.45C1.12,4.68 2.78,2.17 5.33,1.08C5.61,0.96 5.75,0.63 5.63,0.34C5.5,0.06 5.17,-0.08 4.89,0.04C1.92,1.31 0,4.22 0,7.45L0,8.5C0,8.81 0.25,9.06 0.56,9.06C0.87,9.06 1.12,8.81 1.13,8.5Z " /><path id="分组 1" fill-rule="evenodd" style="fill:#F27D07" transform="translate(3.7552500000000055 0.3555000000000166)  rotate(0 5.649749999999988 7.111687499999976)" opacity="1" d="M8.69 4.34C8.69 1.95 6.74 0 4.34 0C1.95 0 0 1.95 0 4.34C0 6.74 1.95 8.69 4.34 8.69C6.74 8.69 8.69 6.74 8.69 4.34Z M1.125 4.345C1.125 6.125 2.565 7.565 4.345 7.565C6.125 7.565 7.565 6.125 7.565 4.345C7.565 2.565 6.125 1.125 4.345 1.125C2.565 1.125 1.125 2.565 1.125 4.345Z M11.3012 12.8551C11.3012 12.0951 10.6812 11.4851 9.93125 11.4851C9.17125 11.4851 8.56125 12.0951 8.56125 12.8551C8.56125 13.6051 9.17125 14.2251 9.93125 14.2251C10.6812 14.2251 11.3012 13.6051 11.3012 12.8551Z M9.40145 12.5621C9.29145 12.7421 9.29145 12.9721 9.40145 13.1521C9.51145 13.3421 9.72145 13.4521 9.93145 13.4421C10.2414 13.4221 10.4914 13.1721 10.4914 12.8521C10.4914 12.5421 10.2414 12.2821 9.93145 12.2721C9.71145 12.2621 9.51145 12.3721 9.40145 12.5621Z " /><path id="分组 2" fill-rule="evenodd" style="fill:#F27D07" transform="translate(9.869625 9.53692185403813)  rotate(0 3.815546585786288 3.672415720612166)" opacity="1" d="M4.91 0.02C4.8 -0.02 4.68 0 4.59 0.06C4.49 0.12 4.43 0.22 4.41 0.34C4.37 0.64 4.11 0.87 3.8 0.87C3.5 0.87 3.24 0.64 3.19 0.34C3.18 0.23 3.11 0.13 3.01 0.07C2.92 0.01 2.8 -0.01 2.69 0.03C2.14 0.2 1.63 0.49 1.21 0.89C1.12 0.97 1.08 1.08 1.08 1.19C1.09 1.3 1.14 1.41 1.23 1.48C1.45 1.57 1.6 1.78 1.61 2.02C1.62 2.26 1.49 2.49 1.28 2.6C1.07 2.71 0.81 2.68 0.62 2.54C0.51 2.5 0.4 2.5 0.3 2.56C0.2 2.61 0.12 2.71 0.1 2.82C0.03 3.11 0 3.39 0 3.67C0 3.95 0.03 4.24 0.1 4.53C0.12 4.64 0.2 4.73 0.3 4.79C0.4 4.84 0.52 4.85 0.62 4.81C0.9 4.7 1.22 4.81 1.38 5.07C1.53 5.33 1.47 5.67 1.23 5.86C1.14 5.93 1.09 6.04 1.08 6.15C1.08 6.26 1.12 6.37 1.21 6.45C1.63 6.85 2.14 7.15 2.69 7.32C2.8 7.35 2.92 7.34 3.02 7.28C3.11 7.22 3.18 7.12 3.19 7C3.24 6.7 3.5 6.48 3.8 6.48C4.11 6.48 4.37 6.7 4.41 7.01C4.44 7.2 4.6 7.34 4.8 7.34C4.84 7.34 4.88 7.34 4.91 7.33C5.47 7.16 5.98 6.86 6.41 6.47C6.5 6.39 6.54 6.28 6.54 6.16C6.53 6.04 6.48 5.94 6.39 5.87C6.14 5.68 6.08 5.34 6.23 5.07C6.39 4.81 6.71 4.7 7 4.81C7.1 4.86 7.22 4.85 7.33 4.8C7.43 4.75 7.5 4.65 7.53 4.54C7.66 3.97 7.66 3.37 7.53 2.8C7.5 2.69 7.43 2.6 7.33 2.55C7.22 2.49 7.11 2.49 7 2.53C6.71 2.64 6.39 2.53 6.23 2.27C6.08 2 6.14 1.67 6.39 1.48C6.48 1.41 6.53 1.3 6.54 1.18C6.54 1.07 6.5 0.96 6.41 0.88C5.98 0.48 5.47 0.19 4.91 0.02Z M2.05384 2.66533C1.80384 3.10533 1.30384 3.41533 0.803838 3.36533C0.773838 3.56533 0.773838 3.77533 0.803838 3.98533C1.31384 3.98533 1.78384 4.24533 2.05384 4.67533C2.32384 5.14533 2.30384 5.69533 2.03384 6.11533C2.20384 6.24533 2.38384 6.34533 2.56384 6.43533C2.80384 5.98533 3.28384 5.68533 3.80384 5.68533C4.33384 5.68533 4.80384 5.99533 5.04384 6.44533C5.23384 6.35533 5.41384 6.25533 5.58384 6.13533C5.29384 5.69533 5.28384 5.13533 5.55384 4.68533C5.81384 4.23533 6.30384 3.96533 6.83384 3.98533C6.85384 3.77533 6.85384 3.56533 6.83384 3.36533C6.30384 3.38533 5.81384 3.11533 5.55384 2.66533C5.29384 2.21533 5.30384 1.65533 5.58384 1.21533C5.41384 1.09533 5.23384 0.985328 5.04384 0.905328C4.80384 1.35533 4.33384 1.65533 3.80384 1.65533C3.27384 1.65533 2.80384 1.35533 2.56384 0.915328C2.37384 1.00533 2.20384 1.10533 2.03384 1.22533C2.29384 1.65533 2.31384 2.20533 2.05384 2.66533Z " /></g></g></svg>