<svg xmlns="http://www.w3.org/2000/svg" xmlns:xlink="http://www.w3.org/1999/xlink" width="18" height="18" viewBox="0 0 18 18" fill="none"><defs><rect id="path_0" x="0" y="0" width="18" height="18" /></defs><g opacity="1" transform="translate(0 0)  rotate(0 9 9)"><mask id="bg-mask-0" fill="white"><use xlink:href="#path_0"></use></mask><g mask="url(#bg-mask-0)" ><path id="分组 1" fill-rule="evenodd" style="fill:#F27D07" transform="translate(1.1241969373076595 1.125)  rotate(0 7.875401531346183 7.875000000000012)" opacity="1" d="M8.46643 8.46562L8.46643 12.1056C8.46643 14.1156 10.0964 15.7456 12.1064 15.7456C14.1164 15.7456 15.7464 14.1156 15.7464 12.1056C15.7464 10.0956 14.1164 8.46562 12.1064 8.46562L8.46643 8.46562Z M14.9639 12.1031C14.9639 10.5331 13.6839 9.25313 12.1039 9.25313L9.25393 9.25313L9.25393 12.1031C9.25393 13.6831 10.5339 14.9631 12.1039 14.9631C13.6839 14.9631 14.9639 13.6831 14.9639 12.1031Z M12.1064 0C10.0964 0 8.46643 1.63 8.46643 3.64L8.46643 7.28L12.1064 7.28C14.1164 7.28 15.7464 5.65 15.7464 3.64C15.7464 1.63 14.1164 0 12.1064 0Z M9.25393 6.4975L12.1039 6.4975C13.6839 6.4975 14.9639 5.2175 14.9639 3.6375C14.9639 2.0675 13.6839 0.7875 12.1039 0.7875C10.5339 0.7875 9.25393 2.0675 9.25393 3.6375L9.25393 6.4975Z M6.5 10.2356C6.5 10.4556 6.67 10.6356 6.89 10.6356C7.11 10.6356 7.29 10.4556 7.29 10.2356L7.29 8.46562L3.77 8.46562C1.83 8.46562 0.13 9.92562 0.01 11.8656C-0.13 13.9856 1.55 15.7456 3.64 15.7456C4.92 15.7456 6.04 15.0956 6.69 14.1056C6.86 13.8356 6.68 13.4856 6.36 13.4856C6.23 13.4856 6.1 13.5556 6.03 13.6756C5.43 14.5856 4.32 15.1356 3.12 14.9156C1.99 14.7156 1.07 13.8056 0.84 12.6856C0.49 10.8556 1.88 9.25562 3.64 9.25562L6.5 9.25562L6.5 10.2356Z M0.000803063 3.64C0.000803063 5.65 1.6308 7.28 3.6408 7.28L7.2808 7.28L7.2808 3.64C7.2808 1.63 5.6508 0 3.6408 0C1.6308 0 0.000803063 1.63 0.000803063 3.64Z M6.4983 3.6375C6.4983 2.0675 5.2183 0.7875 3.6383 0.7875C2.0683 0.7875 0.788303 2.0675 0.788303 3.6375C0.788303 5.2175 2.0683 6.4975 3.6383 6.4975L6.4983 6.4975L6.4983 3.6375Z M6.4933 11.8088L6.4933 12.1087C6.4933 12.2188 6.4933 12.3387 6.4733 12.4487C6.4433 12.6887 6.6233 12.8988 6.8633 12.8988C7.0633 12.8988 7.2333 12.7487 7.2533 12.5487C7.2733 12.3988 7.2833 12.2587 7.2833 12.1087L7.2833 11.8088C7.2833 11.5988 7.1133 11.4187 6.8933 11.4187C6.6733 11.4187 6.4933 11.5988 6.4933 11.8088Z " /></g></g></svg>