<svg xmlns="http://www.w3.org/2000/svg" xmlns:xlink="http://www.w3.org/1999/xlink" width="18" height="18" viewBox="0 0 18 18" fill="none"><defs><rect id="path_0" x="0" y="0" width="18" height="18" /></defs><g opacity="1" transform="translate(0 0)  rotate(0 9 9)"><mask id="bg-mask-0" fill="white"><use xlink:href="#path_0"></use></mask><g mask="url(#bg-mask-0)" ><path id="分组 1" fill-rule="evenodd" style="fill:#F27D07" transform="translate(4.492499994140612 5.291249994140616)  rotate(0 4.507500005859374 3.7087500058593736)" opacity="1" d="M3.17 1.5C3.59 1.5 3.92 1.16 3.92 0.75C3.92 0.34 3.59 0 3.17 0L0.75 0C0.34 0 0 0.34 0 0.75C0 1.16 0.34 1.5 0.75 1.5L3.17 1.5Z M3.17 4.45875C3.59 4.45875 3.92 4.11875 3.92 3.70875C3.92 3.29875 3.59 2.95875 3.17 2.95875L0.75 2.95875C0.34 2.95875 0 3.29875 0 3.70875C0 4.11875 0.34 4.45875 0.75 4.45875L3.17 4.45875Z M0.75 5.9175C0.34 5.9175 0 6.2575 0 6.6675C0 7.0775 0.34 7.4175 0.75 7.4175L8.27 7.4175C8.68 7.4175 9.02 7.0775 9.02 6.6675C9.02 6.2575 8.68 5.9175 8.27 5.9175L0.75 5.9175Z " /><path id="分组 2" fill-rule="evenodd" style="fill:#F27D07" transform="translate(1.8750000058593708 1.499984891537368)  rotate(0 7.124999994140625 7.500007557161001)" opacity="1" d="M0 12.75C0 13.99 1.01 15 2.25 15L12 15C13.24 15 14.25 13.99 14.25 12.75L14.25 5.06C14.25 4.5 14.03 3.97 13.64 3.57L10.68 0.62C10.28 0.22 9.75 0 9.19 0L2.25 0C1.01 0 0 1.01 0 2.25L0 12.75Z M9.615 1.67377C9.545 1.61377 9.465 1.56377 9.375 1.53377L9.375 4.87376L12.715 4.87376C12.685 4.78376 12.645 4.70376 12.575 4.63377L9.615 1.67377Z M7.88 5.62002L7.88 1.50002L2.25 1.50002C1.84 1.50002 1.5 1.84002 1.5 2.25002L1.5 12.75C1.5 13.16 1.84 13.5 2.25 13.5L12 13.5C12.41 13.5 12.75 13.16 12.75 12.75L12.75 6.37002L8.62 6.37002C8.21 6.37002 7.88 6.04002 7.88 5.62002Z " /></g></g></svg>