<svg xmlns="http://www.w3.org/2000/svg" xmlns:xlink="http://www.w3.org/1999/xlink" width="18" height="18" viewBox="0 0 18 18" fill="none"><defs><rect id="path_0" x="0" y="0" width="18" height="18" /></defs><g opacity="1" transform="translate(0 0)  rotate(0 9 9)"><mask id="bg-mask-0" fill="white"><use xlink:href="#path_0"></use></mask><g mask="url(#bg-mask-0)" ><path id="分组 1" fill-rule="evenodd" style="fill:#F27D07" transform="translate(0 0.01754385964912908)  rotate(0 9.003232833333334 9)" opacity="1" d="M18.01 2.27L14.02 2.27L14.02 0L4.04 0L4.04 2.26L0 2.26L0 3.65L1.74 3.65L1.74 18L16.28 18L16.28 3.66L18.01 3.66L18.01 2.27Z M5.42272 2.25782L12.6427 2.25782L12.6427 1.38782L5.42272 1.38782L5.42272 2.25782Z M14.9004 3.6569L3.13035 3.6569L3.13035 16.6169L14.9004 16.6169L14.9004 3.6569Z " /><path id="分组 2" fill-rule="evenodd" style="fill:#F27D07" transform="translate(4.660904385964907 5.828091824561402)  rotate(0 4.418509649122797 3.837316877929708)" opacity="1" d="M5.17437 3.04L5.92437 1.57L5.02437 0L3.81437 0L1.45437 4.1L3.05437 4.1L4.41437 1.73L5.17437 3.04Z M5.48505 6.29174L6.28505 7.67174L8.24505 7.67174L8.83505 6.63174L6.41505 2.42174L5.65505 3.88174L7.04505 6.29174L5.48505 6.29174Z M5.33 7.66982L4.54 6.28981L1.79 6.28981L2.58 4.91982L0.98 4.91982L0 6.62982L0.6 7.66982L5.33 7.66982Z " /></g></g></svg>