<svg xmlns="http://www.w3.org/2000/svg" xmlns:xlink="http://www.w3.org/1999/xlink" width="18" height="18" viewBox="0 0 18 18" fill="none"><defs><rect id="path_0" x="0" y="0" width="18" height="18" /></defs><g opacity="1" transform="translate(0 0)  rotate(0 9 9)"><mask id="bg-mask-0" fill="white"><use xlink:href="#path_0"></use></mask><g mask="url(#bg-mask-0)" ><path id="分组 1" fill-rule="evenodd" style="fill:#FF8D1A" transform="translate(1.83600000000001 2.8972045998874423)  rotate(0 5.7646823325970695 6.276846530789797)" opacity="1" d="M3.89 6.71C3.85 6.71 3.89 6.71 3.89 6.71Z M0.97 10.93C1.3 9.7 1.98 8.73 3.02 8.01C3.89 7.4 4.9 7.18 5.98 7.18C6.12 7.18 6.3 7.18 6.44 7.22C7.2 7.29 7.92 7.58 8.53 8.01C9.83 8.95 10.55 10.21 10.66 11.83C10.69 11.97 10.66 12.08 10.69 12.19C10.73 12.4 10.94 12.55 11.16 12.51C11.38 12.51 11.52 12.33 11.52 12.11C11.56 11.68 11.48 11.21 11.38 10.78C10.84 8.8 9.61 7.47 7.74 6.71C7.7 6.71 7.67 6.71 7.63 6.68C8.24 6.28 8.71 5.74 9.04 5.09C9.32 4.45 9.43 3.73 9.32 3.04C9.22 2.36 8.93 1.71 8.42 1.17C7.09 -0.27 4.82 -0.41 3.35 0.92C2.56 1.64 2.12 2.5 2.12 3.58C2.12 4.91 2.77 5.96 3.89 6.71C3.85 6.71 3.82 6.75 3.82 6.71C3.13 6.97 2.52 7.33 1.98 7.79C0.68 8.95 0 10.39 0 12.11C0 12.19 0 12.22 0.04 12.29C0.11 12.47 0.32 12.58 0.5 12.55C0.68 12.51 0.83 12.33 0.83 12.15C0.83 11.72 0.86 11.32 0.97 10.93Z M5.868 0.843776C4.318 0.773776 2.988 2.00378 2.988 3.62378C2.988 5.16378 4.208 6.39378 5.728 6.42378C7.268 6.39378 8.528 5.16378 8.528 3.62378C8.528 2.07378 7.308 0.883776 5.868 0.843776Z " /><path id="路径 3" fill-rule="evenodd" style="fill:#FF8D1A" transform="translate(11.052000000000007 3.5999999999999948)  rotate(0 2.5425870119269054 5.382)" opacity="1" d="M1.55,1.19C2.48,1.84 2.84,3.1 2.34,4.14C1.98,4.93 1.37,5.4 0.47,5.44C0.43,5.44 0.36,5.44 0.29,5.47C0.11,5.54 0,5.76 0.04,5.94C0.07,6.12 0.25,6.26 0.43,6.26C0.76,6.3 1.08,6.3 1.4,6.41C2.3,6.66 2.99,7.16 3.53,7.92C3.92,8.46 4.18,9.11 4.25,9.79C4.25,10.01 4.25,10.19 4.28,10.4C4.28,10.62 4.46,10.76 4.72,10.76C4.93,10.73 5.08,10.55 5.08,10.33C5.11,9.86 5.04,9.4 4.9,8.93C4.46,7.45 3.56,6.37 2.16,5.76C2.12,5.76 2.12,5.72 2.09,5.72C2.2,5.65 2.3,5.58 2.38,5.51C3.17,4.72 3.49,3.78 3.35,2.66C3.2,1.73 2.77,1.01 1.98,0.47C1.51,0.14 0.97,0 0.4,0C0.18,0 0,0.18 0,0.4C0,0.65 0.18,0.83 0.47,0.83C0.83,0.83 1.22,0.97 1.55,1.19Z " /></g></g></svg>