<svg xmlns="http://www.w3.org/2000/svg" xmlns:xlink="http://www.w3.org/1999/xlink" width="18" height="18" viewBox="0 0 18 18" fill="none"><defs><rect id="path_0" x="0" y="0" width="18" height="18" /></defs><g opacity="1" transform="translate(0 0)  rotate(0 9 9)"><mask id="bg-mask-0" fill="white"><use xlink:href="#path_0"></use></mask><g mask="url(#bg-mask-0)" ><path id="路径 1" fill-rule="evenodd" style="fill:#F27D07" transform="translate(0 9.09772269827352)  rotate(0 6.243669770059071 4.451138650863251)" opacity="1" d="M11.05,0.54L9.56,5.54C8.66,4.2 7.17,3.3 5.45,3.3L4.85,3.3C2.17,3.3 0,5.47 0,8.16C0,8.6 0.3,8.9 0.75,8.9C1.2,8.9 1.49,8.6 1.49,8.16C1.49,6.29 2.99,4.79 4.85,4.79L5.45,4.79C7.32,4.79 8.81,6.29 8.81,8.16C8.81,8.53 9.11,8.83 9.49,8.9L9.56,8.9C9.93,8.9 10.23,8.68 10.31,8.3L12.47,0.91C12.55,0.54 12.32,0.16 11.95,0.01C11.58,-0.06 11.2,0.16 11.05,0.54Z " /><path id="分组 1" fill-rule="evenodd" style="fill:#F27D07" transform="translate(1.7925311249999947 5.228215769531242)  rotate(0 3.2116182539062503 3.2489626552734374)" opacity="1" d="M6.42 3.29C6.42 1.49 5 0 3.21 0C1.42 0 0 1.49 0 3.29C0 5.08 1.42 6.5 3.21 6.5C5 6.5 6.42 5.08 6.42 3.29Z M1.49378 3.21378C1.49378 4.18378 2.24378 4.93378 3.21378 4.93378C4.18378 4.93378 4.93378 4.18378 4.93378 3.21378C4.93378 2.24378 4.18378 1.49378 3.21378 1.49378C2.24378 1.49378 1.49378 2.24378 1.49378 3.21378Z " /><path id="路径 4" fill-rule="evenodd" style="fill:#F27D07" transform="translate(4.033195013671884 0.0746888027343565)  rotate(0 6.946058091796874 6.049792529296875)" opacity="1" d="M0,3.51C0,3.96 0.3,4.26 0.75,4.26C1.2,4.26 1.49,3.96 1.49,3.51L1.49,1.49L12.4,1.49L12.4,10.61L9.63,10.61C9.19,10.61 8.89,10.9 8.89,11.35C8.89,11.8 9.19,12.1 9.63,12.1L12.62,12.1C13.29,12.1 13.89,11.58 13.89,10.9L13.89,1.2C13.89,0.52 13.37,0 12.7,0L0.75,0C0.3,0 0,0.3 0,0.75L0,3.51Z " /><path id="路径 5" fill-rule="evenodd" style="fill:#F27D07" transform="translate(8.738589216796875 4.705394185546879)  rotate(0 3.2116182539062517 0.7468879658203127)" opacity="1" d="M6.42,0.75C6.42,0.3 6.12,0 5.68,0L0.75,0C0.3,0 0,0.3 0,0.75C0,1.2 0.3,1.49 0.75,1.49L5.68,1.49C6.12,1.49 6.42,1.2 6.42,0.75Z " /></g></g></svg>