<svg xmlns="http://www.w3.org/2000/svg" xmlns:xlink="http://www.w3.org/1999/xlink" width="18" height="18" viewBox="0 0 18 18" fill="none"><defs><rect id="path_0" x="0" y="0" width="18" height="18" /></defs><g opacity="1" transform="translate(0 0)  rotate(0 9 9)"><mask id="bg-mask-0" fill="white"><use xlink:href="#path_0"></use></mask><g mask="url(#bg-mask-0)" ><path id="分组 1" fill-rule="evenodd" style="fill:#F27D07" transform="translate(0 0.8999999999999893)  rotate(0 9 8.550000000000018)" opacity="1" d="M3.6 1.8C1.62 1.8 0 3.42 0 5.4L0 13.5C0 15.48 1.62 17.1 3.6 17.1L14.4 17.1C16.38 17.1 18 15.48 18 13.5L18 10.8C18 10.35 17.55 9.9 17.1 9.9C16.56 9.9 16.2 10.26 16.2 10.8L16.2 11.88C16.2 13.77 16.11 15.3 12.6 15.3L5.4 15.3C1.8 15.3 1.8 13.68 1.8 11.7L1.8 7.2C1.53 4.41 2.88 3.78 4.5 3.6L4.59 3.6C5.13 3.6 5.49 3.24 5.49 2.7C5.49 2.16 5.13 1.8 4.59 1.8L3.6 1.8Z M10.53 2.61C6.48 2.61 3.15 6.03 3.15 10.35C3.15 11.25 3.33 12.15 3.6 12.96C4.59 9.99 7.38 7.83 10.62 7.83L10.62 9C10.62 9.45 10.89 9.9 11.34 10.17C11.52 10.26 11.7 10.35 11.88 10.35C12.15 10.35 12.42 10.26 12.6 10.08L17.55 6.21C17.82 5.94 18 5.58 18 5.13C18 4.77 17.82 4.32 17.55 4.14L12.6 0.27C12.33 0.09 12.06 0 11.79 0C11.61 0 11.43 0 11.25 0.18C10.8 0.36 10.53 0.81 10.53 1.35L10.53 2.61Z " /></g></g></svg>