<svg xmlns="http://www.w3.org/2000/svg" xmlns:xlink="http://www.w3.org/1999/xlink" width="20" height="20" viewBox="0 0 20 20" fill="none"><defs><rect id="path_0" x="0" y="0" width="20" height="20" /></defs><g opacity="1" transform="translate(0 0)  rotate(0 10 10)"><mask id="bg-mask-0" fill="white"><use xlink:href="#path_0"></use></mask><g mask="url(#bg-mask-0)" ><path id="分组 1" fill-rule="evenodd" style="fill:#F27D07" transform="translate(2.458900000001387 3.675299999999913)  rotate(0 6.892649999999999 7.518900000000002)" opacity="1" d="M1.06 6.57L1.06 8.47L0.54 8.47C0.26 8.47 0.04 8.68 0.04 8.93C0.04 9.19 0.26 9.39 0.54 9.39L1.06 9.39L1.06 11.28L0.54 11.28C0.26 11.28 0.04 11.48 0.04 11.74C0.04 11.99 0.26 12.2 0.54 12.2L1.05 12.2L1.05 14.1C1.05 14.88 1.72 15.04 2.08 15.04L12.26 15.04L12.26 15.04C13.1 15.04 13.78 14.41 13.79 13.63L13.79 1.41C13.79 0.63 13.1 0 12.26 0L2.11 0C1.37 0 1.06 0.5 1.06 0.97L1.06 2.84L0.5 2.84C0.22 2.84 0 3.05 0 3.3C0 3.55 0.22 3.76 0.5 3.76L1.06 3.76L1.06 5.65L0.55 5.65C0.27 5.65 0.05 5.86 0.05 6.11C0.05 6.37 0.27 6.57 0.55 6.57L1.06 6.57Z M3.1131 6.11C3.1131 6.37 2.8931 6.57 2.6131 6.57L2.0731 6.57L2.0731 8.47L2.6031 8.47C2.8831 8.47 3.1031 8.68 3.1031 8.93C3.1031 9.19 2.8831 9.39 2.6031 9.39L2.0731 9.39L2.0731 11.28L2.6031 11.28C2.8831 11.28 3.1031 11.49 3.1031 11.74C3.1031 11.99 2.8831 12.2 2.6031 12.2L2.0731 12.2L2.0731 14.1L10.2231 14.1L10.2231 0.94L2.1031 0.94C2.0931 0.94 2.0831 0.94 2.0731 0.94L2.0731 0.94C2.0731 0.95 2.0731 0.96 2.0731 0.97L2.0731 2.84L2.5631 2.84C2.8431 2.84 3.0631 3.04 3.0631 3.3C3.0631 3.55 2.8431 3.76 2.5631 3.76L2.0731 3.76L2.0731 5.65L2.6131 5.65C2.8931 5.65 3.1131 5.86 3.1131 6.11Z M12.2584 0.94L11.2384 0.94L11.2384 14.1L12.2584 14.1C12.5384 14.1 12.7684 13.89 12.7684 13.63L12.7684 1.41C12.7684 1.15 12.5384 0.94 12.2584 0.94Z M6.5218 5.0049C6.4918 4.9149 6.4118 4.8549 6.3118 4.8549L5.4018 4.8549C5.3218 4.8549 5.2518 4.8949 5.2118 4.9549C5.1718 5.0149 5.1718 5.0949 5.2018 5.1549L5.6618 6.3549C5.6918 6.4249 5.6918 6.4949 5.6518 6.5549C5.6118 6.6249 5.5418 6.6549 5.4618 6.6549L4.9318 6.6549C4.8718 6.6549 4.8118 6.6849 4.7718 6.7249C4.7318 6.7649 4.7118 6.8249 4.7118 6.8849L4.7318 7.3349C4.7318 7.4549 4.8318 7.5449 4.9418 7.5449L5.9418 7.5449C6.0218 7.5449 6.0918 7.5949 6.1318 7.6549L6.2118 7.8049C6.2518 7.8749 6.2518 7.9549 6.2118 8.0249C6.1718 8.0849 6.1018 8.1249 6.0218 8.1249L4.9218 8.1249C4.8018 8.1249 4.7018 8.2249 4.7018 8.3449L4.7018 8.7649C4.7018 8.8849 4.8018 8.9849 4.9218 8.9849L6.0218 8.9849C6.1418 8.9849 6.2418 9.0849 6.2418 9.2049L6.2418 9.9649C6.2418 10.0849 6.3418 10.1849 6.4618 10.1849L7.3618 10.1849L7.3618 10.1849C7.4218 10.1849 7.4718 10.1649 7.5118 10.1149C7.5518 10.0749 7.5818 10.0249 7.5818 9.9649L7.5818 9.2049C7.5818 9.0849 7.6718 8.9849 7.7918 8.9849L8.8618 8.9849C8.9818 8.9849 9.0818 8.8849 9.0818 8.7649L9.0818 8.3449C9.0818 8.2249 8.9818 8.1249 8.8618 8.1249L7.7918 8.1249C7.7218 8.1249 7.6418 8.0849 7.6118 8.0249C7.5718 7.9549 7.5718 7.8749 7.6018 7.8049L7.6818 7.6549C7.7218 7.5949 7.8018 7.5449 7.8718 7.5449L8.8618 7.5449C8.9818 7.5449 9.0818 7.4549 9.0818 7.3349L9.0818 6.8749C9.0818 6.7549 8.9818 6.6549 8.8618 6.6549L8.5218 6.6549C8.4518 6.6549 8.3818 6.6249 8.3418 6.5549C8.3018 6.4949 8.2918 6.4249 8.3218 6.3549L8.7918 5.1549C8.8218 5.0949 8.8118 5.0149 8.7718 4.9549C8.7318 4.8949 8.6618 4.8549 8.5918 4.8549L7.7118 4.8549C7.6118 4.8549 7.5318 4.9149 7.5018 5.0049L7.2018 6.1649C7.1318 6.3549 6.8618 6.3549 6.7918 6.1649L6.5218 5.0049Z " /></g></g></svg>