<svg xmlns="http://www.w3.org/2000/svg" xmlns:xlink="http://www.w3.org/1999/xlink" width="18" height="18" viewBox="0 0 18 18" fill="none"><defs><rect id="path_0" x="0" y="0" width="18" height="18" /></defs><g opacity="1" transform="translate(0 0)  rotate(0 9 9)"><mask id="bg-mask-0" fill="white"><use xlink:href="#path_0"></use></mask><g mask="url(#bg-mask-0)" ><path id="分组 1" fill-rule="evenodd" style="fill:#FF8D1A" transform="translate(0.25997795507811805 0.09327452343748269)  rotate(0 8.740022044921876 8.95336273828125)" opacity="1" d="M5.54 17.91C8.6 17.91 11.08 15.43 11.08 12.37C11.08 11.09 10.64 9.94 9.91 9L17.48 1.43L15.59 0.65L14.28 1.96L12.32 0L11.54 1.89L12.94 3.3L11.93 4.31L9.19 1.57L8.4 3.46L10.59 5.65L8.53 7.71C7.66 7.16 6.64 6.82 5.54 6.82C2.48 6.82 0 9.31 0 12.37C0 15.43 2.48 17.91 5.54 17.91Z M7.89596 14.7213C8.51596 14.0913 8.86596 13.2513 8.86596 12.3613C8.86596 11.4813 8.51596 10.6413 7.89596 10.0113C7.26596 9.39128 6.42596 9.04128 5.53596 9.04128C4.65596 9.04128 3.81596 9.39128 3.18596 10.0113C2.56596 10.6413 2.21596 11.4813 2.21596 12.3613C2.21596 13.2513 2.56596 14.0913 3.18596 14.7213C3.81596 15.3413 4.65596 15.6913 5.53596 15.6913C6.42596 15.6913 7.26596 15.3413 7.89596 14.7213Z " /></g></g></svg>