<svg xmlns="http://www.w3.org/2000/svg" xmlns:xlink="http://www.w3.org/1999/xlink" width="48" height="48" viewBox="0 0 48 48" fill="none"><g opacity="1"  transform="translate(0 0)  rotate(0)"><path id="矩形 2" fill-rule="evenodd" style="fill:#EDEFFE" opacity="1" d="M9.6 48L38.4 48C43.7 48 48 43.7 48 38.4L48 9.6C48 4.3 43.7 0 38.4 0L9.6 0C4.3 0 0 4.3 0 9.6L0 38.4C0 43.7 4.3 48 9.6 48Z"></path><g opacity="1"  transform="translate(11.02001953125 12.3699951171875)  rotate(0)"><path id="路径 1" fill-rule="evenodd" style="fill:#37339C" opacity="1" d="M0.889524 10.91C1.24952 11.07 2.22952 11.46 2.52952 11.47C2.96952 11.49 3.04952 10.94 3.05952 10.89C4.27952 5.52 9.81952 2 15.1795 3.24C18.5395 4.02 21.0895 6.42 22.2395 9.42C22.2395 9.42 20.3795 9.64 20.0395 9.69C19.7095 9.74 19.5895 10.12 19.9095 10.42C20.0495 10.55 24.3295 12.98 25.2095 12.97C25.6295 12.96 26.0195 12.7 25.9395 11.96C25.5095 6.45 21.5595 1.62 15.8795 0.31C9.02952 -1.27 1.88952 3.34 0.499524 10.17C0.379524 10.77 0.479524 10.72 0.889524 10.91Z"></path><path id="路径 2" fill-rule="evenodd" style="fill:#37339C" opacity="1" d="M25.72 15.596C25.76 15.266 25.8 15.136 25.44 15.036C25.08 14.946 23.93 14.616 23.46 14.446C22.99 14.286 22.92 14.646 22.88 14.886C22.83 15.126 22.83 15.106 22.81 15.216C21.58 20.586 16.1 23.946 10.75 22.696C7.55 21.966 5.08 19.756 3.86 16.956C3.86 16.956 5.4 16.816 5.89 16.766C6.38 16.716 6.49 16.156 6.04 15.876C5.59 15.596 1.87 13.486 1.32 13.206C0.63 12.846 -0.06 13.036 0 13.986C0.44 19.486 4.39 24.306 10.07 25.616C17.08 27.226 24.06 22.866 25.66 15.886C25.68 15.786 25.7 15.696 25.72 15.596Z"></path><path id="路径 3" fill-rule="evenodd" style="fill:#37339C" opacity="1" d="M8.22406 12.5314C8.24407 12.8314 8.39406 13.0814 8.69407 13.2714L11.6741 13.2714L11.6941 14.5114L8.69407 14.5114C8.38406 14.6714 8.22406 14.9114 8.22406 15.2514C8.22406 15.5914 8.38406 15.8414 8.69407 16.0014L11.6941 16.0014L11.6941 19.1214C11.6741 20.0514 12.0641 20.5014 12.8641 20.4914C13.6641 20.4714 14.0441 20.0114 13.9841 19.1214L13.9841 16.0014L16.9941 16.0014C17.2341 15.8114 17.3541 15.5614 17.3541 15.2514C17.3641 14.9414 17.2441 14.7014 16.9941 14.5114L13.9841 14.5114L13.9841 13.2914L16.9941 13.2714C17.2341 13.0814 17.3541 12.8314 17.3541 12.5314C17.3541 12.2314 17.2341 11.9814 16.9941 11.7914L14.6741 11.7914L17.4841 7.5114C17.7041 6.8614 17.5441 6.4214 16.9941 6.1714C16.4541 5.9314 16.0141 6.0814 15.6741 6.6114L12.8341 10.9314L10.0841 6.6114C9.70407 6.0514 9.24407 5.9314 8.69407 6.2414C8.14406 6.5614 7.98407 6.9814 8.19407 7.5114L11.0041 11.7914L8.69407 11.7914C8.37407 11.9814 8.21406 12.2314 8.22406 12.5314Z"></path></g></g></svg>