<svg xmlns="http://www.w3.org/2000/svg" xmlns:xlink="http://www.w3.org/1999/xlink" width="48" height="48" viewBox="0 0 48 48" fill="none"><g opacity="1" transform="translate(0 0)  rotate(0 24 24)"><path id="矩形 2" fill-rule="evenodd" style="fill:#EDEFFE" transform="translate(0 0)  rotate(0 24 24)" opacity="1" d="M5.878304635907297e-16,38.4C0,40.94607830245963 1.0114256675080107,43.38787586628973 2.8117749006091444,45.18822509939086C4.612124133710278,46.98857433249199 7.053921697540378,48.00000000000001 9.600000000000001,48.00000000000001L38.4,48C43.701933598375625,48.00000000000001 48.00000000000001,43.701933598375625 48.00000000000001,38.400000000000006L48,9.600000000000003C48,7.053921697540378 46.98857433249199,4.612124133710277 45.188225099390856,2.8117749006091435C43.38787586628972,1.0114256675080107 40.94607830245962,0 38.4,0L9.600000000000003,0C7.053921697540378,-1.7763568394002505e-15 4.612124133710276,1.0114256675080107 2.811774900609141,2.8117749006091435C1.011425667508007,4.612124133710277 -3.552713678800501e-15,7.05392169754038 -3.552713678800501e-15,9.600000000000005Z " /><g opacity="1" transform="translate(11.019999999999982 12.36999999999989)  rotate(0 12.975540801011158 12.975734773890705)"><path id="路径 1" fill-rule="evenodd" style="fill:#37339C" transform="translate(0.4495080988600648 0)  rotate(0 12.750786751581126 6.483906004099884)" opacity="1" d="M0.44,10.91C0.8,11.07 1.78,11.46 2.08,11.47C2.52,11.49 2.6,10.94 2.61,10.89C3.83,5.52 9.37,2 14.73,3.24C18.09,4.02 20.64,6.42 21.79,9.42C21.79,9.42 19.93,9.64 19.59,9.69C19.26,9.74 19.14,10.12 19.46,10.42C19.6,10.55 23.88,12.98 24.76,12.97C25.18,12.96 25.57,12.7 25.49,11.96C25.06,6.45 21.11,1.62 15.43,0.31C8.58,-1.27 1.44,3.34 0.05,10.17C-0.07,10.77 0.03,10.72 0.44,10.91Z " /><path id="路径 2" fill-rule="evenodd" style="fill:#37339C" transform="translate(0 13.036002976912185)  rotate(0 12.872059810668018 6.457733285434613)" opacity="1" d="M10.75,9.66C7.55,8.93 5.08,6.72 3.86,3.92C3.86,3.92 5.4,3.78 5.89,3.73C6.38,3.68 6.49,3.12 6.04,2.84C5.59,2.56 1.87,0.45 1.32,0.17C0.63,-0.19 -0.06,0 0,0.95C0.44,6.45 4.39,11.27 10.07,12.58C17.08,14.19 24.06,9.83 25.66,2.85C25.68,2.75 25.7,2.66 25.72,2.56C25.76,2.23 25.8,2.1 25.44,2C25.08,1.91 23.93,1.58 23.46,1.41C22.99,1.25 22.92,1.61 22.88,1.85C22.83,2.09 22.83,2.07 22.81,2.18C21.58,7.55 16.1,10.91 10.75,9.66Z " /><path id="路径 3" fill-rule="evenodd" style="fill:#37339C" transform="translate(8.10404711700265 6.06134165605131)  rotate(0 4.736551292211565 7.213671755317369)" opacity="1" d="M3.59,8.45L0.59,8.45C0.28,8.61 0.12,8.85 0.12,9.19C0.12,9.53 0.28,9.78 0.59,9.94L3.59,9.94L3.59,13.06C3.57,13.99 3.96,14.44 4.76,14.43C5.56,14.41 5.94,13.95 5.88,13.06L5.88,9.94L8.89,9.94C9.13,9.75 9.25,9.5 9.25,9.19C9.26,8.88 9.14,8.64 8.89,8.45L5.88,8.45L5.88,7.23L8.89,7.21C9.13,7.02 9.25,6.77 9.25,6.47C9.25,6.17 9.13,5.92 8.89,5.73L6.57,5.73L9.38,1.45C9.6,0.8 9.44,0.36 8.89,0.11C8.35,-0.13 7.91,0.02 7.57,0.55L4.73,4.87L1.98,0.55C1.6,-0.01 1.14,-0.13 0.59,0.18C0.04,0.5 -0.12,0.92 0.09,1.45L2.9,5.73L0.59,5.73C0.27,5.92 0.11,6.17 0.12,6.47C0.14,6.77 0.29,7.02 0.59,7.21L3.57,7.21L3.59,8.45Z " /></g></g></svg>