<svg xmlns="http://www.w3.org/2000/svg" xmlns:xlink="http://www.w3.org/1999/xlink" width="48" height="48" viewBox="0 0 48 48" fill="none"><defs><rect id="path_0" x="0" y="0" width="28" height="28" /></defs><g opacity="1" transform="translate(0 0)  rotate(0 24 24)"><path id="矩形 2" fill-rule="evenodd" style="fill:#CCFFE1" transform="translate(0 0)  rotate(0 24 24)" opacity="1" d="M5.878304635907297e-16,38.4C0,40.94607830245963 1.0114256675080107,43.38787586628973 2.8117749006091444,45.18822509939086C4.612124133710278,46.98857433249199 7.053921697540378,48.00000000000001 9.600000000000001,48.00000000000001L38.4,48C43.701933598375625,48.00000000000001 48.00000000000001,43.701933598375625 48.00000000000001,38.400000000000006L48,9.600000000000003C48,7.053921697540378 46.98857433249199,4.612124133710277 45.188225099390856,2.8117749006091435C43.38787586628972,1.0114256675080107 40.94607830245962,0 38.4,0L9.600000000000003,0C7.053921697540378,-1.7763568394002505e-15 4.612124133710276,1.0114256675080107 2.811774900609141,2.8117749006091435C1.011425667508007,4.612124133710277 -3.552713678800501e-15,7.05392169754038 -3.552713678800501e-15,9.600000000000005Z " /><g opacity="1" transform="translate(10 10)  rotate(0 14 14)"><mask id="bg-mask-0" fill="white"><use xlink:href="#path_0"></use></mask><g mask="url(#bg-mask-0)" ><path id="分组 1" fill-rule="evenodd" style="fill:#3EAD1C" transform="translate(2.2425224688716874 2.242856478442431)  rotate(0 11.757540178741946 11.757204573278763)" opacity="1" d="M7 22.51C8.5 23.17 10.12 23.51 11.77 23.51C12.31 23.51 12.86 23.48 13.41 23.4C18.7 22.67 22.93 18.28 23.46 12.96C23.81 9.42 22.58 5.95 20.08 3.45C17.58 0.95 14.11 -0.29 10.58 0.06C5.26 0.58 0.87 4.78 0.12 10.06C-0.19 12.28 0.12 14.53 1.02 16.55C1.49 17.59 1.45 18.79 0.91 19.76L0.1 21.2C-0.04 21.46 -0.03 21.78 0.12 22.03C0.28 22.29 0.56 22.43 0.86 22.42L5.37 22.2C5.91 22.17 6.48 22.28 7 22.51Z M5.28192 20.5605C5.36192 20.5505 5.45192 20.5505 5.53192 20.5505C6.25192 20.5505 6.98192 20.7105 7.66192 21.0105C9.38192 21.7705 11.2919 22.0405 13.1819 21.7805C17.7319 21.1505 21.3719 17.3705 21.8219 12.7905C22.1219 9.74051 21.0619 6.7605 18.9119 4.6105C16.7619 2.4505 13.7819 1.3905 10.7319 1.6905C6.17192 2.1405 2.39192 5.7505 1.74192 10.2905C1.47192 12.2105 1.74192 14.1405 2.52192 15.8705C3.19192 17.3805 3.13192 19.1305 2.34192 20.5605L2.25192 20.7105L5.28192 20.5605Z M10.655 0.874331L10.665 0.874331 M10.665 0.874331L10.655 0.874331 " /><path id="分组 2" fill-rule="evenodd" style="fill:#3EAD1C" transform="translate(8.164950039271552 8.198443062459203)  rotate(0 5.835268848600894 5.8018110271156935)" opacity="1" d="M3.36 1.19C3.57 0.47 3.4 0.08 2.83 0.01C2.54 -0.02 2.33 0.03 2.21 0.18C2.1 0.33 2.01 0.56 1.94 0.86C1.85 1.26 1.75 1.64 1.65 2.01C1.55 2.37 1.44 2.72 1.32 3.05C1.2 3.39 1.06 3.72 0.9 4.04C0.75 4.37 0.56 4.7 0.36 5.03C0.13 5.38 0.01 5.65 0 5.85C-0.01 6.05 0.09 6.21 0.3 6.35C0.46 6.47 0.62 6.53 0.8 6.54C0.97 6.54 1.15 6.44 1.33 6.23L1.33 10.85C1.33 11.11 1.38 11.29 1.47 11.41C1.57 11.53 1.76 11.59 2.03 11.59C2.25 11.59 2.43 11.53 2.55 11.41C2.68 11.29 2.74 11.11 2.74 10.85L2.74 10.85L2.74 3.21C2.85 2.9 2.96 2.57 3.06 2.23C3.16 1.9 3.26 1.55 3.36 1.19Z M4.56544 11.1209C4.92544 10.7609 5.25544 10.4209 5.54544 10.0809C5.82544 9.7509 6.05544 9.4509 6.22544 9.1809C6.41544 8.9309 6.50544 8.7109 6.51544 8.5109C6.52544 8.3009 6.39544 8.1209 6.14544 7.9609L6.13544 7.9509C5.92544 7.8209 5.73544 7.7909 5.57544 7.8509C5.40544 7.9209 5.22544 8.1009 5.02544 8.4209C4.68544 8.9809 4.20544 9.5309 3.59544 10.0809C3.26544 10.3609 3.08544 10.5909 3.06544 10.7809C3.04544 10.9609 3.12544 11.1309 3.29544 11.2809C3.38544 11.3909 3.47544 11.4809 3.56544 11.5309C3.64544 11.5909 3.73544 11.6109 3.82544 11.6009C3.91544 11.5909 4.02544 11.5409 4.13544 11.4709C4.25544 11.3909 4.39544 11.2809 4.56544 11.1209Z M9.70689 0.184604C9.58689 0.0946038 9.41689 0.0446038 9.19689 0.0446038C8.98689 0.0446038 8.80689 0.0946038 8.67689 0.204604C8.55689 0.304604 8.48689 0.484604 8.48689 0.744604L8.48689 2.4846L6.46689 2.4846L6.46689 0.804604C6.46689 0.534604 6.39689 0.344604 6.25689 0.244604C6.11689 0.154604 5.94689 0.104604 5.75689 0.104604C5.56689 0.104604 5.39689 0.154604 5.25689 0.264604C5.11689 0.364604 5.04689 0.544604 5.04689 0.804604L5.04689 2.4846L4.26689 2.4846C3.98689 2.4846 3.80689 2.5546 3.71689 2.6846C3.63689 2.8046 3.59689 2.9746 3.59689 3.1846C3.59689 3.4246 3.63689 3.6046 3.71689 3.7246C3.80689 3.8346 3.98689 3.8946 4.26689 3.8946L5.04689 3.8946L5.04689 6.3246L3.81689 6.3246C3.55689 6.3246 3.37689 6.3946 3.28689 6.5246C3.19689 6.6546 3.14689 6.8346 3.14689 7.0446C3.14689 7.2746 3.19689 7.4446 3.28689 7.5746C3.37689 7.6946 3.55689 7.7546 3.81689 7.7546L10.9769 7.7546C11.2469 7.7546 11.4269 7.6946 11.5169 7.5746C11.6069 7.4446 11.6569 7.2746 11.6569 7.0446C11.6569 6.8346 11.6069 6.6546 11.5169 6.5246C11.4269 6.3946 11.2469 6.3246 10.9769 6.3246L9.88689 6.3246L9.88689 3.8946L10.7369 3.8946C11.0069 3.8946 11.1869 3.8346 11.2769 3.7246C11.3769 3.6046 11.4269 3.4246 11.4269 3.1846C11.4269 2.9746 11.3769 2.8046 11.2769 2.6846C11.1869 2.5546 11.0069 2.4846 10.7369 2.4846L10.7369 2.4846L9.88689 2.4846L9.88689 0.744604C9.88689 0.464604 9.82689 0.284604 9.70689 0.184604Z M8.48751 6.3246L8.48751 3.8946L6.46751 3.8946L6.46751 6.3246L8.48751 6.3246Z M11.3759 11.4159C11.5359 11.2759 11.6359 11.1159 11.6659 10.9359C11.6959 10.7459 11.5959 10.5159 11.3659 10.2359C11.2059 10.0059 11.0559 9.81594 10.9259 9.63594C10.7959 9.46594 10.6559 9.30594 10.5259 9.14594C10.3959 8.98594 10.2559 8.83594 10.1159 8.68594C9.9759 8.53594 9.8259 8.37594 9.6559 8.20594C9.4359 7.97594 9.2259 7.85594 9.0159 7.84594C8.8059 7.83594 8.6259 7.91594 8.4659 8.09594C8.2759 8.32594 8.2159 8.52594 8.2759 8.70594C8.3359 8.88594 8.4759 9.06594 8.6859 9.24594C8.9659 9.52594 9.2359 9.81594 9.4759 10.0959C9.7159 10.3859 9.9559 10.7059 10.1859 11.0659C10.3959 11.3659 10.5959 11.5359 10.7759 11.5659C10.9659 11.6059 11.1559 11.5559 11.3359 11.4259L11.3759 11.4159Z " /></g></g></g></svg>