<svg xmlns="http://www.w3.org/2000/svg" xmlns:xlink="http://www.w3.org/1999/xlink" width="48" height="48" viewBox="0 0 48 48" fill="none"><g opacity="1" transform="translate(0 0)  rotate(0 24 24)"><path id="矩形 2" fill-rule="evenodd" style="fill:#FFF7E8" transform="translate(0 0)  rotate(0 24 24)" opacity="1" d="M9.6,48L38.4,48C43.7,48 48,43.7 48,38.4L48,9.6C48,4.3 43.7,0 38.4,0L9.6,0C4.3,0 0,4.3 0,9.6L0,38.4C0,43.7 4.3,48 9.6,48Z " /><g opacity="1" transform="translate(10 9)  rotate(0 14 14)"><path id="Combined Shape" fill-rule="evenodd" style="fill:#FAB124" transform="translate(3.5 3.5)  rotate(0 10.5 10.5)" opacity="1" d="M8.15,4.85l3.14,3.15h-10.79c-0.28,0 -0.5,0.22 -0.5,0.5c0,0.28 0.22,0.5 0.5,0.5h10.79l-3.14,3.15c-0.2,0.19 -0.2,0.51 0,0.7c0.19,0.2 0.51,0.2 0.7,0l4,-4c0.2,-0.19 0.2,-0.51 0,-0.7l-4,-4c-0.19,-0.2 -0.51,-0.2 -0.7,0c-0.2,0.19 -0.2,0.51 0,0.7z M15.5,0h-8c-0.28,0 -0.5,0.22 -0.5,0.5c0,0.28 0.22,0.5 0.5,0.5h8c0.83,0 1.5,0.67 1.5,1.5v13c0,0.83 -0.67,1.5 -1.5,1.5h-8c-0.28,0 -0.5,0.22 -0.5,0.5c0,0.28 0.22,0.5 0.5,0.5h8c1.38,0 2.5,-1.12 2.5,-2.5v-13c0,-1.38 -1.12,-2.5 -2.5,-2.5z " /></g></g></svg>