<svg xmlns="http://www.w3.org/2000/svg" xmlns:xlink="http://www.w3.org/1999/xlink" width="48" height="48" viewBox="0 0 48 48" fill="none"><g opacity="1"  transform="translate(0 0)  rotate(0)"><path id="矩形 2" fill-rule="evenodd" style="fill:#FFF7E8" opacity="1" d="M9.6 48L38.4 48C43.7 48 48 43.7 48 38.4L48 9.6C48 4.3 43.7 0 38.4 0L9.6 0C4.3 0 0 4.3 0 9.6L0 38.4C0 43.7 4.3 48 9.6 48Z"></path><g opacity="1"  transform="translate(9 11)  rotate(0)"><mask id="bg-mask-0" fill="white"><use xlink:href="#path_0"></use></mask><g mask="url(#bg-mask-0)" ><path id="路径 1" fill-rule="evenodd" style="fill:#FFC300" opacity="1" d="M7.44,7l1.92,7h10.96l2.15,-7zM5.91,1.75l0.5,1.75l0.5,1.75h16.76c0.59,0 0.98,0.61 0.81,1.18l-2.67,8.71c-0.13,0.37 -0.44,0.61 -0.81,0.61h-11.07l-1.09,1.75h13.91v1.75h-15.53c-0.48,0 -0.88,-0.39 -0.88,-0.87c0,-0.25 0.11,-0.49 0.29,-0.64l1.42,-2.27c-0.09,-0.09 -0.15,-0.2 -0.2,-0.33l-2.73,-9.89l-0.5,-1.75h-2.87v-1.75zM7,22.75c0,-0.97 0.78,-1.75 1.75,-1.75c0.97,0 1.75,0.78 1.75,1.75c0,0.97 -0.78,1.75 -1.75,1.75c-0.97,0 -1.75,-0.78 -1.75,-1.75zM19.25,22.75c0,-0.97 0.78,-1.75 1.75,-1.75c0.97,0 1.75,0.78 1.75,1.75c0,0.97 -0.78,1.75 -1.75,1.75c-0.97,0 -1.75,-0.78 -1.75,-1.75z"></path></g></g></g><defs><rect id="path_0" x="0" y="0" width="28" height="28" /></defs></svg>