<svg xmlns="http://www.w3.org/2000/svg" xmlns:xlink="http://www.w3.org/1999/xlink" width="48" height="48" viewBox="0 0 48 48" fill="none"><defs><rect id="path_0" x="0" y="0" width="28" height="28" /></defs><g opacity="1" transform="translate(0 0)  rotate(0 24 24)"><g opacity="1" transform="translate(0 0)  rotate(0 24 24)"><g opacity="1" transform="translate(0 0)  rotate(0 24 24)"><path id="矩形 2" fill-rule="evenodd" style="fill:#EDEFFE" transform="translate(0 0)  rotate(0 24 24)" opacity="1" d="M5.878304635907297e-16,38.4C0,40.94607830245963 1.0114256675080107,43.38787586628973 2.8117749006091444,45.18822509939086C4.612124133710278,46.98857433249199 7.053921697540378,48.00000000000001 9.600000000000001,48.00000000000001L38.4,48C43.701933598375625,48.00000000000001 48.00000000000001,43.701933598375625 48.00000000000001,38.400000000000006L48,9.600000000000003C48,7.053921697540378 46.98857433249199,4.612124133710277 45.188225099390856,2.8117749006091435C43.38787586628972,1.0114256675080107 40.94607830245962,0 38.4,0L9.600000000000003,0C7.053921697540378,-1.7763568394002505e-15 4.612124133710276,1.0114256675080107 2.811774900609141,2.8117749006091435C1.011425667508007,4.612124133710277 -3.552713678800501e-15,7.05392169754038 -3.552713678800501e-15,9.600000000000005Z " /><g opacity="1" transform="translate(10 10)  rotate(0 14 14)"><mask id="bg-mask-0" fill="white"><use xlink:href="#path_0"></use></mask><g mask="url(#bg-mask-0)" ><path id="分组 1" fill-rule="evenodd" style="fill:#37339C" transform="translate(1.9600000000000026 1.8200000000000154)  rotate(0 12.739999999999998 10.290000000000001)" opacity="1" d="M1.12 0C0.5 0 0 0.5 0 1.12L0 19.46C0 20.08 0.5 20.58 1.12 20.58L24.36 20.58C24.98 20.58 25.48 20.08 25.48 19.46L25.48 1.12C25.48 0.5 24.98 0 24.36 0L1.12 0Z M1.1 19.74L1.12 19.74L24.36 19.74C24.51 19.74 24.63 19.63 24.64 19.48L24.64 19.46L24.64 1.12C24.64 0.97 24.53 0.85 24.38 0.84L24.36 0.84L1.12 0.84C0.97 0.84 0.85 0.95 0.84 1.1L0.84 1.12L0.84 19.46C0.84 19.61 0.95 19.73 1.1 19.74Z " /><g opacity="1" transform="translate(1.9600000000000026 5.88000000000001)  rotate(0 12.739999999999998 1.890000000000002)"><path id="路径 3" fill-rule="evenodd" style="fill:#37339C" transform="translate(0 0)  rotate(0 12.739999999999998 0.42)" opacity="1" d="M0,0.84L25.48,0.84L25.48,0L0,0L0,0.84Z " /><path id="路径 4" fill-rule="evenodd" style="fill:#37339C" transform="translate(14.84000000000001 2.940000000000005)  rotate(0 4.0600000000000005 0.4199999999999996)" opacity="1" d="M0,0.84L8.12,0.84L8.12,0L0,0L0,0.84Z " /></g><path id="路径 5" fill-rule="evenodd" style="fill:#5459F6" transform="translate(0.6999999999999833 12.739999999999979)  rotate(0 6.72 6.72)" opacity="1" d="M6.72,13.44C10.43,13.44 13.44,10.43 13.44,6.72C13.44,3.01 10.43,0 6.72,0C3.01,0 0,3.01 0,6.72C0,10.43 3.01,13.44 6.72,13.44Z " /><path id="分组 3" fill-rule="evenodd" style="fill:#FFFFFF" transform="translate(5.320000000000015 15.960000000000003)  rotate(0 2.0300000000000002 3.5)" opacity="1" d="M0.9 4.47L0 4.47C0.05 5.1 0.23 5.57 0.56 5.88C0.83 6.14 1.23 6.28 1.76 6.32L1.76 7L2.27 7L2.27 6.32C2.74 6.29 3.13 6.18 3.43 5.98C3.85 5.7 4.06 5.29 4.06 4.75C4.06 4.18 3.79 3.75 3.26 3.45C3.21 3.42 2.88 3.3 2.27 3.08L2.27 1.38C2.46 1.41 2.62 1.46 2.73 1.55C2.92 1.68 3.03 1.9 3.08 2.22L3.96 2.22C3.88 1.66 3.69 1.25 3.37 1.01C3.1 0.79 2.73 0.66 2.27 0.63L2.27 0L1.76 0L1.76 0.63C1.31 0.66 0.95 0.78 0.66 0.98C0.26 1.25 0.07 1.64 0.07 2.15C0.07 2.72 0.33 3.15 0.87 3.44L1.76 3.76L1.76 5.56C1.52 5.53 1.34 5.45 1.2 5.33C1.03 5.16 0.93 4.87 0.9 4.47Z M2.26926 3.94618L2.26926 5.56618C2.48926 5.52618 2.67926 5.46618 2.82926 5.36618C3.04926 5.22618 3.15926 5.02618 3.15926 4.77618C3.15926 4.42618 2.88926 4.16618 2.34926 3.97618C2.31926 3.96618 2.29926 3.95618 2.26926 3.94618L2.26926 3.94618Z M1.76258 2.8869L1.76258 1.3769C1.56258 1.3969 1.39258 1.4569 1.28258 1.5269C1.07258 1.6569 0.97258 1.8569 0.97258 2.1469C0.97258 2.4369 1.23258 2.6869 1.76258 2.8869L1.76258 2.8869Z " /><path id="分组 4" fill-rule="evenodd" style="fill:#37339C" transform="translate(0.6999999999999833 12.73999999999998)  rotate(0 12.11 6.720000000000001)" opacity="1" d="M0 6.72C0 10.43 3.01 13.44 6.72 13.44C10.43 13.44 13.44 10.43 13.44 6.72C13.44 3.01 10.43 0 6.72 0C3.01 0 0 3.01 0 6.72Z M0.84 6.72C0.84 9.97 3.47 12.6 6.72 12.6C9.97 12.6 12.6 9.97 12.6 6.72C12.6 3.47 9.97 0.84 6.72 0.84C3.47 0.84 0.84 3.47 0.84 6.72Z M14 4.34L18.76 6.72L18.76 4.76L24.22 4.76L24.22 3.92L18.76 3.92L18.76 1.96L14 4.34Z " /></g></g></g></g></g></svg>