<svg xmlns="http://www.w3.org/2000/svg" xmlns:xlink="http://www.w3.org/1999/xlink" width="48" height="48" viewBox="0 0 48 48" fill="none"><g opacity="1"  transform="translate(0 0)  rotate(0)"><g opacity="1"  transform="translate(0 0)  rotate(0)"><path id="矩形 2" fill-rule="evenodd" style="fill:#FFF7E8" opacity="1" d="M9.6 48L38.4 48C43.7 48 48 43.7 48 38.4L48 9.6C48 4.3 43.7 0 38.4 0L9.6 0C4.3 0 0 4.3 0 9.6L0 38.4C0 43.7 4.3 48 9.6 48Z"></path></g><path id="路径 1" fill-rule="evenodd" style="fill:#FAB124" opacity="1" d="M35.39,38h-22.78c-1.49,0 -2.61,-1.12 -2.61,-2.61v-5.23c0,-1.49 1.12,-2.61 2.61,-2.61h0.75v-14.94c0,-1.49 1.12,-2.61 2.61,-2.61h16.06c1.49,0 2.61,1.12 2.61,2.61v14.94h0.75c1.49,0 2.61,1.12 2.61,2.61v5.23c0,1.49 -1.12,2.61 -2.61,2.61zM15.97,11.68c-0.56,0 -0.93,0.37 -0.93,0.93v19.23h17.73v-19.23c0,-0.37 -0.37,-0.93 -0.74,-0.93zM35.2,29.23h-0.75v2.61c0.38,0 0.75,0.37 0.75,0.93c0,0.56 -0.37,0.94 -0.93,0.94h-20.91c-0.56,0 -0.93,-0.38 -0.93,-0.94c0,-0.37 0.37,-0.74 0.74,-0.93v-2.61h-0.74c-0.56,0 -0.94,0.37 -0.94,0.93v5.23c0,0.56 0.38,0.93 0.94,0.93h22.96c0.56,0 0.93,-0.37 0.93,-0.93v-5.23h-0.19c0,-0.56 -0.37,-0.93 -0.93,-0.93z"></path><path id="路径 2" fill-rule="evenodd" style="fill:#FAB124" opacity="1" d="M28.5548 20.36L24.7448 23.82L24.7448 16.07C24.7448 15.58 24.4148 15.25 23.9148 15.25C23.4248 15.25 22.9248 15.58 22.9248 16.07L22.9248 23.82L19.4448 20.36C18.9548 20.03 18.4548 20.03 18.1248 20.36C17.7948 20.86 17.7948 21.35 18.1248 21.68L23.4248 26.46C23.4248 26.46 23.4248 26.63 23.5848 26.63L24.2448 26.63L24.4148 26.46L29.8748 21.84C30.2048 21.51 30.2048 20.86 29.8748 20.53C29.5448 20.2 29.0448 20.03 28.5548 20.36L28.5548 20.36Z"></path></g></svg>