<svg xmlns="http://www.w3.org/2000/svg"  width="18" height="18" viewBox="0 0 18 18" fill="none">
<path d="M14.2407 3.75927C11.3511 0.869101 6.64892 0.869101 3.75926 3.75927C0.869106 6.64891 0.869106 11.3511 3.75926 14.2407C6.64892 17.1309 11.3511 17.1309 14.2407 14.2407C17.1309 11.3511 17.1309 6.64891 14.2407 3.75927ZM13.4885 13.4885C11.0136 15.964 6.9859 15.9634 4.51149 13.4885C2.03598 11.0135 2.03598 6.98642 4.51149 4.5112C6.98591 2.0365 11.0136 2.03597 13.4885 4.5112C15.9635 6.9859 15.9635 11.0141 13.4885 13.4885Z"   fill="#F27D07" >
</path>
<path d="M12.6818 9.16691L9.05985 9.16691L9.06036 5.16002C9.06036 4.89415 8.84304 4.67734 8.57692 4.67734C8.31083 4.67734 8.09453 4.89415 8.09453 5.16002L8.09453 9.2929C8.09453 9.30757 8.07672 9.65302 8.30714 9.89864C8.4536 10.0535 8.65937 10.1322 8.92497 10.1322L12.6818 10.1328C12.9479 10.1328 13.1647 9.9165 13.1647 9.64984C13.1647 9.38476 12.9484 9.16848 12.6818 9.16691Z"   fill="#F27D07" >
</path>
</svg>
