<svg xmlns="http://www.w3.org/2000/svg" xmlns:xlink="http://www.w3.org/1999/xlink" width="48" height="48" viewBox="0 0 48 48" fill="none"><defs><rect id="path_0" x="0" y="0" width="28" height="28" /></defs><g opacity="1" transform="translate(0 0)  rotate(0 24 24)"><path id="矩形 2" fill-rule="evenodd" style="fill:#FFF7E8" transform="translate(0 0)  rotate(0 24 24)" opacity="1" d="M5.878304635907297e-16,38.4C0,40.94607830245963 1.0114256675080107,43.38787586628973 2.8117749006091444,45.18822509939086C4.612124133710278,46.98857433249199 7.053921697540378,48.00000000000001 9.600000000000001,48.00000000000001L38.4,48C43.701933598375625,48.00000000000001 48.00000000000001,43.701933598375625 48.00000000000001,38.400000000000006L48,9.600000000000003C48,7.053921697540378 46.98857433249199,4.612124133710277 45.188225099390856,2.8117749006091435C43.38787586628972,1.0114256675080107 40.94607830245962,0 38.4,0L9.600000000000003,0C7.053921697540378,-1.7763568394002505e-15 4.612124133710276,1.0114256675080107 2.811774900609141,2.8117749006091435C1.011425667508007,4.612124133710277 -3.552713678800501e-15,7.05392169754038 -3.552713678800501e-15,9.600000000000005Z " /><g opacity="1" transform="translate(10 10)  rotate(0 14 14)"><mask id="bg-mask-0" fill="white"><use xlink:href="#path_0"></use></mask><g mask="url(#bg-mask-0)" ><path id="分组 1" fill-rule="evenodd" style="fill:#FAB124" transform="translate(0.47888745409734135 0.5335920660153608)  rotate(0 13.492874178580587 13.491796315920364)" opacity="1" d="M2.52 5.59C-1.31 10.77 -0.65 18.14 3.68 22.8C8.06 27.5 15.42 28.3 20.8 24.89C26.51 21.27 28.52 13.85 25.76 7.76C25.15 6.4 24.26 5.17 23.24 4.09C22.62 3.44 21.63 4.43 22.25 5.08C24.8 7.77 25.96 11.37 25.55 15.04C25.2 18.13 23.51 20.96 21.14 22.93C16.12 27.1 8.54 26.21 4.3 21.4C0.58 17.18 0.5 10.8 3.73 6.29C7.34 1.27 14.41 -0.02 19.69 3.05C20.47 3.5 21.18 2.29 20.4 1.84C14.34 -1.68 6.65 0 2.52 5.59Z M6.02023 18.9027C5.68023 19.0727 5.59023 19.3927 5.76023 19.8627C5.93023 20.2027 6.21023 20.3027 6.59023 20.1827C7.10023 19.9227 7.67023 19.5427 8.30023 19.0327C8.47023 18.9027 8.60023 18.8227 8.69023 18.7827C9.91023 19.7127 11.3802 20.2227 13.0702 20.3027L20.5702 20.3027C21.0402 20.2627 21.2902 20.0527 21.3402 19.6727C21.2902 19.2427 21.0402 19.0127 20.5702 18.9727L20.5702 18.9727L12.8802 18.9727C10.5902 18.8827 9.38023 18.0627 9.26023 16.4927L9.26023 12.5527C9.26023 11.8727 8.90023 11.5327 8.18023 11.5327L6.14023 11.5327C5.80023 11.5327 5.61023 11.7427 5.57023 12.1727C5.61023 12.5927 5.80023 12.8027 6.14023 12.8027L7.41023 12.8027C7.80023 12.8027 7.99023 13.0327 7.99023 13.5027L7.99023 16.9327C7.94023 17.7827 7.29023 18.4427 6.02023 18.9027Z M7.60143 6.76554C7.26143 6.46555 6.92143 6.42555 6.59143 6.63555C6.33143 6.93554 6.35143 7.25555 6.65143 7.59555C7.32143 8.30554 7.96143 9.04555 8.56143 9.81555C8.85143 10.1955 9.17143 10.2855 9.51143 10.0755C9.85143 9.81555 9.89143 9.49555 9.64143 9.11555C8.87143 8.09554 8.20143 7.31555 7.60143 6.76554Z M10.8461 7.277L10.8461 17.567C10.8461 18.547 11.3561 18.847 12.3761 18.457C13.3461 18.037 14.2561 17.507 15.1061 16.867C15.4861 16.537 15.5561 16.197 15.2961 15.857C15.0461 15.517 14.7061 15.497 14.2761 15.787C13.7761 16.217 13.1361 16.637 12.3761 17.067C12.2461 17.107 12.1861 17.067 12.1861 16.937L12.1861 12.427L18.6661 12.427C19.3461 12.377 19.7061 12.037 19.7461 11.407L19.7461 11.407L19.7461 7.207C19.7861 6.407 19.3861 6.047 18.5361 6.127L12.0561 6.127C11.1661 6.087 10.7661 6.467 10.8461 7.277Z M18.4786 8.61131L18.4786 7.91131C18.5186 7.48131 18.3686 7.29131 18.0286 7.34131L12.6286 7.34131C12.2886 7.34131 12.1186 7.53131 12.1186 7.91131L12.1186 8.61131L18.4786 8.61131Z M18.4786 10.7662L18.4786 9.81618L12.1186 9.81618L12.1186 11.2162L18.0286 11.2162L18.0286 11.2162C18.3286 11.2162 18.4786 11.0662 18.4786 10.7662Z M18.7954 18.2756C19.1354 18.6056 19.4754 18.6756 19.8154 18.4656C20.1054 18.2056 20.1054 17.8656 19.8154 17.4456C19.3054 16.8056 18.6654 16.1556 17.9054 15.4756C18.7554 14.8356 19.3654 14.3256 19.7454 13.9456C20.0454 13.6056 20.0454 13.2756 19.7454 12.9356C19.4054 12.6756 19.0854 12.6956 18.7954 12.9956C18.1154 13.6756 17.4754 14.2056 16.8854 14.5856C16.7554 14.4556 16.5454 14.2856 16.2554 14.0756C15.5754 13.5656 15.0454 13.1856 14.6654 12.9356C14.3254 12.7156 14.0254 12.7856 13.7754 13.1256C13.5154 13.4656 13.5354 13.7556 13.8354 14.0156C15.6954 15.1956 17.3554 16.6156 18.7954 18.2756Z " /></g></g></g></svg>