<svg xmlns="http://www.w3.org/2000/svg" xmlns:xlink="http://www.w3.org/1999/xlink" width="47.850006103515625" height="48" viewBox="0 0 47.850006103515625 48" fill="none"><g opacity="1"  transform="translate(0 0)  rotate(0)"><path id="矩形 2" fill-rule="evenodd" style="fill:#FFF7E8" opacity="1" d="M9.6 48L38.25 48C43.55 48 47.85 43.7 47.85 38.4L47.85 9.6C47.85 4.3 43.55 0 38.25 0L9.6 0C4.3 0 0 4.3 0 9.6L0 38.4C0 43.7 4.3 48 9.6 48Z"></path><path id="路径 1" fill-rule="evenodd" style="fill:#FAB124" opacity="1" d="M35.2,35.89c-2.73,1.81 -6.51,1.36 -8.67,-1.02c-2.17,-2.38 -2.01,-5.91 0.36,-8.11c2.38,-2.21 6.18,-2.36 8.74,-0.34c2.57,2.01 3.04,5.51 1.1,8.06l1.95,1.81c0.43,0.39 0.43,1.03 0,1.42c-0.42,0.39 -1.1,0.39 -1.52,0zM18.54,13v-1c0,-1.1 0.96,-2 2.15,-2h4.31c1.19,0 2.15,0.9 2.15,2v1h2.16c2.97,0 5.38,2.24 5.38,5v6c0,0.55 -0.48,1 -1.08,1c-0.59,0 -1.07,-0.45 -1.07,-1v-6c0,-1.66 -1.45,-3 -3.23,-3h-12.93c-1.78,0 -3.23,1.34 -3.23,3v12c0,1.66 1.45,3 3.23,3h7.54c0.6,0 1.08,0.45 1.08,1c0,0.55 -0.48,1 -1.08,1h-7.54c-2.97,0 -5.38,-2.24 -5.38,-5v-12c0,-2.76 2.41,-5 5.38,-5zM25,13v-1h-4.31v1zM17.46,18h10.77c0.59,0 1.08,0.45 1.08,1c0,0.55 -0.49,1 -1.08,1h-10.77c-0.59,0 -1.08,-0.45 -1.08,-1c0,-0.55 0.49,-1 1.08,-1zM17.46,22h10.77c0.59,0 1.08,0.45 1.08,1c0,0.55 -0.49,1 -1.08,1h-10.77c-0.59,0 -1.08,-0.45 -1.08,-1c0,-0.55 0.49,-1 1.08,-1zM17.46,26h6.46c0.6,0 1.08,0.45 1.08,1c0,0.55 -0.48,1 -1.08,1h-6.46c-0.59,0 -1.08,-0.45 -1.08,-1c0,-0.55 0.49,-1 1.08,-1zM35.19,33c0.77,-1.24 0.77,-2.76 0,-4c-0.77,-1.24 -2.19,-2 -3.73,-2c-2.38,0 -4.31,1.79 -4.31,4c0,2.21 1.93,4 4.31,4c1.54,0 2.96,-0.76 3.73,-2z"></path></g></svg>