<svg xmlns="http://www.w3.org/2000/svg" xmlns:xlink="http://www.w3.org/1999/xlink" width="48" height="48" viewBox="0 0 48 48" fill="none"><g opacity="1" transform="translate(0 0)  rotate(0 24 24)"><path id="矩形 2" fill-rule="evenodd" style="fill:#EDEFFE" transform="translate(0 0)  rotate(0 24 24)" opacity="1" d="M5.878304635907297e-16,38.4C0,40.94607830245963 1.0114256675080107,43.38787586628973 2.8117749006091444,45.18822509939086C4.612124133710278,46.98857433249199 7.053921697540378,48.00000000000001 9.600000000000001,48.00000000000001L38.4,48C43.701933598375625,48.00000000000001 48.00000000000001,43.701933598375625 48.00000000000001,38.400000000000006L48,9.600000000000003C48,7.053921697540378 46.98857433249199,4.612124133710277 45.188225099390856,2.8117749006091435C43.38787586628972,1.0114256675080107 40.94607830245962,0 38.4,0L9.600000000000003,0C7.053921697540378,-1.7763568394002505e-15 4.612124133710276,1.0114256675080107 2.811774900609141,2.8117749006091435C1.011425667508007,4.612124133710277 -3.552713678800501e-15,7.05392169754038 -3.552713678800501e-15,9.600000000000005Z " /><g opacity="1" transform="translate(9 9)  rotate(0 14 14)"><path id="Combined Shape" fill-rule="evenodd" style="fill:#37339C" transform="translate(3.5 3.5)  rotate(0 10.5 10.5)" opacity="1" d="M0.15,8.15c-0.2,0.19 -0.2,0.51 0,0.7l4,4c0.19,0.2 0.51,0.2 0.7,0c0.2,-0.19 0.2,-0.51 0,-0.7l-3.14,-3.15h10.79c0.28,0 0.5,-0.22 0.5,-0.5c0,-0.28 -0.22,-0.5 -0.5,-0.5h-10.79l3.14,-3.15c0.2,-0.19 0.2,-0.51 0,-0.7c-0.19,-0.2 -0.51,-0.2 -0.7,0z M7.5,1h8c0.83,0 1.5,0.67 1.5,1.5v13c0,0.83 -0.67,1.5 -1.5,1.5h-8c-0.28,0 -0.5,0.22 -0.5,0.5c0,0.28 0.22,0.5 0.5,0.5h8c1.38,0 2.5,-1.12 2.5,-2.5v-13c0,-1.38 -1.12,-2.5 -2.5,-2.5h-8c-0.28,0 -0.5,0.22 -0.5,0.5c0,0.28 0.22,0.5 0.5,0.5z " /></g></g></svg>