<svg xmlns="http://www.w3.org/2000/svg" xmlns:xlink="http://www.w3.org/1999/xlink" width="48" height="48" viewBox="0 0 48 48" fill="none">
<rect  x="0" y="0" width="48" height="48" rx="9.600000000000001"    fill="#D43030" opacity="0.25">
</rect>
<path d="M36.7533 20.5678C35.3632 15.4964 30.9529 11.5737 25.4075 11.0666C18.2646 10.4135 11.9446 15.6745 11.2915 22.8174C10.6383 29.9603 15.8993 36.2802 23.0423 36.9334C28.6374 37.4451 33.7264 34.3273 35.9836 29.5194C36.0352 29.4316 36.0688 29.3314 36.0787 29.2233C36.1146 28.8306 35.8255 28.4834 35.4329 28.4475C35.1408 28.4208 34.8737 28.5743 34.7414 28.8163C34.7414 28.8164 34.7413 28.8164 34.7412 28.8165C34.741 28.8169 34.7408 28.8173 34.7407 28.8177C34.7276 28.8417 34.716 28.8666 34.7057 28.8922C32.8629 32.8312 28.8574 35.5607 24.2214 35.5607C17.8366 35.5607 12.6607 30.3848 12.6607 24C12.6607 17.6153 17.8366 12.4394 24.2214 12.4394C29.5259 12.4394 33.9954 16.0122 35.3562 20.8825L33.2695 21.3525L36.1057 23.4439C36.1173 23.4533 36.1294 23.462 36.1418 23.4705C36.2862 23.571 36.4704 23.6135 36.6556 23.5717C36.841 23.53 36.9891 23.4127 37.0766 23.2599L37.0978 23.2204L38.7635 20.115L36.7533 20.5678ZM28.9876 18.4637C28.8597 18.331 28.6805 18.2483 28.4817 18.2483C28.2829 18.2483 28.1037 18.331 27.9758 18.4637L27.975 18.4637L24.6237 21.8149L21.3011 18.4923L21.2764 18.4677L21.2724 18.4636L21.272 18.4636C21.1462 18.346 20.9777 18.2734 20.7919 18.2734C20.606 18.2734 20.4375 18.346 20.3118 18.4636C20.1746 18.592 20.0884 18.7741 20.0884 18.9769C20.0884 19.1747 20.1703 19.3532 20.3018 19.481L22.8644 22.0453L21.1068 22.0453C20.7183 22.0453 20.4033 22.3603 20.4033 22.7488C20.4033 23.1373 20.7183 23.4523 21.1068 23.4523L23.9203 23.4523C23.9203 23.4534 23.9202 23.4544 23.9202 23.4554L23.9202 25.5648L21.1068 25.5648C20.7183 25.5648 20.4033 25.8798 20.4033 26.2683C20.4033 26.6568 20.7183 26.9718 21.1068 26.9718L23.9202 26.9718L23.9202 31.1929C23.9202 31.5814 24.2352 31.8964 24.6237 31.8964C25.0123 31.8964 25.3272 31.5814 25.3272 31.1929L25.3272 26.9718L28.1406 26.9718C28.5291 26.9718 28.8441 26.6568 28.8441 26.2683C28.8441 25.8798 28.5291 25.5648 28.1406 25.5648L25.3272 25.5648L25.3272 23.4554C25.3272 23.4543 25.3271 23.4534 25.3271 23.4523L28.1406 23.4523C28.5291 23.4523 28.8441 23.1373 28.8441 22.7488C28.8441 22.3602 28.5291 22.0453 28.1406 22.0453L26.3831 22.0453L28.9862 19.4414C28.9862 19.4414 28.9861 19.4415 28.9861 19.4415C29.1091 19.3148 29.1852 19.1423 29.1852 18.9517C29.1852 18.762 29.1097 18.5902 28.9876 18.4637Z"   fill="#D43030" opacity="0.78">
</path>
</svg>
