<svg xmlns="http://www.w3.org/2000/svg" xmlns:xlink="http://www.w3.org/1999/xlink" width="48" height="48" viewBox="0 0 48 48" fill="none"><defs><rect id="path_0" x="0" y="0" width="28" height="28" /></defs><g opacity="1" transform="translate(0 0)  rotate(0 23.925 24)"><path id="矩形 2" fill-rule="evenodd" style="fill:#FFF7E8" transform="translate(0 0)  rotate(0 23.925 24)" opacity="1" d="M9.6,48L38.25,48C43.55,48 47.85,43.7 47.85,38.4L47.85,9.6C47.85,4.3 43.55,0 38.25,0L9.6,0C4.3,0 0,4.3 0,9.6L0,38.4C0,43.7 4.3,48 9.6,48Z " /><g opacity="1" transform="translate(10 11)  rotate(0 14 14)"><mask id="bg-mask-0" fill="white"><use xlink:href="#path_0"></use></mask><g mask="url(#bg-mask-0)" ><path id="分组 1" fill-rule="evenodd" style="fill:#FAB124" transform="translate(1.75 0)  rotate(0 12.25 14)" opacity="1" d="M24.5 15.75C24.5 9.92 20.42 4.67 12.25 0C4.08 4.67 0 9.92 0 15.75C0 24.5 5.97 28 12.25 28C18.53 28 24.5 24.5 24.5 15.75Z M12.25 2.02737C5.16 6.26737 1.75 10.8474 1.75 15.7474C1.75 22.6474 5.92 26.2474 12.25 26.2474C18.58 26.2474 22.75 22.6474 22.75 15.7474C22.75 10.8474 19.34 6.26737 12.25 2.02737Z M9.88941 14.8254L13.5894 11.1154C13.8194 10.8954 13.8994 10.5754 13.8194 10.2754C13.7394 9.97537 13.4994 9.73537 13.1994 9.65537C12.8994 9.57537 12.5794 9.66537 12.3594 9.88537L7.40941 14.8254C7.31941 14.9154 7.24941 15.0154 7.20941 15.1354C6.98941 15.3954 6.93941 15.7554 7.07941 16.0654C7.21941 16.3754 7.52941 16.5754 7.87941 16.5754L14.4094 16.5754L9.40941 21.5754C9.06941 21.9154 9.06941 22.4654 9.40941 22.8054C9.75941 23.1454 10.3094 23.1454 10.6494 22.8054L16.8394 16.6254C16.8694 16.5954 16.8994 16.5554 16.9294 16.5154C17.3194 16.3754 17.5594 15.9654 17.4794 15.5454C17.4094 15.1354 17.0494 14.8254 16.6294 14.8254L9.88941 14.8254Z " /></g></g></g></svg>