<svg xmlns="http://www.w3.org/2000/svg" xmlns:xlink="http://www.w3.org/1999/xlink" width="48" height="50" viewBox="0 0 48 50" fill="none"><g opacity="1" transform="translate(0 -0.0000018495502445148304)  rotate(0 24 24.96969696969696)"><path id="矩形 2" fill-rule="evenodd" style="fill:#EDEFFE" transform="translate(0 0)  rotate(0 24 24.96969696969696)" opacity="1" d="M9.6,49.94L38.4,49.94C43.7,49.94 48,45.64 48,40.34L48,9.6C48,4.3 43.7,0 38.4,0L9.6,0C4.3,0 0,4.3 0,9.6L0,40.34C0,45.64 4.3,49.94 9.6,49.94Z " /><g opacity="1" transform="translate(13 11.939393939393995)  rotate(0 11.3841875 13.125000016579587)"><path id="路径 1" fill-rule="evenodd" style="fill:#37339C" transform="translate(4.375 6.125)  rotate(0 7 0.875)" opacity="1" d="M13.13,1.75C13.61,1.75 14,1.36 14,0.88C14,0.39 13.61,0 13.13,0L0.88,0C0.39,0 0,0.39 0,0.88C0,1.36 0.39,1.75 0.88,1.75L13.13,1.75Z " /><path id="路径 2" fill-rule="evenodd" style="fill:#37339C" transform="translate(4.375 12.25)  rotate(0 7 0.875)" opacity="1" d="M13.13,1.75C13.61,1.75 14,1.36 14,0.88C14,0.39 13.61,0 13.13,0L0.88,0C0.39,0 0,0.39 0,0.88C0,1.36 0.39,1.75 0.88,1.75L13.13,1.75Z " /><path id="路径 3" fill-rule="evenodd" style="fill:#37339C" transform="translate(4.375 18.375)  rotate(0 2.625 0.875)" opacity="1" d="M4.38,1.75C4.86,1.75 5.25,1.36 5.25,0.88C5.25,0.39 4.86,0 4.38,0L0.88,0C0.39,0 0,0.39 0,0.88C0,1.36 0.39,1.75 0.88,1.75L4.38,1.75Z " /><path id="路径 4" fill-rule="evenodd" style="fill:#37339C" transform="translate(0 0)  rotate(0 11.375 13.125000016579587)" opacity="1" d="M15.83,26.25C16.05,26.25 16.25,26.17 16.41,26.04L20.62,22.38C20.98,22.07 21.02,21.51 20.7,21.15C20.39,20.78 19.83,20.74 19.47,21.06L15.51,24.5L2.71,24.5C2.18,24.5 1.75,24.05 1.75,23.49L1.75,2.76C1.75,2.2 2.18,1.75 2.71,1.75L20.04,1.75C20.57,1.75 21,2.2 21,2.76L21,18.19C21,18.67 21.39,19.07 21.88,19.07C22.36,19.07 22.75,18.67 22.75,18.19L22.75,2.76C22.75,1.24 21.54,0 20.04,0L2.71,0C1.21,0 0,1.24 0,2.76L0,23.49C0,25.01 1.21,26.25 2.71,26.25L15.83,26.25Z " /><path id="路径 5" fill-rule="evenodd" style="fill:#37339C" transform="translate(14.875 17.5)  rotate(0 3.9466875000000003 4.3631874999999996)" opacity="1" d="M2.71,1.75L7.02,1.75C7.5,1.75 7.89,1.36 7.89,0.88C7.89,0.39 7.5,0 7.02,0L2.71,0C1.21,0 0,1.24 0,2.76L0,7.85C0,8.33 0.39,8.73 0.88,8.73C1.36,8.73 1.75,8.33 1.75,7.85L1.75,7.85L1.75,2.76C1.75,2.2 2.18,1.75 2.71,1.75Z " /></g></g></svg>