<svg xmlns="http://www.w3.org/2000/svg" xmlns:xlink="http://www.w3.org/1999/xlink" width="48" height="48" viewBox="0 0 48 48" fill="none"><defs><rect id="path_0" x="0" y="0" width="28" height="28" /></defs><g opacity="1" transform="translate(0 0)  rotate(0 23.925 24)"><path id="矩形 2" fill-rule="evenodd" style="fill:#F6E6F4" transform="translate(0 0)  rotate(0 23.925 24)" opacity="1" d="M9.6,48L38.25,48C43.55,48 47.85,43.7 47.85,38.4L47.85,9.6C47.85,4.3 43.55,0 38.25,0L9.6,0C4.3,0 0,4.3 0,9.6L0,38.4C0,43.7 4.3,48 9.6,48Z " /><g opacity="1" transform="translate(10 11)  rotate(0 14 14)"><mask id="bg-mask-0" fill="white"><use xlink:href="#path_0"></use></mask><g mask="url(#bg-mask-0)" ><path id="分组 1" fill-rule="evenodd" style="fill:#F294C9" transform="translate(0.000012686973684400604 0.017875467742590967)  rotate(0 13.995460531786435 13.99214426494516)" opacity="1" d="M4.1 27.98L12.86 27.98L13 27.97C13.59 27.9 14.03 27.41 14.03 26.81L14.02 26.68C13.95 26.09 13.45 25.65 12.86 25.65L4.68 25.65L4.68 10.3L14 2.67L26.07 12.56L26.18 12.64C27.36 13.44 28.71 11.71 27.54 10.76L14.73 0.26L14.61 0.18C14.19 -0.09 13.64 -0.05 13.26 0.26L0.45 10.76L0.34 10.85C-0.67 11.85 0.76 13.52 1.92 12.56L2.35 12.21L2.35 26.19L2.36 26.35C2.44 27.25 3.17 27.98 4.1 27.98Z M7.00771 17.4918C7.00771 18.2619 7.39771 18.6518 8.16771 18.6518L12.8277 18.6518C13.6077 18.6518 13.9977 18.2619 13.9977 17.4918C13.9977 16.7118 13.6077 16.3218 12.8277 16.3218L8.16771 16.3218C7.39771 16.3218 7.00771 16.7118 7.00771 17.4918Z M7.00771 12.8285C7.00771 13.5985 7.39771 13.9885 8.16771 13.9885L12.8277 13.9885C13.6077 13.9885 13.9977 13.5985 13.9977 12.8285C13.9977 12.0485 13.6077 11.6585 12.8277 11.6585L8.16771 11.6585C7.39771 11.6585 7.00771 12.0485 7.00771 12.8285Z M7.00771 22.1552C7.00771 22.9252 7.39771 23.3152 8.16771 23.3152L10.4977 23.3152C11.2777 23.3152 11.6677 22.9252 11.6677 22.1552C11.6677 21.3752 11.2777 20.9852 10.4977 20.9852L8.16771 20.9852C7.39771 20.9852 7.00771 21.3752 7.00771 22.1552Z M26.0917 27.7377C26.5817 28.1177 27.2817 28.0477 27.6817 27.5877C28.0917 27.1277 28.0717 26.4277 27.6317 25.9877L26.1617 24.5177C27.0117 23.0777 27.0217 21.2877 26.1917 19.8377C25.3617 18.3877 23.8217 17.4877 22.1517 17.4877C20.1817 17.4877 18.4317 18.7177 17.7717 20.5677C17.1017 22.4177 17.6617 24.4877 19.1817 25.7377C20.6917 26.9977 22.8217 27.1677 24.5117 26.1677L25.9817 27.6377L26.0917 27.7377Z M19.8194 22.1494C19.8194 23.4394 20.8594 24.4794 22.1494 24.4794C23.4394 24.4794 24.4794 23.4394 24.4794 22.1494C24.4794 20.8594 23.4394 19.8194 22.1494 19.8194C20.8594 19.8194 19.8194 20.8594 19.8194 22.1494Z " /></g></g></g></svg>