<svg xmlns="http://www.w3.org/2000/svg" xmlns:xlink="http://www.w3.org/1999/xlink" width="48" height="48" viewBox="0 0 48 48" fill="none"><defs><rect id="path_0" x="0" y="0" width="28" height="28" /></defs><g opacity="1" transform="translate(0 0)  rotate(0 24 24)"><path id="矩形 2" fill-rule="evenodd" style="fill:#CCFFE1" transform="translate(0 0)  rotate(0 24 24)" opacity="1" d="M5.878304635907297e-16,38.4C0,40.94607830245963 1.0114256675080107,43.38787586628973 2.8117749006091444,45.18822509939086C4.612124133710278,46.98857433249199 7.053921697540378,48.00000000000001 9.600000000000001,48.00000000000001L38.4,48C43.701933598375625,48.00000000000001 48.00000000000001,43.701933598375625 48.00000000000001,38.400000000000006L48,9.600000000000003C48,7.053921697540378 46.98857433249199,4.612124133710277 45.188225099390856,2.8117749006091435C43.38787586628972,1.0114256675080107 40.94607830245962,0 38.4,0L9.600000000000003,0C7.053921697540378,-1.7763568394002505e-15 4.612124133710276,1.0114256675080107 2.811774900609141,2.8117749006091435C1.011425667508007,4.612124133710277 -3.552713678800501e-15,7.05392169754038 -3.552713678800501e-15,9.600000000000005Z " /><g opacity="1" transform="translate(10 9)  rotate(0 14 14)"><mask id="bg-mask-0" fill="white"><use xlink:href="#path_0"></use></mask><g mask="url(#bg-mask-0)" ><path id="分组 1" fill-rule="evenodd" style="fill:#3EAD1C" transform="translate(3.404955449218761 1.8913776328124605)  rotate(0 10.59504455078125 12.108622367187504)" opacity="1" d="M21.19 21.1936L21.19 4.54358C21.19 2.87358 19.83 1.51358 18.16 1.51358L16.8 1.51358L16.8 3.02358L18.16 3.02358C19.07 3.02358 19.68 3.63358 19.68 4.54358L19.68 21.1936C19.68 21.9436 19.07 22.7036 18.16 22.7036L3.03 22.7036C2.12 22.7036 1.51 22.0936 1.51 21.1936L1.51 4.54358C1.51 3.78358 2.12 3.02358 3.03 3.02358L4.54 3.02358L4.54 1.51358L3.03 1.51358C1.36 1.51358 0 2.87358 0 4.54358L0 21.1936C0 22.8536 1.36 24.2136 3.03 24.2136L18.16 24.2136C19.83 24.2136 21.19 22.8536 21.19 21.1936Z M13.6179 3.02358L13.6179 1.51358L7.56789 1.51358L7.56789 3.02358L13.6179 3.02358Z M6.05431 3.03C6.05431 3.94 6.81431 4.54 7.56431 4.54L13.6243 4.54C14.3743 4.54 15.1343 3.94 15.1343 3.03L15.1343 1.51C15.1343 0.61 14.3743 0 13.6243 0L7.56431 0C6.81431 0 6.05431 0.61 6.05431 1.51L6.05431 3.03Z M7.18735 11.2491C7.18735 12.2091 7.58735 13.0791 8.23735 13.6991C6.56735 14.5591 5.41735 16.3091 5.41735 18.3191L6.92735 18.3191C6.92735 16.2891 8.56735 14.6491 10.5974 14.6491C12.6174 14.6491 14.2574 16.2891 14.2574 18.3191L15.7774 18.3191C15.7774 16.3091 14.6274 14.5591 12.9474 13.6991C13.5974 13.0791 13.9974 12.2091 13.9974 11.2491C13.9974 9.35908 12.4774 7.83908 10.5974 7.83908C8.71735 7.83908 7.18735 9.35908 7.18735 11.2491Z M10.5925 13.1427C11.6425 13.1427 12.4925 12.2927 12.4925 11.2427C12.4925 10.2027 11.6425 9.35266 10.5925 9.35266C9.55252 9.35266 8.70252 10.2027 8.70252 11.2427C8.70252 12.2927 9.55252 13.1427 10.5925 13.1427Z " /></g></g></g></svg>