<svg xmlns="http://www.w3.org/2000/svg" xmlns:xlink="http://www.w3.org/1999/xlink" width="28" height="28" viewBox="0 0 28 28" fill="none">
<g  clip-path="url(#clip-path-0)">
<path d="M13.2675 0.26467C13.2792 0.255112 13.291 0.245784 13.3031 0.236687C13.3151 0.227589 13.3273 0.218729 13.3397 0.210106C13.3521 0.201482 13.3647 0.193103 13.3774 0.184967C13.3901 0.176832 13.4029 0.168946 13.416 0.16131C13.429 0.153674 13.4421 0.146294 13.4554 0.139169C13.4687 0.132044 13.4822 0.12518 13.4958 0.118577C13.5093 0.111975 13.523 0.105638 13.5368 0.0995668C13.5506 0.0934959 13.5646 0.0876954 13.5786 0.0821656C13.5926 0.0766355 13.6068 0.0713803 13.6211 0.0663998C13.6353 0.0614194 13.6496 0.0567173 13.6641 0.0522938C13.6785 0.0478701 13.693 0.0437283 13.7076 0.0398684C13.7222 0.0360085 13.7368 0.0324332 13.7516 0.0291426C13.7663 0.025852 13.7811 0.0228486 13.7959 0.0201324C13.8107 0.0174162 13.8256 0.0149892 13.8406 0.0128515C13.8555 0.0107137 13.8705 0.00886684 13.8855 0.00731081C13.9005 0.00575477 13.9156 0.00449073 13.9306 0.00351873C13.9457 0.00254672 13.9607 0.00186746 13.9759 0.00148096C13.9909 0.00109446 14.006 0.001001 14.0211 0.00120058C14.0362 0.00140017 14.0513 0.00189265 14.0664 0.00267802C14.0814 0.00346338 14.0965 0.00454105 14.1115 0.00591105C14.1265 0.007281 14.1415 0.00894227 14.1565 0.0108948C14.1714 0.0128473 14.1864 0.0150896 14.2012 0.0176217C14.2161 0.0201538 14.2309 0.0229738 14.2457 0.0260817C14.2605 0.0291896 14.2752 0.0325829 14.2898 0.036262C14.3044 0.0399408 14.319 0.0439026 14.3335 0.0481471C14.348 0.0523916 14.3624 0.0569156 14.3767 0.0617193C14.391 0.0665227 14.4052 0.0716024 14.4193 0.0769581C14.4334 0.0823134 14.4474 0.087941 14.4613 0.0938404C14.4752 0.0997395 14.4889 0.105906 14.5026 0.112341C14.5162 0.118775 14.5298 0.125472 14.5432 0.132431C14.5566 0.13939 14.5698 0.146607 14.5829 0.154082C14.596 0.161556 14.609 0.169281 14.6218 0.177259L14.743 0.26467L27.5632 10.7539C28.7288 11.7085 27.3769 13.4345 26.1973 12.6397L26.0877 12.5581L14.0053 2.67138L1.92277 12.5581C0.757292 13.5126 -0.666919 11.8448 0.344714 10.8449L0.447276 10.7539L13.2675 0.26467L13.2675 0.26467Z"   fill="#FAB124" >
</path>
<path d="M3.51598 8.76562C3.53362 8.76562 3.55126 8.76603 3.56889 8.76683C3.58652 8.76763 3.60412 8.76883 3.62169 8.77043C3.63927 8.77203 3.6568 8.77404 3.67428 8.77644C3.69176 8.77885 3.70918 8.78164 3.72654 8.78483C3.74389 8.78802 3.76117 8.7916 3.77836 8.79559C3.79557 8.79956 3.81267 8.80392 3.82966 8.80868C3.84665 8.81343 3.86353 8.81857 3.88031 8.82408C3.89706 8.8296 3.91369 8.83549 3.93019 8.84176C3.94667 8.84804 3.96301 8.85469 3.97922 8.8617C3.99541 8.86873 4.01144 8.87611 4.0273 8.88385C4.04314 8.89159 4.05881 8.89969 4.07431 8.90814C4.08979 8.91661 4.10508 8.92541 4.12018 8.93455C4.13527 8.94371 4.15014 8.9532 4.16478 8.96302C4.17945 8.97285 4.19388 8.98301 4.20808 8.9935C4.22229 9.00397 4.23624 9.01478 4.24993 9.0259C4.26365 9.03701 4.27709 9.04843 4.29028 9.06016C4.30347 9.07189 4.31638 9.0839 4.32902 9.09622C4.34167 9.10853 4.35403 9.12112 4.36608 9.134C4.37816 9.14687 4.38993 9.16002 4.40141 9.17344C4.41288 9.18684 4.42404 9.2005 4.4349 9.21442C4.44575 9.22833 4.45628 9.24249 4.46647 9.2569C4.47669 9.27128 4.48657 9.2859 4.49611 9.30074C4.50566 9.31558 4.51486 9.33063 4.52373 9.34589C4.53258 9.36116 4.54109 9.37662 4.54925 9.39228C4.5574 9.40792 4.56521 9.42375 4.57266 9.43976C4.58009 9.45574 4.58716 9.47191 4.59388 9.48824C4.60058 9.50456 4.60691 9.52102 4.61287 9.53763C4.61882 9.55424 4.6244 9.57099 4.62961 9.58787C4.6348 9.60473 4.63961 9.62171 4.64404 9.63879C4.64846 9.65587 4.6525 9.67304 4.65614 9.69031C4.6598 9.70757 4.66305 9.72491 4.66589 9.74232C4.66875 9.75975 4.67122 9.77722 4.67329 9.79474L4.68146 9.93111L4.68146 25.6406L12.8724 25.6417C12.89 25.6417 12.9077 25.6421 12.9253 25.6429C12.943 25.6437 12.9606 25.6449 12.9781 25.6465C12.9957 25.6481 13.0132 25.6501 13.0307 25.6525C13.0482 25.6549 13.0656 25.6577 13.083 25.6609C13.1003 25.6641 13.1176 25.6677 13.1348 25.6717C13.152 25.6757 13.1691 25.68 13.1861 25.6848C13.2031 25.6895 13.22 25.6946 13.2367 25.7002C13.2535 25.7057 13.2701 25.7116 13.2866 25.7179C13.3031 25.7241 13.3194 25.7308 13.3356 25.7378C13.3518 25.7448 13.3679 25.7522 13.3837 25.7599C13.3996 25.7677 13.4152 25.7758 13.4307 25.7842C13.4462 25.7927 13.4615 25.8015 13.4766 25.8107C13.4917 25.8198 13.5066 25.8293 13.5212 25.8391C13.5359 25.849 13.5503 25.8591 13.5645 25.8696C13.5787 25.8801 13.5927 25.8909 13.6064 25.902C13.6201 25.9131 13.6335 25.9245 13.6467 25.9363C13.6599 25.948 13.6728 25.96 13.6855 25.9723C13.6981 25.9846 13.7105 25.9972 13.7225 26.0101C13.7346 26.023 13.7464 26.0361 13.7579 26.0495C13.7693 26.0629 13.7805 26.0766 13.7913 26.0905C13.8022 26.1044 13.8127 26.1186 13.8229 26.133C13.8331 26.1474 13.843 26.162 13.8526 26.1768C13.8621 26.1917 13.8713 26.2067 13.8802 26.222C13.889 26.2373 13.8975 26.2527 13.9057 26.2684C13.9139 26.284 13.9217 26.2998 13.9291 26.3158C13.9365 26.3318 13.9436 26.348 13.9503 26.3643C13.957 26.3807 13.9634 26.3971 13.9693 26.4137C13.9753 26.4303 13.9808 26.4471 13.986 26.4639C13.9913 26.4808 13.9961 26.4978 14.0005 26.5149C14.0049 26.5319 14.009 26.5491 14.0126 26.5664C14.0162 26.5837 14.0195 26.601 14.0223 26.6184C14.0252 26.6358 14.0277 26.6533 14.0297 26.6708L14.0379 26.8072C14.0379 26.8248 14.0375 26.8425 14.0367 26.8601C14.0359 26.8777 14.0347 26.8953 14.0331 26.9129C14.0315 26.9305 14.0295 26.948 14.0271 26.9655C14.0247 26.983 14.0219 27.0004 14.0187 27.0178C14.0155 27.0351 14.0119 27.0524 14.0079 27.0696C14.004 27.0868 13.9996 27.1039 13.9948 27.1209C13.9901 27.1379 13.9849 27.1548 13.9794 27.1715C13.9739 27.1883 13.968 27.2049 13.9618 27.2214C13.9555 27.2379 13.9488 27.2542 13.9418 27.2704C13.9348 27.2866 13.9274 27.3026 13.9197 27.3184C13.9119 27.3343 13.9038 27.3499 13.8954 27.3654C13.8869 27.3809 13.8781 27.3962 13.869 27.4113C13.8598 27.4264 13.8503 27.4414 13.8405 27.4561C13.8307 27.4707 13.8205 27.4851 13.81 27.4993C13.7995 27.5135 13.7887 27.5274 13.7776 27.5411C13.7665 27.5549 13.7551 27.5684 13.7434 27.5815C13.7316 27.5946 13.7196 27.6075 13.7073 27.6203C13.695 27.6328 13.6824 27.6452 13.6695 27.6574C13.6566 27.6694 13.6435 27.6812 13.6301 27.6927C13.6167 27.7041 13.603 27.7153 13.5891 27.726C13.5752 27.7369 13.561 27.7475 13.5466 27.7577C13.5322 27.7679 13.5176 27.7778 13.5028 27.7875C13.4879 27.7969 13.4729 27.8061 13.4576 27.8151C13.4423 27.8238 13.4269 27.8323 13.4112 27.8405C13.3956 27.8486 13.3798 27.8565 13.3638 27.8639C13.3478 27.8714 13.3316 27.8784 13.3153 27.885C13.299 27.8917 13.2825 27.8981 13.2659 27.9041C13.2493 27.9101 13.2325 27.9157 13.2157 27.9208C13.1988 27.926 13.1818 27.9309 13.1647 27.9352C13.1476 27.9396 13.1305 27.9436 13.1132 27.9473C13.0959 27.9509 13.0786 27.9542 13.0612 27.9571C13.0438 27.96 13.0263 27.9625 13.0088 27.9645L12.8724 27.9727L4.09871 27.9727C3.16982 27.9727 2.43674 27.2442 2.35749 26.3457L2.35049 26.1848L2.35049 9.93111C2.35049 9.91202 2.35096 9.89295 2.3519 9.87391C2.35283 9.85486 2.35424 9.83584 2.35611 9.81687C2.35798 9.79789 2.36031 9.77896 2.36311 9.76008C2.36591 9.74121 2.36917 9.72242 2.37289 9.70372C2.37661 9.68502 2.38079 9.66641 2.38542 9.64791C2.39006 9.62941 2.39514 9.61103 2.40068 9.59279C2.40622 9.57454 2.4122 9.55643 2.41862 9.53845C2.42505 9.5205 2.43191 9.50271 2.43921 9.4851C2.44651 9.46747 2.45424 9.45004 2.46239 9.43279C2.47055 9.41554 2.47912 9.39851 2.48811 9.38171C2.4971 9.36488 2.5065 9.34829 2.51631 9.33193C2.52611 9.31556 2.53632 9.29945 2.54691 9.28358C2.55751 9.26774 2.56849 9.25215 2.57985 9.23682C2.59121 9.2215 2.60295 9.20647 2.61505 9.19172C2.62715 9.17698 2.6396 9.16255 2.65241 9.14842C2.66522 9.13429 2.67837 9.12047 2.69185 9.10698C2.70534 9.0935 2.71915 9.08035 2.73329 9.06753C2.74742 9.05473 2.76186 9.04227 2.77661 9.03016C2.79135 9.01807 2.80637 9.00634 2.82169 8.99498C2.83702 8.98361 2.85261 8.97263 2.86845 8.96204C2.88432 8.95144 2.90043 8.94124 2.9168 8.93144C2.93316 8.92162 2.94975 8.91223 2.96658 8.90325C2.98338 8.89425 3.00041 8.88567 3.01766 8.87751C3.0349 8.86936 3.05234 8.86164 3.06997 8.85435C3.08758 8.84705 3.10537 8.84018 3.12332 8.83375C3.1413 8.82732 3.15941 8.82134 3.17766 8.81581C3.1959 8.81027 3.21428 8.80519 3.23278 8.80056C3.25128 8.79592 3.26989 8.79174 3.28859 8.78802C3.30731 8.78429 3.3261 8.78103 3.34497 8.77824C3.36384 8.77544 3.38276 8.7731 3.40174 8.77122C3.42071 8.76937 3.43973 8.76797 3.45878 8.76702C3.47782 8.76609 3.49689 8.76562 3.51598 8.76562Z"   fill="#FAB124" >
</path>
<path d="M8.17787 16.3179L12.8398 16.3179C13.6168 16.3179 14.0052 16.7064 14.0052 17.4833C14.0052 18.2603 13.6168 18.6488 12.8398 18.6488L8.17787 18.6488C7.40088 18.6488 7.01239 18.2603 7.01239 17.4833C7.01239 16.7064 7.40088 16.3179 8.17787 16.3179Z"   fill="#FAB124" >
</path>
<path d="M8.17787 11.656L12.8398 11.656C13.6168 11.656 14.0052 12.0445 14.0052 12.8215C14.0052 13.5984 13.6168 13.9869 12.8398 13.9869L8.17787 13.9869C7.40088 13.9869 7.01239 13.5984 7.01239 12.8215C7.01239 12.0445 7.40088 11.656 8.17787 11.656Z"   fill="#FAB124" >
</path>
<path d="M8.17787 20.9799L10.5088 20.9799C11.2858 20.9799 11.6743 21.3683 11.6743 22.1453C11.6743 22.9223 11.2858 23.3108 10.5088 23.3108L8.17787 23.3108C7.40088 23.3108 7.01239 22.9223 7.01239 22.1453C7.01239 21.3683 7.40088 20.9799 8.17787 20.9799Z"   fill="#FAB124" >
</path>
<path d="M22.1636 16.3179C22.259 16.3179 22.3543 16.3202 22.4495 16.3249C22.5448 16.3295 22.6399 16.3366 22.7348 16.3459C22.8297 16.3553 22.9243 16.3669 23.0186 16.3809C23.113 16.3949 23.2069 16.4112 23.3004 16.4298C23.394 16.4484 23.487 16.4693 23.5795 16.4925C23.672 16.5157 23.7639 16.5411 23.8552 16.5688C23.9465 16.5965 24.037 16.6264 24.1268 16.6585C24.2166 16.6906 24.3055 16.725 24.3936 16.7614C24.4817 16.7979 24.5689 16.8366 24.6551 16.8774C24.7413 16.9181 24.8265 16.961 24.9106 17.006C24.9947 17.0509 25.0777 17.0979 25.1595 17.1469C25.2413 17.196 25.3218 17.247 25.4011 17.2999C25.4804 17.3529 25.5583 17.4078 25.6349 17.4646C25.7116 17.5215 25.7867 17.5801 25.8604 17.6406C25.9342 17.7011 26.0064 17.7634 26.077 17.8274C26.1477 17.8915 26.2167 17.9572 26.2841 18.0247C26.3516 18.0921 26.4173 18.1612 26.4814 18.2318C26.5454 18.3025 26.6077 18.3747 26.6682 18.4484C26.7287 18.5221 26.7874 18.5973 26.8442 18.6739C26.901 18.7505 26.9559 18.8284 27.0089 18.9077C27.0619 18.987 27.1129 19.0676 27.1619 19.1494C27.2109 19.2312 27.2579 19.3141 27.3029 19.3982C27.3478 19.4823 27.3907 19.5675 27.4315 19.6537C27.4723 19.7399 27.5109 19.8271 27.5473 19.9152C27.584 20.0033 27.6183 20.0923 27.6503 20.1821C27.6824 20.2719 27.7123 20.3624 27.7399 20.4536C27.7676 20.5449 27.7931 20.6368 27.8164 20.7293C27.8396 20.8218 27.8604 20.9148 27.879 21.0084C27.8975 21.1019 27.9139 21.1959 27.9279 21.2902C27.9419 21.3845 27.9536 21.4791 27.9628 21.5741C27.9723 21.669 27.9793 21.764 27.9839 21.8593C27.9886 21.9546 27.991 22.0499 27.991 22.1452C27.991 22.2406 27.9886 22.3359 27.9839 22.4312C27.9793 22.5264 27.9723 22.6215 27.9628 22.7164C27.9536 22.8113 27.9419 22.906 27.9279 23.0003C27.9139 23.0946 27.8975 23.1886 27.879 23.2821C27.8604 23.3756 27.8396 23.4687 27.8164 23.5612C27.7931 23.6537 27.7676 23.7456 27.7399 23.8368C27.7123 23.9281 27.6824 24.0186 27.6503 24.1084C27.6183 24.1982 27.584 24.2872 27.5473 24.3753C27.5109 24.4634 27.4723 24.5506 27.4315 24.6368C27.3907 24.723 27.3478 24.8081 27.3029 24.8922C27.2579 24.9763 27.2109 25.0593 27.1619 25.1411C27.1129 25.2229 27.0619 25.3035 27.0089 25.3828C26.9559 25.4621 26.901 25.54 26.8442 25.6166C26.7874 25.6932 26.7287 25.7684 26.6682 25.8421C26.6077 25.9158 26.5454 25.988 26.4814 26.0587C26.4173 26.1293 26.3516 26.1984 26.2841 26.2658C26.2167 26.3333 26.1477 26.399 26.077 26.463C26.0064 26.5271 25.9342 26.5894 25.8604 26.6499C25.7867 26.7104 25.7116 26.769 25.6349 26.8258C25.5583 26.8826 25.4804 26.9375 25.4011 26.9905C25.3218 27.0435 25.2413 27.0945 25.1595 27.1435C25.0777 27.1926 24.9947 27.2396 24.9106 27.2845C24.8265 27.3295 24.7413 27.3724 24.6551 27.4132C24.5689 27.4539 24.4817 27.4926 24.3936 27.529C24.3055 27.5656 24.2166 27.5999 24.1268 27.632C24.037 27.664 23.9465 27.6939 23.8552 27.7216C23.7639 27.7492 23.672 27.7748 23.5795 27.7981C23.487 27.8212 23.394 27.842 23.3004 27.8606C23.2069 27.8792 23.113 27.8955 23.0186 27.9095C22.9243 27.9235 22.8297 27.9352 22.7348 27.9445C22.6399 27.954 22.5448 27.961 22.4495 27.9655C22.3543 27.9702 22.259 27.9726 22.1636 27.9726C22.0682 27.9726 21.9729 27.9702 21.8776 27.9655C21.7824 27.961 21.6873 27.954 21.5924 27.9445C21.4975 27.9352 21.4029 27.9235 21.3085 27.9095C21.2142 27.8955 21.1202 27.8792 21.0267 27.8606C20.9332 27.842 20.8402 27.8212 20.7476 27.7981C20.6551 27.7748 20.5632 27.7492 20.472 27.7216C20.3807 27.6939 20.2902 27.664 20.2004 27.632C20.1106 27.5999 20.0217 27.5656 19.9335 27.529C19.8454 27.4926 19.7583 27.4539 19.6721 27.4132C19.5858 27.3724 19.5007 27.3295 19.4166 27.2845C19.3325 27.2396 19.2495 27.1926 19.1677 27.1435C19.0859 27.0945 19.0054 27.0435 18.9261 26.9905C18.8468 26.9375 18.7688 26.8826 18.6922 26.8258C18.6156 26.769 18.5405 26.7104 18.4667 26.6499C18.393 26.5894 18.3208 26.5271 18.2502 26.463C18.1795 26.399 18.1104 26.3333 18.043 26.2658C17.9756 26.1984 17.9098 26.1293 17.8458 26.0587C17.7817 25.988 17.7195 25.9158 17.659 25.8421C17.5985 25.7683 17.5398 25.6932 17.483 25.6166C17.4262 25.54 17.3713 25.4621 17.3183 25.3828C17.2653 25.3035 17.2143 25.2229 17.1653 25.1411C17.1163 25.0593 17.0693 24.9763 17.0243 24.8922C16.9793 24.8081 16.9365 24.723 16.8957 24.6368C16.8549 24.5506 16.8163 24.4634 16.7798 24.3753C16.7433 24.2872 16.709 24.1982 16.6769 24.1084C16.6447 24.0186 16.6148 23.9281 16.5871 23.8368C16.5595 23.7456 16.534 23.6537 16.5108 23.5612C16.4877 23.4687 16.4668 23.3756 16.4482 23.2821C16.4296 23.1886 16.4133 23.0946 16.3993 23.0003C16.3853 22.906 16.3736 22.8113 16.3643 22.7164C16.3549 22.6215 16.3479 22.5264 16.3432 22.4312C16.3385 22.3359 16.3362 22.2406 16.3362 22.1452C16.3354 22.1274 16.335 22.1095 16.3351 22.0916C16.3351 22.0738 16.3356 22.0559 16.3366 22.0381C16.3376 22.0202 16.339 22.0024 16.3409 21.9846C16.3427 21.9668 16.345 21.9491 16.3478 21.9314C16.3506 21.9138 16.3538 21.8962 16.3574 21.8787C16.3611 21.8612 16.3652 21.8438 16.3697 21.8265C16.3743 21.8092 16.3792 21.7921 16.3846 21.775C16.39 21.758 16.3959 21.7411 16.4021 21.7244C16.4084 21.7076 16.415 21.6911 16.4221 21.6746C16.4292 21.6582 16.4367 21.642 16.4447 21.626C16.4526 21.61 16.4609 21.5941 16.4696 21.5785C16.4783 21.5629 16.4874 21.5475 16.4969 21.5324C16.5064 21.5172 16.5162 21.5023 16.5265 21.4877C16.5368 21.473 16.5474 21.4587 16.5583 21.4445C16.5693 21.4304 16.5806 21.4166 16.5923 21.4031C16.604 21.3895 16.616 21.3763 16.6283 21.3634C16.6406 21.3504 16.6533 21.3378 16.6663 21.3255C16.6793 21.3132 16.6925 21.3013 16.7061 21.2897C16.7197 21.278 16.7336 21.2668 16.7477 21.2558C16.7619 21.2449 16.7763 21.2344 16.791 21.2242C16.8057 21.214 16.8206 21.2042 16.8358 21.1947C16.851 21.1853 16.8664 21.1763 16.882 21.1676C16.8977 21.1589 16.9135 21.1507 16.9296 21.1428C16.9456 21.135 16.9619 21.1275 16.9783 21.1205C16.9947 21.1135 17.0113 21.1069 17.0281 21.1007C17.0449 21.0945 17.0618 21.0887 17.0788 21.0834C17.0959 21.078 17.1131 21.0731 17.1304 21.0686C17.1477 21.0642 17.1651 21.0601 17.1826 21.0566C17.2001 21.053 17.2177 21.0498 17.2354 21.0471C17.2531 21.0444 17.2708 21.0422 17.2886 21.0404C17.3064 21.0386 17.3242 21.0372 17.342 21.0363C17.3599 21.0354 17.3778 21.035 17.3956 21.035C17.4135 21.035 17.4314 21.0354 17.4492 21.0363C17.4671 21.0372 17.4849 21.0386 17.5027 21.0404C17.5204 21.0422 17.5382 21.0444 17.5559 21.0471C17.5735 21.0498 17.5911 21.053 17.6086 21.0566C17.6261 21.0601 17.6435 21.0642 17.6608 21.0686C17.6782 21.0731 17.6954 21.078 17.7124 21.0834C17.7295 21.0887 17.7464 21.0945 17.7631 21.1007C17.7799 21.1069 17.7965 21.1135 17.8129 21.1205C17.8294 21.1275 17.8456 21.135 17.8617 21.1428C17.8777 21.1507 17.8936 21.1589 17.9092 21.1676C17.9249 21.1763 17.9403 21.1853 17.9555 21.1947C17.9706 21.2042 17.9856 21.214 18.0003 21.2242C18.015 21.2344 18.0294 21.2449 18.0435 21.2558C18.0577 21.2668 18.0715 21.278 18.0851 21.2897C18.0987 21.3013 18.112 21.3132 18.125 21.3255C18.1379 21.3378 18.1506 21.3504 18.163 21.3634C18.1753 21.3763 18.1873 21.3895 18.199 21.4031C18.2106 21.4166 18.222 21.4304 18.2329 21.4445C18.2439 21.4587 18.2545 21.473 18.2647 21.4877C18.275 21.5023 18.2849 21.5172 18.2943 21.5324C18.3038 21.5475 18.3129 21.5629 18.3217 21.5785C18.3304 21.5941 18.3387 21.61 18.3466 21.626C18.3545 21.642 18.362 21.6582 18.3691 21.6746C18.3762 21.6911 18.3829 21.7076 18.3891 21.7244C18.3954 21.7411 18.4012 21.758 18.4066 21.775C18.412 21.7921 18.417 21.8092 18.4215 21.8265C18.4261 21.8438 18.4302 21.8612 18.4338 21.8787C18.4375 21.8962 18.4407 21.9138 18.4434 21.9314C18.4462 21.9491 18.4485 21.9668 18.4504 21.9846C18.4523 22.0024 18.4537 22.0202 18.4546 22.0381C18.4556 22.0559 18.4561 22.0738 18.4562 22.0916C18.4563 22.1095 18.4559 22.1274 18.455 22.1452C18.455 22.2059 18.4565 22.2666 18.4595 22.3272C18.4625 22.3878 18.467 22.4483 18.4729 22.5087C18.4788 22.5691 18.4863 22.6294 18.4952 22.6894C18.5041 22.7494 18.5145 22.8092 18.5263 22.8687C18.5381 22.9282 18.5514 22.9875 18.5662 23.0463C18.5809 23.1052 18.5971 23.1637 18.6147 23.2218C18.6324 23.2798 18.6514 23.3375 18.6718 23.3946C18.6923 23.4518 18.7141 23.5084 18.7373 23.5644C18.7606 23.6205 18.7852 23.676 18.8111 23.7309C18.8371 23.7857 18.8643 23.8399 18.893 23.8934C18.9216 23.947 18.9515 23.9998 18.9827 24.0518C19.0139 24.1039 19.0463 24.1551 19.08 24.2056C19.1138 24.256 19.1487 24.3057 19.1849 24.3544C19.221 24.4032 19.2583 24.451 19.2968 24.4979C19.3353 24.5448 19.375 24.5908 19.4157 24.6358C19.4565 24.6807 19.4983 24.7246 19.5412 24.7676C19.5842 24.8105 19.6281 24.8523 19.6731 24.8931C19.7181 24.9338 19.764 24.9735 19.8109 25.012C19.8578 25.0505 19.9057 25.0878 19.9544 25.124C20.0032 25.1601 20.0528 25.195 20.1032 25.2288C20.1537 25.2625 20.205 25.2949 20.257 25.3262C20.3091 25.3574 20.3619 25.3873 20.4154 25.4159C20.4689 25.4445 20.5231 25.4718 20.578 25.4977C20.6328 25.5237 20.6883 25.5483 20.7444 25.5715C20.8005 25.5947 20.8571 25.6165 20.9142 25.637C20.9714 25.6574 21.029 25.6765 21.087 25.6941C21.1451 25.7117 21.2036 25.7279 21.2625 25.7426C21.3214 25.7574 21.3806 25.7707 21.4401 25.7825C21.4996 25.7944 21.5594 25.8047 21.6194 25.8136C21.6795 25.8225 21.7397 25.83 21.8001 25.8359C21.8605 25.8419 21.921 25.8463 21.9816 25.8493C22.0422 25.8523 22.1029 25.8538 22.1636 25.8538C22.2243 25.8538 22.2849 25.8523 22.3455 25.8493C22.4062 25.8463 22.4667 25.8419 22.5271 25.8359C22.5875 25.83 22.6477 25.8225 22.7077 25.8136C22.7678 25.8047 22.8276 25.7944 22.8871 25.7825C22.9466 25.7707 23.0058 25.7574 23.0647 25.7426C23.1236 25.7279 23.182 25.7117 23.2401 25.6941C23.2982 25.6765 23.3558 25.6574 23.413 25.637C23.4701 25.6165 23.5267 25.5947 23.5828 25.5715C23.6388 25.5483 23.6943 25.5237 23.7492 25.4977C23.8041 25.4718 23.8583 25.4445 23.9118 25.4159C23.9653 25.3873 24.0181 25.3574 24.0702 25.3262C24.1222 25.2949 24.1735 25.2625 24.2239 25.2288C24.2744 25.195 24.324 25.1601 24.3727 25.124C24.4215 25.0878 24.4693 25.0505 24.5162 25.012C24.5632 24.9735 24.6091 24.9338 24.6541 24.8931C24.699 24.8523 24.743 24.8105 24.7859 24.7676C24.8288 24.7247 24.8707 24.6807 24.9114 24.6358C24.9522 24.5908 24.9918 24.5448 25.0303 24.4979C25.0688 24.451 25.1062 24.4032 25.1423 24.3544C25.1785 24.3057 25.2134 24.256 25.2471 24.2056C25.2808 24.1551 25.3133 24.1039 25.3445 24.0518C25.3757 23.9998 25.4056 23.947 25.4342 23.8934C25.4629 23.8399 25.4901 23.7857 25.516 23.7309C25.542 23.676 25.5666 23.6205 25.5898 23.5644C25.6131 23.5084 25.6349 23.4518 25.6553 23.3946C25.6758 23.3375 25.6948 23.2798 25.7124 23.2218C25.7301 23.1637 25.7462 23.1052 25.761 23.0463C25.7757 22.9875 25.789 22.9283 25.8009 22.8688C25.8127 22.8092 25.8231 22.7494 25.832 22.6894C25.8409 22.6294 25.8483 22.5691 25.8543 22.5087C25.8602 22.4483 25.8647 22.3878 25.8676 22.3272C25.8707 22.2666 25.8721 22.2059 25.8721 22.1452C25.8721 22.0846 25.8707 22.0239 25.8676 21.9633C25.8647 21.9027 25.8602 21.8421 25.8543 21.7817C25.8483 21.7214 25.8409 21.6611 25.832 21.6011C25.8231 21.5411 25.8127 21.4813 25.8009 21.4217C25.789 21.3622 25.7757 21.303 25.761 21.2441C25.7462 21.1853 25.7301 21.1268 25.7124 21.0687C25.6948 21.0106 25.6758 20.953 25.6553 20.8959C25.6349 20.8387 25.6131 20.7821 25.5898 20.726C25.5666 20.6699 25.542 20.6145 25.516 20.5596C25.4901 20.5048 25.4629 20.4506 25.4342 20.397C25.4056 20.3435 25.3757 20.2907 25.3445 20.2387C25.3133 20.1866 25.2808 20.1353 25.2471 20.0849C25.2134 20.0344 25.1785 19.9848 25.1423 19.9361C25.1062 19.8873 25.0688 19.8395 25.0303 19.7926C24.9918 19.7456 24.9522 19.6997 24.9114 19.6547C24.8707 19.6097 24.8288 19.5658 24.7859 19.5229C24.743 19.48 24.699 19.4381 24.6541 19.3974C24.6091 19.3566 24.5632 19.317 24.5162 19.2785C24.4693 19.24 24.4215 19.2027 24.3727 19.1665C24.324 19.1304 24.2744 19.0954 24.2239 19.0617C24.1735 19.028 24.1222 18.9955 24.0702 18.9643C24.0181 18.9331 23.9653 18.9032 23.9118 18.8746C23.8583 18.846 23.8041 18.8187 23.7492 18.7927C23.6943 18.7668 23.6388 18.7422 23.5828 18.719C23.5267 18.6958 23.4701 18.6739 23.413 18.6535C23.3558 18.633 23.2982 18.614 23.2401 18.5964C23.182 18.5788 23.1236 18.5626 23.0647 18.5478C23.0058 18.5331 22.9466 18.5198 22.8871 18.508C22.8276 18.4961 22.7678 18.4857 22.7077 18.4768C22.6477 18.4679 22.5875 18.4605 22.5271 18.4546C22.4667 18.4486 22.4062 18.4441 22.3455 18.4412C22.2849 18.4382 22.2243 18.4367 22.1636 18.4367C22.1468 18.4359 22.13 18.4347 22.1132 18.4331C22.0964 18.4315 22.0797 18.4295 22.0631 18.4272C22.0464 18.4248 22.0298 18.422 22.0132 18.4188C21.9967 18.4156 21.9803 18.4121 21.9639 18.4081C21.9475 18.4042 21.9313 18.3998 21.9151 18.3951C21.8989 18.3904 21.8829 18.3852 21.867 18.3797C21.8511 18.3742 21.8353 18.3684 21.8197 18.3621C21.804 18.3559 21.7886 18.3492 21.7732 18.3423C21.7579 18.3353 21.7428 18.3279 21.7278 18.3202C21.7128 18.3125 21.698 18.3044 21.6835 18.296C21.6689 18.2876 21.6545 18.2789 21.6403 18.2698C21.6262 18.2607 21.6122 18.2512 21.5985 18.2415C21.5848 18.2317 21.5713 18.2216 21.558 18.2112C21.5448 18.2008 21.5318 18.1901 21.5191 18.1791C21.5063 18.1681 21.4939 18.1568 21.4817 18.1451C21.4695 18.1335 21.4576 18.1216 21.446 18.1094C21.4344 18.0972 21.423 18.0848 21.412 18.0721C21.4009 18.0594 21.3902 18.0464 21.3798 18.0331C21.3694 18.0199 21.3593 18.0064 21.3495 17.9927C21.3398 17.979 21.3304 17.9651 21.3212 17.9509C21.3121 17.9367 21.3033 17.9224 21.2949 17.9078C21.2865 17.8932 21.2784 17.8784 21.2707 17.8635C21.263 17.8485 21.2556 17.8334 21.2486 17.818C21.2416 17.8027 21.235 17.7873 21.2287 17.7716C21.2225 17.756 21.2166 17.7402 21.2111 17.7243C21.2056 17.7084 21.2005 17.6924 21.1957 17.6762C21.191 17.6601 21.1866 17.6438 21.1826 17.6274C21.1787 17.6111 21.1751 17.5946 21.1719 17.5781C21.1687 17.5616 21.1659 17.545 21.1635 17.5283C21.1611 17.5116 21.1591 17.4949 21.1575 17.4781C21.1559 17.4614 21.1547 17.4446 21.1539 17.4278C21.1531 17.4109 21.1527 17.3941 21.1527 17.3773C21.1527 17.3604 21.1531 17.3436 21.1539 17.3268C21.1547 17.31 21.1559 17.2932 21.1575 17.2764C21.1591 17.2597 21.1611 17.2429 21.1635 17.2263C21.1659 17.2096 21.1687 17.193 21.1719 17.1765C21.1751 17.1599 21.1787 17.1435 21.1826 17.1271C21.1866 17.1108 21.191 17.0945 21.1957 17.0784C21.2005 17.0622 21.2056 17.0461 21.2111 17.0302C21.2166 17.0143 21.2225 16.9986 21.2287 16.9829C21.235 16.9673 21.2416 16.9518 21.2486 16.9365C21.2556 16.9212 21.263 16.906 21.2707 16.8911C21.2784 16.8761 21.2865 16.8613 21.2949 16.8468C21.3033 16.8322 21.3121 16.8178 21.3212 16.8036C21.3304 16.7895 21.3398 16.7755 21.3495 16.7618C21.3593 16.7481 21.3694 16.7346 21.3798 16.7214C21.3902 16.7082 21.4009 16.6952 21.412 16.6825C21.423 16.6697 21.4344 16.6573 21.446 16.6451C21.4576 16.6329 21.4695 16.621 21.4817 16.6094C21.4939 16.5978 21.5063 16.5865 21.5191 16.5755C21.5318 16.5644 21.5448 16.5537 21.558 16.5433C21.5713 16.5329 21.5848 16.5228 21.5985 16.5131C21.6122 16.5033 21.6262 16.4939 21.6403 16.4848C21.6545 16.4757 21.6689 16.4669 21.6834 16.4585C21.698 16.4501 21.7128 16.4421 21.7278 16.4344C21.7428 16.4266 21.7579 16.4193 21.7732 16.4123C21.7886 16.4053 21.804 16.3987 21.8197 16.3924C21.8353 16.3862 21.8511 16.3803 21.867 16.3748C21.8829 16.3693 21.8989 16.3642 21.9151 16.3595C21.9313 16.3547 21.9475 16.3504 21.9639 16.3464C21.9803 16.3425 21.9967 16.3389 22.0132 16.3357C22.0298 16.3325 22.0464 16.3298 22.0631 16.3274C22.0797 16.325 22.0964 16.323 22.1132 16.3214C22.13 16.3198 22.1468 16.3187 22.1636 16.3179Z"   fill="#FAB124" >
</path>
<path d="M17.7523 16.4007L21.864 13.9333C21.8751 13.9267 21.8863 13.9205 21.8977 13.9147C21.9091 13.9088 21.9207 13.9033 21.9325 13.8983C21.9443 13.8932 21.9562 13.8885 21.9683 13.8842C21.9804 13.8799 21.9926 13.876 22.0049 13.8725C22.0173 13.869 22.0297 13.8659 22.0423 13.8632C22.0548 13.8606 22.0674 13.8583 22.0801 13.8565C22.0928 13.8546 22.1056 13.8532 22.1184 13.8522C22.1312 13.8512 22.144 13.8506 22.1568 13.8505C22.1696 13.8504 22.1825 13.8506 22.1953 13.8513C22.2081 13.852 22.2208 13.8532 22.2336 13.8547C22.2463 13.8562 22.259 13.8582 22.2716 13.8606C22.2842 13.8629 22.2967 13.8657 22.3092 13.8689C22.3216 13.8721 22.3339 13.8758 22.3461 13.8798C22.3582 13.8838 22.3703 13.8882 22.3822 13.893C22.3941 13.8978 22.4058 13.903 22.4173 13.9086C22.4289 13.9142 22.4402 13.9202 22.4514 13.9265C22.4626 13.9328 22.4735 13.9395 22.4842 13.9466C22.4949 13.9537 22.5054 13.9611 22.5156 13.9688C22.5258 13.9766 22.5358 13.9846 22.5455 13.993C22.5552 14.0015 22.5646 14.0102 22.5737 14.0192C22.5828 14.0282 22.5916 14.0376 22.6001 14.0472C22.6086 14.0568 22.6168 14.0667 22.6246 14.0768C22.6325 14.087 22.64 14.0974 22.6471 14.108C22.6543 14.1187 22.6611 14.1295 22.6676 14.1406C22.674 14.1517 22.68 14.163 22.6857 14.1745C22.6915 14.186 22.6968 14.1977 22.7017 14.2095C22.7066 14.2214 22.7111 14.2334 22.7153 14.2455C22.7194 14.2577 22.7231 14.2699 22.7264 14.2823C22.7298 14.2947 22.7327 14.3072 22.7352 14.3198C22.7376 14.3324 22.7398 14.345 22.7414 14.3578C22.7431 14.3705 22.7443 14.3832 22.7451 14.3961C22.746 14.4089 22.7463 14.4217 22.7463 14.4345L22.7463 19.3679C22.7463 19.3808 22.7459 19.3936 22.7451 19.4063C22.7442 19.4192 22.7429 19.4319 22.7413 19.4446C22.7396 19.4573 22.7375 19.4699 22.735 19.4825C22.7324 19.4951 22.7295 19.5076 22.7262 19.5199C22.7228 19.5323 22.7191 19.5445 22.7149 19.5567C22.7108 19.5688 22.7063 19.5808 22.7013 19.5926C22.6964 19.6045 22.691 19.6161 22.6853 19.6276C22.6796 19.6391 22.6736 19.6503 22.6671 19.6614C22.6606 19.6725 22.6538 19.6833 22.6467 19.694C22.6395 19.7046 22.632 19.715 22.6241 19.7251C22.6163 19.7352 22.6081 19.7451 22.5996 19.7547C22.5911 19.7643 22.5823 19.7736 22.5732 19.7826C22.564 19.7916 22.5547 19.8003 22.545 19.8087C22.5353 19.8171 22.5253 19.8251 22.5151 19.8328C22.5049 19.8406 22.4944 19.848 22.4837 19.855C22.473 19.862 22.462 19.8687 22.4509 19.8751C22.4397 19.8814 22.4284 19.8873 22.4168 19.8929C22.4053 19.8985 22.3936 19.9037 22.3817 19.9084C22.3698 19.9132 22.3578 19.9177 22.3456 19.9217C22.3334 19.9256 22.3211 19.9292 22.3087 19.9324C22.2963 19.9356 22.2838 19.9384 22.2712 19.9408C22.2586 19.9432 22.2459 19.9451 22.2332 19.9466C22.2205 19.9482 22.2077 19.9493 22.1949 19.95C22.1821 19.9507 22.1693 19.9509 22.1565 19.9507C22.1437 19.9506 22.1309 19.95 22.1181 19.949C22.1053 19.948 22.0926 19.9466 22.0799 19.9448C22.0672 19.9429 22.0546 19.9407 22.0421 19.938C22.0295 19.9353 22.0171 19.9323 22.0048 19.9288C21.9925 19.9253 21.9803 19.9214 21.9682 19.9171C21.9561 19.9128 21.9442 19.9081 21.9324 19.903C21.9206 19.8979 21.909 19.8924 21.8976 19.8866C21.8863 19.8807 21.8751 19.8745 21.864 19.8679L17.7523 17.4006C17.7415 17.3942 17.731 17.3874 17.7207 17.3803C17.7103 17.3732 17.7003 17.3658 17.6904 17.358C17.6806 17.3502 17.6711 17.3422 17.6617 17.3338C17.6524 17.3254 17.6434 17.3167 17.6347 17.3078C17.6259 17.2988 17.6174 17.2896 17.6093 17.2801C17.6011 17.2706 17.5933 17.2608 17.5858 17.2508C17.5782 17.2408 17.571 17.2305 17.5642 17.2201C17.5573 17.2096 17.5508 17.1989 17.5446 17.188C17.5384 17.1771 17.5326 17.166 17.5272 17.1547C17.5217 17.1435 17.5166 17.132 17.5119 17.1204C17.5071 17.1088 17.5028 17.0971 17.4988 17.0852C17.4949 17.0734 17.4913 17.0614 17.4881 17.0492C17.4849 17.0371 17.4821 17.0249 17.4797 17.0126C17.4773 17.0003 17.4753 16.988 17.4737 16.9755C17.4721 16.9631 17.4708 16.9507 17.47 16.9382C17.4692 16.9257 17.4688 16.9132 17.4688 16.9006C17.4688 16.8881 17.4692 16.8756 17.47 16.8631C17.4708 16.8506 17.4721 16.8381 17.4737 16.8257C17.4753 16.8133 17.4773 16.8009 17.4797 16.7886C17.4821 16.7763 17.4849 16.7642 17.4881 16.752C17.4913 16.7399 17.4949 16.7279 17.4988 16.7161C17.5028 16.7042 17.5071 16.6924 17.5119 16.6808C17.5166 16.6692 17.5217 16.6578 17.5272 16.6465C17.5326 16.6353 17.5384 16.6242 17.5446 16.6133C17.5508 16.6024 17.5573 16.5917 17.5642 16.5812C17.571 16.5708 17.5782 16.5605 17.5858 16.5505C17.5933 16.5405 17.6011 16.5307 17.6093 16.5212C17.6174 16.5117 17.6259 16.5025 17.6347 16.4935C17.6434 16.4846 17.6524 16.4759 17.6617 16.4675C17.6711 16.4591 17.6806 16.4511 17.6904 16.4433C17.7003 16.4355 17.7103 16.4281 17.7207 16.421C17.731 16.4139 17.7415 16.4071 17.7523 16.4007Z"   fill="#FAB124" >
</path>
</g>
<defs>
<clipPath id="clip-path-0">
<path d="M0 28L28 28L28 0L0 0L0 28Z" fill="white"/>
</clipPath>
</defs>
</svg>
