<svg xmlns="http://www.w3.org/2000/svg" xmlns:xlink="http://www.w3.org/1999/xlink" width="16" height="16" viewBox="0 0 16 16" fill="none">
<path d="M14.3813 14.3984L12.7734 12.9937C13.0891 12.5734 13.2609 12.0656 13.2609 11.5312C13.2609 10.8797 13.0078 10.2687 12.5469 9.80779C12.0859 9.34685 11.4734 9.09373 10.8234 9.09373C10.1734 9.09373 9.55937 9.34685 9.09844 9.80623C8.6375 10.2672 8.38437 10.8797 8.38437 11.5297C8.38437 12.1797 8.6375 12.7922 9.09844 13.2531C9.55937 13.714 10.1719 13.9672 10.8219 13.9672C11.3547 13.9672 11.8609 13.7969 12.2812 13.4828L13.925 14.9187C14.0688 15.0437 14.2875 15.0297 14.4141 14.8859C14.5406 14.7422 14.5266 14.525 14.3813 14.3984ZM9.07812 11.5312C9.07812 10.5687 9.86094 9.78591 10.8234 9.78591C11.7859 9.78591 12.5672 10.5703 12.5672 11.5312C12.5672 12.4922 11.7844 13.2765 10.8219 13.2765C9.85938 13.2765 9.07812 12.4937 9.07812 11.5312ZM13.7344 3.99998L2.29688 3.99998C1.875 3.99998 1.53125 4.2531 1.53125 4.5656L1.53125 14.4281C1.53125 14.7406 1.875 14.9937 2.29688 14.9937L9.50313 14.9937C9.77969 14.9937 10.0031 14.7703 10.0031 14.4937C10.0031 14.2172 9.77969 13.9937 9.50313 13.9937L2.5625 13.9937L2.5625 4.99998L13.4688 4.99998L13.4688 10.5765C13.4688 10.7937 13.6984 10.9703 13.9844 10.9703C14.2688 10.9703 14.5 10.7937 14.5 10.5765L14.5 4.56404C14.5 4.2531 14.1562 3.99998 13.7344 3.99998ZM11.9078 6.99998L4.12344 6.99998C3.84687 6.99998 3.62344 6.77654 3.62344 6.49998C3.62344 6.22341 3.84687 5.99998 4.12344 5.99998L11.9078 5.99998C12.1844 5.99998 12.4078 6.22341 12.4078 6.49998C12.4062 6.77654 12.1828 6.99998 11.9078 6.99998ZM14.2781 4.11091L12.2719 1.17341C12.2063 1.07654 12.1031 1.02185 11.9969 1.01091C11.9609 1.0031 11.9219 0.998413 11.8828 0.998413L4.09688 0.998413C3.85938 0.998413 3.6625 1.16404 3.61094 1.38435L1.72812 4.14216C1.61094 4.31404 1.65469 4.54685 1.82656 4.66404L2.03125 4.8031C2.20312 4.92029 2.43594 4.87654 2.55312 4.70466L4.40312 1.99529L11.625 1.99529L13.4531 4.67341C13.5703 4.84529 13.8047 4.88904 13.975 4.77185L14.1797 4.63279C14.35 4.5156 14.3938 4.28279 14.2781 4.11091Z"   fill="#00BAAD" >
</path>
</svg>
