<?xml version="1.0" standalone="no"?><!DOCTYPE svg PUBLIC "-//W3C//DTD SVG 1.1//EN" "http://www.w3.org/Graphics/SVG/1.1/DTD/svg11.dtd"><svg t="1664822874931" class="icon" viewBox="0 0 1024 1024" version="1.1" xmlns="http://www.w3.org/2000/svg" p-id="13066" xmlns:xlink="http://www.w3.org/1999/xlink" width="200" height="200"><path d="M814 65.9H265.7c-80.5 0-146 65.5-146 146V320c0 19.9 16.1 36 36 36s36-16.1 36-36V211.9c0-40.8 33.2-74 74-74H814c40.8 0 74 33.2 74 74v602.6c0 40.8-33.2 74-74 74H265.7c-40.8 0-74-33.2-74-74V704.2c0-19.9-16.1-36-36-36s-36 16.1-36 36v110.3c0 80.5 65.5 146 146 146H814c80.5 0 146-65.5 146-146V211.9c0-80.5-65.5-146-146-146z" p-id="13067"></path><path d="M549.7 680.5c-13.5 14.6-12.6 37.4 2 50.9 6.9 6.4 15.7 9.6 24.4 9.6 9.7 0 19.4-3.9 26.5-11.6l177.4-192c6.5-7 9.6-15.9 9.5-24.8 0.1-8.8-3.1-17.7-9.5-24.8l-177.4-192c-13.5-14.6-36.3-15.5-50.9-2-14.6 13.5-15.5 36.3-2 50.9l121.6 131.6H100c-19.9 0-36 16.1-36 36s16.1 36 36 36h571.8L549.7 680.5z" p-id="13068"></path></svg>