<svg xmlns="http://www.w3.org/2000/svg" xmlns:xlink="http://www.w3.org/1999/xlink" width="30" height="30" viewBox="0 0 30 30" fill="none"><g opacity="1"  transform="translate(0 0)  rotate(0)"><mask id="bg-mask-0" fill="white"><use transform="translate(0 0)  rotate(0)" xlink:href="#path_0"></use></mask><g mask="url(#bg-mask-0)" ><path id="路径 1" fill-rule="evenodd" style="fill:#00BAAD" opacity="1" d="M26.22 3.41499C25.98 3.17499 25.58 3.17499 25.34 3.41499L10.69 18.065L4.66 12.045C4.43 11.805 4.01 11.805 3.78 12.045L0.18 15.635C-0.06 15.885 -0.06 16.275 0.18 16.525L10.25 26.585C10.37 26.705 10.53 26.765 10.69 26.765C10.85 26.765 11.01 26.705 11.13 26.585L29.82 7.89498C30.06 7.65498 30.06 7.25498 29.82 7.01499L26.22 3.41499Z"></path></g></g><defs><rect id="path_0" x="0" y="0" width="30" height="30" /></defs></svg>