<svg xmlns="http://www.w3.org/2000/svg" xmlns:xlink="http://www.w3.org/1999/xlink" width="26" height="26" viewBox="0 0 26 26" fill="none"><g opacity="1"  transform="translate(0 0)  rotate(0)"><mask id="bg-mask-0" fill="white"><use transform="translate(0 0)  rotate(0)" xlink:href="#path_0"></use></mask><g mask="url(#bg-mask-0)" ><path id="路径 1" fill-rule="evenodd" style="fill:#C4C4C4" opacity="1" d="M5.035,17.87h13.65c1.38,0 2.44,-1.05 2.44,-2.43v-2.44c0,-0.49 0.32,-0.81 0.81,-0.81c0.49,0 0.81,0.32 0.81,0.81v2.44c0,2.27 -1.78,4.06 -4.06,4.06h-14.3l3.01,3.01c0.32,0.32 0.32,0.81 0,1.13c-0.33,0.33 -0.81,0.33 -1.14,0l-3.98,-3.98c-0.16,-0.16 -0.24,-0.4 -0.24,-0.57c0,-0.24 0.08,-0.4 0.24,-0.57l3.98,-3.98c0.33,-0.32 0.81,-0.32 1.14,0c0.32,0.33 0.32,0.82 0,1.14zM21.365,7.30995h-15.68c-1.38,0 -2.44,1.06 -2.44,2.44v2.44005c0,0.48 -0.32,0.81 -0.81,0.81c-0.49,0 -0.81,-0.33 -0.81,-0.81v-2.44005c0,-2.28 1.79,-4.06 4.06,-4.06h15.11l-2.35,-2.36c-0.33,-0.32 -0.33,-0.81 0,-1.14c0.32,-0.32 0.81,-0.32 1.14,0l3.98,4.07c0.16,0.16 0.24,0.4 0.24,0.56c0,0.25 -0.08,0.41 -0.24,0.57l-3.98,3.98005c-0.33,0.33 -0.82,0.33 -1.14,0c-0.33,-0.32 -0.33,-0.81 0,-1.13z"></path></g></g><defs><rect id="path_0" x="0" y="0" width="26" height="26" /></defs></svg>