<?xml version="1.0" standalone="no"?><!DOCTYPE svg PUBLIC "-//W3C//DTD SVG 1.1//EN" "http://www.w3.org/Graphics/SVG/1.1/DTD/svg11.dtd"><svg t="1667379224884" class="icon" viewBox="0 0 1024 1024" version="1.1" xmlns="http://www.w3.org/2000/svg" p-id="1613" xmlns:xlink="http://www.w3.org/1999/xlink" width="200" height="200"><path d="M938.666667 384a42.666667 42.666667 0 0 1 42.666666 42.666667v512a42.666667 42.666667 0 0 1-42.666666 42.666666H85.333333a42.666667 42.666667 0 0 1-42.666666-42.666666V267.818667a42.666667 42.666667 0 0 1 6.101333-21.973334l152.149333-182.442666A42.666667 42.666667 0 0 1 237.482667 42.666667h549.034666a42.666667 42.666667 0 0 1 36.565334 20.736l152.149333 182.442666a42.666667 42.666667 0 0 1 6.101333 21.973334V298.666667a42.666667 42.666667 0 0 1-42.666666 42.666666h-256v267.904a21.333333 21.333333 0 0 1-28.842667 19.968L512 576l-141.824 53.205333A21.333333 21.333333 0 0 1 341.333333 609.194667V341.333333H128v554.666667h768V426.666667a42.666667 42.666667 0 0 1 42.666667-42.666667z m-341.333334-256h-170.666666v128h170.325333L597.333333 128z m-0.170666 213.333333H426.538667l-0.042667 192 86.016-42.666666 86.016 42.666666-1.365333-192z m284.117333-85.333333l-116.565333-128H682.666667v128h198.613333zM341.333333 256V128H259.285333L142.72 256H341.333333zM256 725.333333h128a42.666667 42.666667 0 0 1 0 85.333334H256a42.666667 42.666667 0 0 1 0-85.333334z" p-id="1614"></path></svg>