<?xml version="1.0" standalone="no"?><!DOCTYPE svg PUBLIC "-//W3C//DTD SVG 1.1//EN" "http://www.w3.org/Graphics/SVG/1.1/DTD/svg11.dtd"><svg t="1667659664245" class="icon" viewBox="0 0 1024 1024" version="1.1" xmlns="http://www.w3.org/2000/svg" p-id="5981" xmlns:xlink="http://www.w3.org/1999/xlink" width="200" height="200"><path d="M1015.456 371.2L652.8 8.544C644.256 4.288 635.744 0 627.2 0s-17.056 4.256-25.6 12.8L456.544 192c-29.856 34.144-29.856 85.344-4.256 119.456L153.632 396.8c-12.8 4.256-21.344 17.056-21.344 29.856l-8.544 439.456c0 12.8 0 17.056 8.544 25.6 4.256 4.256 12.8 8.544 21.344 8.544l439.456-12.8c12.8 0 25.6-8.544 29.856-21.344l89.6-298.656c17.056 12.8 38.4 17.056 55.456 17.056 21.344 0 42.656-8.544 64-17.056l179.2-145.056c8.544-8.544 12.8-17.056 12.8-25.6s-4.256-17.056-8.544-25.6zM571.744 827.744l-337.056 8.544 115.2-115.2c12.8 4.256 25.6 8.544 38.4 8.544 25.6 0 51.2-12.8 68.256-29.856 21.344-17.056 29.856-42.656 29.856-68.256s-12.8-51.2-29.856-68.256c-17.056-21.344-42.656-29.856-68.256-29.856s-51.2 12.8-68.256 29.856c-21.344 17.056-29.856 42.656-29.856 68.256 0 17.056 4.256 34.144 12.8 46.944l-115.2 115.2 8.544-341.344 307.2-89.6 157.856 153.6-89.6 311.456z m-204.8-174.944c-4.256-4.256-8.544-12.8-8.544-21.344s4.256-12.8 8.544-21.344c4.256-4.256 12.8-8.544 21.344-8.544s21.344 4.256 25.6 8.544c4.256 4.256 8.544 12.8 8.544 21.344s-4.256 12.8-8.544 21.344c-12.8 12.8-34.144 12.8-46.944 0z m422.4-140.8c-12.8 12.8-29.856 12.8-42.656 0l-29.856-29.856-179.2-179.2s-4.256-4.256-8.544-4.256c-12.8-12.8-21.344-25.6-21.344-25.6a38.72 38.72 0 0 1 0-42.656l123.744-153.6 311.456 311.456-153.6 123.744z" p-id="5982"></path></svg>