<?xml version="1.0" standalone="no"?><!DOCTYPE svg PUBLIC "-//W3C//DTD SVG 1.1//EN" "http://www.w3.org/Graphics/SVG/1.1/DTD/svg11.dtd"><svg t="1667379232562" class="icon" viewBox="0 0 1024 1024" version="1.1" xmlns="http://www.w3.org/2000/svg" p-id="1767" xmlns:xlink="http://www.w3.org/1999/xlink" width="200" height="200"><path d="M682.496 420.864V597.333333a42.666667 42.666667 0 0 0 85.333333 0V388.565333l128-48.469333v436.736l-341.333333 124.245333V469.333333l128-48.469333zM415.957333 161.834667L511.829333 128l362.666667 128-113.450667 40.021333L416 161.834667z m-102.229333 36.096l345.088 134.186666L511.829333 384l-362.666666-128 164.565333-58.069333z m212.736 799.402666l426.624-155.136a42.666667 42.666667 0 0 0 28.074667-40.106666V243.2a42.666667 42.666667 0 0 0-28.074667-40.106667L526.506667 48.042667a42.666667 42.666667 0 0 0-29.354667 0.085333L70.570667 205.397333A42.666667 42.666667 0 0 0 42.666667 245.674667l3.285333 556.714666a42.666667 42.666667 0 0 0 27.989333 39.808l423.253334 155.093334a42.666667 42.666667 0 0 0 29.269333 0.042666zM469.162667 469.333333v429.226667l-341.333334-124.202667V337.621333l341.333334 131.712z" p-id="1768"></path></svg>