<?xml version="1.0" standalone="no"?><!DOCTYPE svg PUBLIC "-//W3C//DTD SVG 1.1//EN" "http://www.w3.org/Graphics/SVG/1.1/DTD/svg11.dtd"><svg t="1664822818695" class="icon" viewBox="0 0 1024 1024" version="1.1" xmlns="http://www.w3.org/2000/svg" p-id="12154" xmlns:xlink="http://www.w3.org/1999/xlink" width="200" height="200"><path d="M512.06191 578.983577c-5.098111 0-10.196223-1.518586-14.582113-4.556783L74.989413 281.818527c-11.627828-8.05342-14.525831-24.00881-6.472412-35.637662 8.054443-11.627828 24.007787-14.525831 35.637662-6.472412L512.06191 522.216689l407.880641-282.508235c11.628852-8.05342 27.583219-5.15644 35.637662 6.471388 8.05342 11.627828 5.15644 27.584242-6.471388 35.637662L526.645047 574.426795C522.259156 577.464991 517.161045 578.983577 512.06191 578.983577z" p-id="12155"></path><path d="M936.868035 792.583396 89.571527 792.583396c-14.145162 0-25.611308-11.466146-25.611308-25.611308l0-511.028882c0-14.145162 11.467169-25.611308 25.611308-25.611308l847.296509 0c14.145162 0 25.611308 11.467169 25.611308 25.611308l0 511.028882C962.480366 781.117251 951.013197 792.583396 936.868035 792.583396zM115.183857 741.360781l796.072871 0L911.256728 281.554514 115.183857 281.554514 115.183857 741.360781z" p-id="12156"></path></svg>