<?xml version="1.0" standalone="no"?><!DOCTYPE svg PUBLIC "-//W3C//DTD SVG 1.1//EN" "http://www.w3.org/Graphics/SVG/1.1/DTD/svg11.dtd"><svg t="1666981456963" class="icon" viewBox="0 0 1024 1024" version="1.1" xmlns="http://www.w3.org/2000/svg" p-id="1420" xmlns:xlink="http://www.w3.org/1999/xlink" width="200" height="200"><path d="M512.82 959.44c-13.35 0-26-5.97-34.48-16.28-30.76-37.42-300.52-370.48-300.52-541.89 0-184.72 150.28-334.99 335-334.99s335 150.27 335 334.99c0 171.41-269.76 504.47-300.52 541.89a44.641 44.641 0 0 1-34.48 16.28z m0-803.89c-135.5 0-245.73 110.22-245.73 245.72 0 94.55 138.91 304.73 245.68 441.97 90.93-117.22 245.79-338.43 245.79-441.97-0.01-135.49-110.25-245.72-245.74-245.72z" p-id="1421"></path><path d="M512.82 536.45c-73.84 0-133.9-60.07-133.9-133.9s60.07-133.9 133.9-133.9 133.9 60.07 133.9 133.9-60.06 133.9-133.9 133.9z m0-178.54c-24.62 0-44.63 20.02-44.63 44.63s20.02 44.63 44.63 44.63 44.63-20.02 44.63-44.63-20.01-44.63-44.63-44.63z" p-id="1422"></path></svg>