<svg xmlns="http://www.w3.org/2000/svg" width="25.95477294921875" height="25.9527587890625" viewBox="0 0 25.95477294921875 25.9527587890625" fill="none">
<path d="M0.893186 10.9113C1.25319 11.0713 2.23319 11.4613 2.53319 11.4713C2.97319 11.4913 3.05319 10.9413 3.06319 10.8913C4.28319 5.52128 9.82319 2.00128 15.1832 3.24128C18.5432 4.02128 21.0932 6.42128 22.2432 9.42128C22.2432 9.42128 20.3832 9.64128 20.0432 9.69128C19.7132 9.74128 19.5932 10.1213 19.9132 10.4213C20.0532 10.5513 24.3332 12.9813 25.2132 12.9713C25.6332 12.9613 26.0232 12.7013 25.9432 11.9613C25.5132 6.45128 21.5632 1.62128 15.8832 0.311282C9.03319 -1.26872 1.89319 3.34128 0.503186 10.1713C0.383186 10.7713 0.483186 10.7213 0.893186 10.9113Z"   fill="#37339C" >
</path>
<path d="M25.7237 15.5973C25.7637 15.2673 25.8037 15.1373 25.4437 15.0373C25.0837 14.9473 23.9337 14.6173 23.4637 14.4473C22.9937 14.2873 22.9237 14.6473 22.8837 14.8873C22.8337 15.1273 22.8337 15.1073 22.8137 15.2173C21.5837 20.5873 16.1037 23.9473 10.7537 22.6973C7.55366 21.9673 5.08366 19.7573 3.86366 16.9573C3.86366 16.9573 5.40366 16.8173 5.89366 16.7673C6.38366 16.7173 6.49366 16.1573 6.04366 15.8773C5.59366 15.5973 1.87366 13.4873 1.32366 13.2073C0.633662 12.8473 -0.0563379 13.0373 0.00366211 13.9873C0.443662 19.4873 4.39366 24.3073 10.0737 25.6173C17.0837 27.2273 24.0637 22.8673 25.6637 15.8873C25.6837 15.7873 25.7037 15.6973 25.7237 15.5973Z"   fill="#37339C" >
</path>
<path d="M8.22773 12.5327C8.24773 12.8327 8.39773 13.0827 8.69773 13.2727L11.6777 13.2727L11.6977 14.5127L8.69773 14.5127C8.38773 14.6727 8.22773 14.9127 8.22773 15.2527C8.22773 15.5927 8.38773 15.8427 8.69773 16.0027L11.6977 16.0027L11.6977 19.1227C11.6777 20.0527 12.0677 20.5027 12.8677 20.4927C13.6677 20.4727 14.0477 20.0127 13.9877 19.1227L13.9877 16.0027L16.9977 16.0027C17.2377 15.8127 17.3577 15.5627 17.3577 15.2527C17.3677 14.9427 17.2477 14.7027 16.9977 14.5127L13.9877 14.5127L13.9877 13.2927L16.9977 13.2727C17.2377 13.0827 17.3577 12.8327 17.3577 12.5327C17.3577 12.2327 17.2377 11.9827 16.9977 11.7927L14.6777 11.7927L17.4877 7.51268C17.7077 6.86268 17.5477 6.42268 16.9977 6.17268C16.4577 5.93268 16.0177 6.08268 15.6777 6.61268L12.8377 10.9327L10.0877 6.61268C9.70773 6.05268 9.24773 5.93268 8.69773 6.24268C8.14773 6.56268 7.98773 6.98268 8.19773 7.51268L11.0077 11.7927L8.69773 11.7927C8.37773 11.9827 8.21773 12.2327 8.22773 12.5327Z"   fill="#37339C" >
</path>
</svg>
