<svg xmlns="http://www.w3.org/2000/svg" width="28" height="28" viewBox="0 0 28 28" fill="none">
<path d="M2.36251 12.3028C3.11251 7.02284 7.50251 2.82284 12.8225 2.30284C16.3525 1.95284 19.8225 3.19284 22.3225 5.69284C24.8225 8.19284 26.0525 11.6628 25.7025 15.2028C25.1725 20.5228 20.9425 24.9128 15.6525 25.6428C15.1025 25.7228 14.5525 25.7528 14.0125 25.7528C12.3625 25.7528 10.7425 25.4128 9.24251 24.7528C8.72251 24.5228 8.15251 24.4128 7.61251 24.4428L3.10251 24.6628C2.80251 24.6728 2.52251 24.5328 2.36251 24.2728C2.21251 24.0228 2.20251 23.7028 2.34251 23.4428L3.15251 22.0028C3.69251 21.0328 3.73251 19.8328 3.26251 18.7928C2.36251 16.7728 2.05251 14.5228 2.36251 12.3028ZM24.0644 15.0333C23.6144 19.6133 19.9744 23.3933 15.4244 24.0233C13.5344 24.2833 11.6244 24.0133 9.90441 23.2533C9.22441 22.9533 8.49441 22.7933 7.77441 22.7933C7.69441 22.7933 7.60441 22.7933 7.52441 22.8033L4.49441 22.9533L4.58441 22.8033C5.37441 21.3733 5.43441 19.6233 4.76441 18.1133C3.98441 16.3833 3.71441 14.4533 3.98441 12.5333C4.63441 7.99334 8.41441 4.38334 12.9744 3.93334C16.0244 3.63334 19.0044 4.69334 21.1544 6.85334C23.3044 9.00334 24.3644 11.9833 24.0644 15.0333Z" fill-rule="evenodd"  fill="#3EAD1C" >
</path>
<path d="M10.105 9.0585C10.015 9.4585 9.91497 9.8385 9.81497 10.2085C9.71497 10.5685 9.60497 10.9185 9.48497 11.2485Q9.30497 11.7585 9.06497 12.2385C8.91497 12.5685 8.72497 12.8985 8.52497 13.2285C8.29497 13.5785 8.17497 13.8485 8.16497 14.0485C8.15497 14.2485 8.25497 14.4085 8.46497 14.5485C8.62497 14.6685 8.78497 14.7285 8.96497 14.7385C9.13497 14.7385 9.31497 14.6385 9.49497 14.4285L9.49497 19.0485C9.49497 19.3085 9.54497 19.4885 9.63497 19.6085C9.73497 19.7285 9.92497 19.7885 10.195 19.7885C10.415 19.7885 10.595 19.7285 10.715 19.6085C10.845 19.4885 10.905 19.3085 10.905 19.0485L10.905 11.4085C11.015 11.0985 11.125 10.7685 11.225 10.4285C11.325 10.0985 11.425 9.7485 11.525 9.3885C11.735 8.6685 11.565 8.2785 10.995 8.2085C10.705 8.1785 10.495 8.2285 10.375 8.3785C10.265 8.5285 10.175 8.7585 10.105 9.0585ZM19.1419 15.953C19.4119 15.953 19.5919 15.893 19.6819 15.773C19.7719 15.643 19.8219 15.473 19.8219 15.243C19.8219 15.033 19.7719 14.853 19.6819 14.723C19.5919 14.593 19.4119 14.523 19.1419 14.523L18.0519 14.523L18.0519 12.093L18.9019 12.093C19.1719 12.093 19.3519 12.033 19.4419 11.923Q19.5919 11.743 19.5919 11.383C19.5919 11.173 19.5419 11.003 19.4419 10.883C19.3519 10.753 19.1719 10.683 18.9019 10.683L18.0519 10.683L18.0519 8.943C18.0519 8.663 17.9919 8.483 17.8719 8.383C17.7519 8.293 17.5819 8.243 17.3619 8.243C17.1519 8.243 16.9719 8.293 16.8419 8.403C16.7219 8.503 16.6519 8.68299 16.6519 8.943L16.6519 10.683L14.6319 10.683L14.6319 9.003C14.6319 8.733 14.5619 8.543 14.4219 8.443C14.2819 8.35299 14.1119 8.303 13.9219 8.303C13.7319 8.303 13.5619 8.35299 13.4219 8.463Q13.2119 8.613 13.2119 9.003L13.2119 10.683L12.4319 10.683C12.1519 10.683 11.9719 10.753 11.8819 10.883C11.8019 11.003 11.7619 11.173 11.7619 11.383Q11.7619 11.743 11.8819 11.923C11.9719 12.033 12.1519 12.093 12.4319 12.093L13.2119 12.093L13.2119 14.523L11.9819 14.523C11.7219 14.523 11.5419 14.593 11.4519 14.723C11.3619 14.853 11.3119 15.033 11.3119 15.243C11.3119 15.473 11.3619 15.643 11.4519 15.773C11.5419 15.893 11.7219 15.953 11.9819 15.953L19.1419 15.953ZM16.6525 12.0931L16.6525 14.5231L14.6325 14.5231L14.6325 12.0931L16.6525 12.0931ZM11.7604 18.2794C11.4304 18.5594 11.2504 18.7894 11.2304 18.9794C11.2104 19.1594 11.2904 19.3294 11.4604 19.4794C11.5504 19.5894 11.6404 19.6794 11.7304 19.7294C11.8104 19.7894 11.9004 19.8094 11.9904 19.7994C12.0804 19.7894 12.1904 19.7394 12.3004 19.6694C12.4204 19.5894 12.5604 19.4794 12.7304 19.3194C13.0904 18.9594 13.4204 18.6194 13.7104 18.2794C13.9904 17.9494 14.2204 17.6494 14.3904 17.3794C14.5804 17.1294 14.6704 16.9094 14.6804 16.7094C14.6904 16.4994 14.5604 16.3194 14.3104 16.1594L14.3004 16.1494C14.0904 16.0194 13.9004 15.9894 13.7404 16.0494C13.5704 16.1194 13.3904 16.2994 13.1904 16.6194C12.8504 17.1794 12.3704 17.7294 11.7604 18.2794ZM16.8509 17.4444C17.1309 17.7244 17.4009 18.0144 17.6409 18.2944C17.8809 18.5844 18.1209 18.9044 18.3509 19.2644C18.5609 19.5644 18.7609 19.7344 18.9409 19.7644C19.1309 19.8044 19.3209 19.7544 19.5009 19.6244L19.5409 19.6144C19.7009 19.4744 19.8009 19.3144 19.8309 19.1344C19.8609 18.9444 19.7609 18.7144 19.5309 18.4344C19.3709 18.2044 19.2209 18.0144 19.0909 17.8344C18.9609 17.6644 18.8209 17.5044 18.6909 17.3444C18.5609 17.1844 18.4209 17.0344 18.2809 16.8844C18.1409 16.7344 17.9909 16.5744 17.8209 16.4044C17.6009 16.1744 17.3909 16.0544 17.1809 16.0444C16.9709 16.0344 16.7909 16.1144 16.6309 16.2944C16.4409 16.5244 16.3809 16.7244 16.4409 16.9044C16.5009 17.0844 16.6409 17.2644 16.8509 17.4444Z" fill-rule="evenodd"  fill="#3EAD1C" >
</path>
</svg>
