<?xml version="1.0" standalone="no"?><!DOCTYPE svg PUBLIC "-//W3C//DTD SVG 1.1//EN" "http://www.w3.org/Graphics/SVG/1.1/DTD/svg11.dtd"><svg t="1666981086194" class="icon" viewBox="0 0 1024 1024" version="1.1" xmlns="http://www.w3.org/2000/svg" p-id="10409" xmlns:xlink="http://www.w3.org/1999/xlink" width="200" height="200"><path d="M288.6 102.4c-8.9 0-17.4 3.5-23.7 9.7L139.4 234.6c-3.6 3.1-6.9 6.6-9.9 10.3-11 13.8-17 30.8-17 48.5v551.9c0 40.7 32 76.4 74.6 76.4h649.8c42.6 0 74.6-35.6 74.6-76.4V293.4c0-22.5-9.8-43.9-26.7-58.6L759.1 112c-6.3-6.2-14.9-9.6-23.7-9.6H288.6zM769.4 217H254.6l47.8-46.7h419.1l47.9 46.7z m-587.5 71l2.1-2.1c0.9-0.6 1.9-1 3-1h649.8c0.8 0 2 0.3 3.1 1l2 2c1.1 1.6 1.6 3.5 1.6 5.5v551.9c0 6.1-4.4 8.5-6.7 8.5H187.1c-2.3 0-6.7-2.4-6.7-8.5V293.4c0-2 0.5-3.9 1.5-5.4z" p-id="10410"></path><path d="M420.7 384.9c12.7-11.7 13.5-31.6 1.7-44.3-11.1-12.1-29.7-13.5-42.5-3.2l-71.1 60.9c-6.9 5.9-10.8 14.5-10.9 23.5v0.3c0 8.4 3.4 16.4 9.3 22.3l70.9 70.9c12.3 12.1 32.2 12 44.3-0.4 12-12.2 12-31.8 0-43.9l-17.6-17.6h157.8c57.2 0 98.7 35.8 100.7 85 2 52.2-40.6 92.4-100.7 92.4H390.1c-17.3 0-31.3 14-31.3 31.3s14 31.3 31.3 31.3h172.6c87.6 0 167-62.1 163.3-157.5-3.6-90.5-80.7-145.2-163.3-145.2H413.9l6.8-5.8z" p-id="10411"></path></svg>