<svg xmlns="http://www.w3.org/2000/svg" xmlns:xlink="http://www.w3.org/1999/xlink" width="16" height="16" viewBox="0 0 16 16" fill="none">
<path d="M10.0943 7.99231L13.608 3.18948C13.6193 3.17408 13.6302 3.15841 13.6407 3.14247C13.6512 3.12653 13.6613 3.11034 13.671 3.09391C13.6807 3.07747 13.69 3.0608 13.6989 3.04392C13.7078 3.02702 13.7162 3.00992 13.7243 2.99263C13.7323 2.97531 13.74 2.95781 13.7471 2.94014C13.7543 2.92245 13.7611 2.90461 13.7674 2.88659C13.7737 2.86858 13.7796 2.85043 13.785 2.83214C13.7905 2.81383 13.7955 2.79541 13.8 2.77687C13.8045 2.75832 13.8086 2.73967 13.8122 2.72093C13.8158 2.70219 13.8189 2.68338 13.8216 2.66448C13.8243 2.64557 13.8265 2.62662 13.8283 2.60762C13.8301 2.58861 13.8313 2.56957 13.8322 2.5505C13.833 2.53143 13.8334 2.51236 13.8333 2.49326C13.8331 2.47418 13.8326 2.45511 13.8315 2.43604C13.8305 2.41698 13.829 2.39796 13.827 2.37898C13.825 2.35999 13.8226 2.34106 13.8197 2.3222C13.8167 2.30333 13.8134 2.28455 13.8096 2.26586C13.8057 2.24716 13.8014 2.22856 13.7967 2.21007C13.792 2.19158 13.7868 2.17322 13.7811 2.15498C13.7755 2.13674 13.7694 2.11865 13.7629 2.10071C13.7564 2.08278 13.7494 2.06501 13.742 2.04742C13.7346 2.02982 13.7268 2.01242 13.7185 1.9952C13.7103 1.97799 13.7016 1.96099 13.6925 1.9442C13.6835 1.92742 13.674 1.91087 13.6641 1.89454C13.6542 1.87822 13.6439 1.86215 13.6332 1.84632C13.6225 1.83051 13.6115 1.81496 13.6 1.79968C13.5885 1.78441 13.5767 1.76943 13.5646 1.75473C13.5524 1.74003 13.5399 1.72564 13.527 1.71156C13.5141 1.69748 13.5008 1.68373 13.4873 1.67029C13.4737 1.65687 13.4598 1.64377 13.4456 1.63101C13.4314 1.61826 13.4169 1.60587 13.4021 1.59382C13.3873 1.58178 13.3722 1.57011 13.3568 1.55881C13.3445 1.54973 13.3319 1.5409 13.3192 1.53231C13.3065 1.52373 13.2936 1.5154 13.2805 1.50733C13.2675 1.49925 13.2542 1.49144 13.2409 1.48389C13.2275 1.47634 13.214 1.46905 13.2004 1.46203C13.1867 1.45502 13.1729 1.44827 13.159 1.4418C13.1451 1.43533 13.131 1.42913 13.1169 1.42322C13.1027 1.4173 13.0884 1.41167 13.074 1.40632C13.0596 1.40097 13.0452 1.3959 13.0306 1.39112C13.016 1.38635 13.0013 1.38186 12.9865 1.37766C12.9718 1.37346 12.9569 1.36956 12.942 1.36595C12.9271 1.36234 12.9121 1.35903 12.8971 1.35601C12.882 1.35299 12.8669 1.35028 12.8517 1.34786C12.8366 1.34544 12.8214 1.34332 12.8061 1.3415C12.7909 1.33968 12.7756 1.33817 12.7603 1.33696C12.745 1.33574 12.7297 1.33483 12.7144 1.33422C12.699 1.33362 12.6837 1.33331 12.6683 1.33331L3.33167 1.33331C2.68833 1.33331 2.16667 1.85565 2.16667 2.49998C2.16667 2.74798 2.2455 2.98948 2.39183 3.18948L5.90567 7.99231L5.90567 14.1667C5.90567 14.4428 6.12917 14.6667 6.405 14.6667C6.41317 14.6666 6.42134 14.6664 6.42952 14.666C6.43769 14.6656 6.44583 14.665 6.45397 14.6642C6.46211 14.6634 6.47022 14.6624 6.4783 14.6612C6.48637 14.66 6.49444 14.6585 6.50245 14.657C6.51047 14.6553 6.51844 14.6535 6.52637 14.6516C6.5343 14.6496 6.54217 14.6474 6.55 14.645C6.55781 14.6426 6.56556 14.64 6.57327 14.6373C6.58097 14.6345 6.58859 14.6316 6.59614 14.6284C6.60369 14.6253 6.61116 14.622 6.61855 14.6185C6.62594 14.615 6.63323 14.6113 6.64044 14.6074C6.64764 14.6036 6.65475 14.5995 6.66177 14.5953C6.66877 14.5911 6.67567 14.5867 6.68247 14.5822C6.68927 14.5776 6.69594 14.5729 6.7025 14.5681C6.70906 14.5632 6.7155 14.5582 6.72181 14.553C6.72813 14.5478 6.73431 14.5424 6.74038 14.5369C6.74642 14.5314 6.75234 14.5258 6.75811 14.52C6.76389 14.5142 6.76952 14.5083 6.775 14.5022C6.78048 14.4962 6.78583 14.49 6.791 14.4837C6.79619 14.4773 6.80122 14.4709 6.80608 14.4643C6.81094 14.4577 6.81564 14.451 6.82017 14.4443C6.82472 14.4374 6.82908 14.4305 6.83328 14.4235C6.83748 14.4165 6.8415 14.4094 6.84534 14.4022C6.8492 14.395 6.85287 14.3877 6.85636 14.3803C6.85984 14.3729 6.86316 14.3654 6.86628 14.3579C6.86939 14.3503 6.87233 14.3427 6.87508 14.335C6.87783 14.3273 6.88039 14.3195 6.88275 14.3117C6.88512 14.3038 6.8873 14.296 6.88928 14.288C6.89127 14.2801 6.89305 14.2721 6.89464 14.2641C6.89622 14.2561 6.89761 14.248 6.89881 14.24C6.9 14.2319 6.901 14.2238 6.9018 14.2156C6.90259 14.2075 6.90319 14.1993 6.90358 14.1912C6.90397 14.183 6.90417 14.1748 6.90417 14.1667L6.90417 7.82866C6.90417 7.72249 6.87033 7.61898 6.80767 7.53316L3.19733 2.59848C3.19508 2.5954 3.19294 2.59223 3.19091 2.589C3.18886 2.58576 3.18694 2.58245 3.18514 2.57909C3.18333 2.57573 3.18164 2.5723 3.18006 2.56882C3.17849 2.56533 3.17704 2.5618 3.1757 2.55821C3.17437 2.55463 3.17317 2.55101 3.17209 2.54734C3.17101 2.54367 3.17005 2.53998 3.16922 2.53625C3.1684 2.53252 3.1677 2.52876 3.16712 2.52498C3.16656 2.5212 3.16612 2.5174 3.16581 2.51359C3.16551 2.50979 3.16533 2.50598 3.16528 2.50215C3.16524 2.49833 3.16533 2.49451 3.16555 2.4907C3.16575 2.48688 3.1661 2.48307 3.16658 2.47928C3.16706 2.47548 3.16767 2.47171 3.16841 2.46796C3.16915 2.46421 3.17001 2.4605 3.171 2.45681C3.17199 2.45311 3.17311 2.44945 3.17436 2.44584C3.1756 2.44223 3.17696 2.43867 3.17845 2.43515C3.17994 2.43163 3.18155 2.42816 3.18328 2.42475C3.18501 2.42134 3.18685 2.418 3.18881 2.41471C3.19077 2.41143 3.19284 2.40822 3.19502 2.40507C3.19719 2.40194 3.19947 2.39888 3.20186 2.39589C3.20425 2.39291 3.20673 2.39001 3.20933 2.3872C3.21191 2.38439 3.21459 2.38166 3.21737 2.37903C3.22015 2.3764 3.223 2.37387 3.22595 2.37143C3.2289 2.36901 3.23193 2.36668 3.23505 2.36446C3.23815 2.36223 3.24133 2.36012 3.24458 2.35812C3.24784 2.35611 3.25116 2.35421 3.25455 2.35243C3.25792 2.35066 3.26136 2.34901 3.26486 2.34746C3.26836 2.34592 3.27191 2.34451 3.2755 2.34321C3.27909 2.34191 3.28273 2.34074 3.28641 2.3397C3.29008 2.33865 3.29379 2.33773 3.29753 2.33693C3.30127 2.33614 3.30503 2.33548 3.30881 2.33495C3.3126 2.33442 3.31641 2.33401 3.32022 2.33373C3.32403 2.33346 3.32785 2.33332 3.33167 2.33331L12.6683 2.33331C12.6722 2.33332 12.676 2.33346 12.6798 2.33373C12.6836 2.334 12.6874 2.3344 12.6912 2.33493C12.695 2.33546 12.6987 2.33612 12.7025 2.3369C12.7062 2.33769 12.7099 2.33861 12.7136 2.33965C12.7173 2.3407 12.7209 2.34188 12.7245 2.34317C12.7281 2.34447 12.7317 2.34589 12.7352 2.34742C12.7387 2.34896 12.7421 2.35062 12.7455 2.3524C12.7489 2.35417 12.7522 2.35606 12.7555 2.35807C12.7587 2.36007 12.7619 2.36219 12.765 2.36442C12.7681 2.36664 12.7711 2.36896 12.7741 2.3714C12.777 2.37383 12.7799 2.37636 12.7827 2.379C12.7855 2.38162 12.7881 2.38434 12.7907 2.38715C12.7933 2.38996 12.7958 2.39287 12.7982 2.39586C12.8006 2.39884 12.8029 2.40191 12.805 2.40504C12.8072 2.40819 12.8093 2.4114 12.8112 2.41468C12.8132 2.41798 12.815 2.42132 12.8168 2.42473C12.8185 2.42815 12.8201 2.43162 12.8216 2.43514C12.8231 2.43866 12.8245 2.44223 12.8257 2.44584C12.8269 2.44945 12.828 2.45311 12.829 2.45681C12.83 2.4605 12.8309 2.46422 12.8316 2.46798C12.8324 2.47173 12.833 2.4755 12.8334 2.47929C12.8339 2.48308 12.8342 2.48689 12.8345 2.49071C12.8347 2.49453 12.8348 2.49834 12.8347 2.50217C12.8347 2.50599 12.8345 2.50981 12.8342 2.51362C12.8339 2.51743 12.8334 2.52123 12.8328 2.52501C12.8322 2.52879 12.8315 2.53255 12.8307 2.53628C12.8299 2.54001 12.8289 2.5437 12.8278 2.54737C12.8268 2.55104 12.8255 2.55466 12.8242 2.55825C12.8229 2.56183 12.8214 2.56536 12.8198 2.56884C12.8182 2.57232 12.8166 2.57574 12.8147 2.57911C12.8129 2.58247 12.811 2.58577 12.809 2.58901C12.8069 2.59224 12.8048 2.5954 12.8025 2.59848L9.19217 7.53316C9.18439 7.54378 9.17705 7.5547 9.17013 7.56592C9.1632 7.57714 9.15675 7.58861 9.15073 7.60034C9.14472 7.61206 9.13919 7.62402 9.13412 7.63619C9.12906 7.64834 9.12448 7.66069 9.12039 7.67322C9.1163 7.68573 9.1127 7.69841 9.10962 7.71122C9.10653 7.72403 9.10395 7.73694 9.10188 7.74995C9.09981 7.76295 9.09827 7.77603 9.09722 7.78919C9.09617 7.80231 9.09566 7.81547 9.09567 7.82866L9.09567 12.757C9.09567 13.0332 9.31917 13.257 9.595 13.257C9.60317 13.257 9.61134 13.2568 9.61952 13.2564C9.62769 13.256 9.63583 13.2553 9.64397 13.2545C9.65211 13.2537 9.66023 13.2527 9.66831 13.2515C9.67639 13.2503 9.68445 13.2489 9.69247 13.2473C9.70048 13.2457 9.70847 13.2439 9.71639 13.2419C9.72433 13.2399 9.7322 13.2378 9.74003 13.2354C9.74786 13.233 9.75561 13.2304 9.76331 13.2277C9.77102 13.2249 9.77864 13.222 9.78619 13.2188C9.79373 13.2157 9.80122 13.2124 9.80861 13.2089C9.816 13.2054 9.8233 13.2017 9.8305 13.1978C9.8377 13.194 9.84481 13.1899 9.85183 13.1857C9.85884 13.1815 9.86575 13.1771 9.87255 13.1726C9.87934 13.168 9.88601 13.1633 9.89258 13.1585C9.89916 13.1536 9.90559 13.1485 9.91191 13.1434C9.91823 13.1382 9.92442 13.1328 9.93047 13.1273C9.93652 13.1218 9.94244 13.1162 9.94822 13.1104C9.954 13.1046 9.95964 13.0987 9.96513 13.0926C9.97061 13.0866 9.97594 13.0804 9.98112 13.074C9.98631 13.0677 9.99134 13.0613 9.9962 13.0547C10.0011 13.0481 10.0058 13.0414 10.0103 13.0346C10.0148 13.0278 10.0192 13.0209 10.0234 13.0139C10.0276 13.0069 10.0316 12.9998 10.0355 12.9926C10.0393 12.9853 10.043 12.978 10.0465 12.9707C10.05 12.9633 10.0533 12.9558 10.0564 12.9482C10.0595 12.9407 10.0625 12.933 10.0652 12.9253C10.068 12.9176 10.0705 12.9099 10.0729 12.902C10.0753 12.8942 10.0775 12.8863 10.0794 12.8784C10.0814 12.8705 10.0832 12.8625 10.0848 12.8545C10.0864 12.8464 10.0878 12.8384 10.089 12.8303C10.0902 12.8222 10.0912 12.8141 10.092 12.806C10.0928 12.7978 10.0934 12.7897 10.0938 12.7815C10.0941 12.7733 10.0943 12.7652 10.0943 12.757L10.0943 7.99231Z"   fill="#C4C4C4" >
</path>
</svg>
