<svg xmlns="http://www.w3.org/2000/svg" xmlns:xlink="http://www.w3.org/1999/xlink" width="47.850006103515625" height="48" viewBox="0 0 47.850006103515625 48" fill="none">
<rect  x="0" y="0" width="47.85" height="48" rx="9.600000000000001"    fill="#EDEFFE" >
</rect>
<g  clip-path="url(#clip-path-0)">
<path d="M39.0233 32.3683L39.0233 32.0887C38.9387 31.3431 38.8538 29.8519 38.0912 28.4538C37.6678 27.7082 37.0745 27.0558 36.312 26.5898C35.6342 26.1238 34.8717 25.8442 33.9397 25.751L33.9397 24.7258C33.9397 24.353 33.7702 23.9802 33.516 23.7006C33.2618 23.421 32.9229 23.2346 32.584 23.2346C32.0756 23.2346 31.8214 23.5142 31.652 23.7006L28.9407 26.9626C28.6018 27.3354 28.4323 27.8014 28.4323 28.2674C28.4323 28.9198 28.7712 29.2926 29.0254 29.5722L31.7367 32.9275C31.9062 33.1139 32.1604 33.3935 32.6687 33.3935C33.3466 33.3935 33.8549 32.8343 33.8549 32.0887L33.8549 30.7838C35.0411 30.8771 35.8885 31.6227 36.651 32.9275C36.9052 33.3935 37.244 33.6731 37.6678 33.6731C38.3454 33.7663 39.0233 33.2071 39.0233 32.3683C39.0233 32.4615 39.0233 32.3683 39.0233 32.3683ZM36.0578 30.0383C35.2106 29.4791 34.2786 29.2926 33.2618 29.2926C32.8382 29.2926 32.584 29.6654 32.584 30.0383L32.584 31.4363L30.2116 28.547L30.0422 28.3606C30.0422 28.2674 30.0422 28.2674 30.1269 28.1742L32.6687 25.1918L32.6687 26.4966C32.6687 26.8694 33.0077 27.2422 33.3466 27.2422C36.4815 27.4286 37.3287 29.3858 37.5829 31.4363C37.0745 30.7838 36.5661 30.3179 36.0578 30.0383ZM36.0578 21.7434C36.3968 22.023 36.9899 21.8366 37.3287 21.3706C37.6678 20.9046 37.5829 20.2522 37.1594 19.9726L24.9585 10.466C24.8738 10.3728 24.789 10.2796 24.6196 10.1864C24.2807 10 23.7723 10.0932 23.4334 10.5592L11.3173 19.9726C10.9783 20.2522 10.8936 20.9046 11.1478 21.3706C11.4867 21.8366 11.9951 22.023 12.4187 21.7434L13.266 21.091L13.266 36.6555C13.266 37.2147 13.6896 37.6807 14.198 37.6807C14.7064 37.6807 15.13 37.2147 15.13 36.6555L15.13 19.5997L24.1959 12.6097L36.0578 21.7434ZM20.0442 20.9046L17.9261 20.9046C17.1635 20.9046 16.994 21.091 16.994 21.9298L16.994 24.2598C16.994 25.0986 17.1635 25.285 17.9261 25.285L20.0442 25.285C20.8068 25.285 20.9763 25.0986 20.9763 24.2598L20.9763 21.9298C21.061 21.091 20.8915 20.9046 20.0442 20.9046ZM20.0442 26.5898L17.9261 26.5898C17.1635 26.5898 16.994 26.7762 16.994 27.615L16.994 29.945C16.994 30.7838 17.1635 30.9703 17.9261 30.9703L20.0442 30.9703C20.8068 30.9703 20.9763 30.7838 20.9763 29.945L20.9763 27.615C21.061 26.7762 20.8915 26.5898 20.0442 26.5898ZM20.0442 32.2751L17.9261 32.2751C17.1635 32.2751 16.994 32.4615 16.994 33.3003L16.994 35.6303C16.994 36.4691 17.1635 36.6555 17.9261 36.6555L20.0442 36.6555C20.8068 36.6555 20.9763 36.4691 20.9763 35.6303L20.9763 33.3003C21.061 32.4615 20.8915 32.2751 20.0442 32.2751ZM25.5516 32.2751L23.4334 32.2751C22.6708 32.2751 22.5014 32.4615 22.5014 33.3003L22.5014 35.6303C22.5014 36.4691 22.6708 36.6555 23.4334 36.6555L25.5516 36.6555C26.3141 36.6555 26.4836 36.4691 26.4836 35.6303L26.4836 33.3003C26.4836 32.4615 26.3141 32.2751 25.5516 32.2751ZM25.5516 26.5898L23.4334 26.5898C22.6708 26.5898 22.5014 26.7762 22.5014 27.615L22.5014 29.945C22.5014 30.7838 22.6708 30.9703 23.4334 30.9703L25.5516 30.9703C26.3141 30.9703 26.4836 30.7838 26.4836 29.945L26.4836 27.615C26.4836 26.7762 26.3141 26.5898 25.5516 26.5898Z"   fill="#37339C" >
</path>
</g>
<defs>
<clipPath id="clip-path-0">
<path d="M11 38L39 38L39 10L11 10L11 38Z" fill="white"/>
</clipPath>
</defs>
</svg>
